<svg width="20" height="23" fill="none" xmlns="http://www.w3.org/2000/svg"><path d="M15.38 7.07c.394-.28.773-.592 1.12-.938.726-.726 1.211-1.619 1.367-2.515.171-.982-.08-1.894-.687-2.502-.485-.485-1.142-.741-1.9-.741-1.078 0-2.215.518-3.118 1.421-1.445 1.445-2.287 3.44-2.74 4.863-.336-1.43-1.005-3.362-2.305-4.662C6.419 1.3 5.527.94 4.685.94c-.688 0-1.343.24-1.831.728-1.087 1.086-.94 2.995.327 4.263.453.452.98.827 1.538 1.14H0v5.564h1.391v9.739h16.695v-9.739h1.392V7.07H15.38zm-2.112-4.169c.602-.602 1.355-.962 2.012-.962.232 0 .558.048.792.282.566.565.248 1.876-.68 2.804-.955.955-2.24 1.612-3.357 2.044h-1.101c.403-1.25 1.131-2.966 2.334-4.168zm-9.574.71c-.015-.198-.001-.57.265-.836.223-.223.517-.27.725-.27.462 0 .945.218 1.324.598.737.736 1.343 1.908 1.754 3.388l.033.12-.12-.033c-1.48-.411-2.652-1.017-3.388-1.754-.344-.344-.56-.786-.593-1.213zm4.654 17.372H2.783V11.94h5.565v9.043zm0-9.74H1.392V8.462h6.956v2.783zm8.347 9.74H11.13V11.94h5.565v9.043zm1.392-9.74H11.13V8.462h6.957v2.783z" fill="#fff"/></svg>