<svg width="215" height="66" fill="none" xmlns="http://www.w3.org/2000/svg"><g clip-path="url(#clip0)"><path d="M44.68 23.26c-.563-4.203-6.333-4.982-6.771-5.309l-3.331-.218s-4.004 4.422-5.114 14.48c-1.11 10.058 8.226 5.979 8.664 5.745.438-.218-.673-1.432-1.44-4.204-.781-2.755 8.399-7.395 7.992-10.493z" fill="#E0E1E0"/><path d="M31.247 31.606c.89-.888 2.44 1.105 3.659.062 1.33-2.647 1.11-3.487 3.331-5.698 1.392-1.495-.5-1.993-.5-3.317.438 0 1.282-1.494 2.94.218 0-.996-.297-3.238-.344-4.11-1.22-.467-2.252-.67-2.44-.81l-3.331-.218s-4.004 4.422-5.114 14.48c-.297 2.631.14 4.282.923 5.294-.22-1.775-.767-4.095.876-5.901z" fill="#C6C7C6"/><path d="M41.02 19.976c.923.996 2.519 2.833 2.034 4.281-.485 1.432-4.551 4.686-4.66 4.686-.11 0 2.736-3.72 3.159-4.748.672-1.635-.532-4.22-.532-4.22z" fill="#FBFBFB"/><path d="M36.517 33.52s-.97-1.556.406-3.487c0 0 .704-.638 1.596-.81.891-.186 1.063.14.531.686-.547.53-2.69 2.724-2.533 3.612z" fill="#C6C7C6"/><path d="M44.79 23.245c-.282-2.149-1.908-3.425-3.488-4.188-.797-.39-1.58-.638-2.19-.825-.312-.094-.578-.171-.765-.234-.204-.062-.345-.109-.36-.14l-.063-.015-3.33-.218-.095.03c-.015.016-4.019 4.453-5.13 14.542-.062.56-.093 1.09-.093 1.573 0 2.102.563 3.425 1.423 4.235.86.81 2.002 1.074 3.128 1.074 2.096 0 4.16-.919 4.379-1.012a.272.272 0 00.156-.28c0-.156-.062-.312-.156-.545-.282-.654-.907-1.775-1.392-3.503a1.074 1.074 0 01-.047-.312c0-.622.485-1.4 1.235-2.21 1.127-1.23 2.816-2.6 4.239-3.924.703-.67 1.345-1.323 1.814-1.962.469-.638.766-1.26.766-1.852-.016-.094-.016-.172-.031-.234zm-1.439 2.569c-1.126 1.277-2.815 2.647-4.238 3.955-.704.654-1.345 1.292-1.814 1.9-.47.606-.767 1.198-.767 1.743 0 .124.016.249.047.373.329 1.168.72 2.071 1.017 2.725.156.327.281.607.375.81.094.218.141.373.141.451 0 .063-.016.063-.047.078-.188.094-2.236.997-4.27.997-1.094 0-2.158-.25-2.97-1.012-.798-.748-1.346-2.009-1.361-4.08 0-.467.03-.996.094-1.557.547-5.013 1.83-8.625 2.955-10.976a18.305 18.305 0 011.486-2.6c.188-.28.36-.498.47-.638.046-.063.093-.125.124-.156l.016-.016 3.253.218c.094.047.219.094.39.156.704.218 2.174.576 3.52 1.355 1.344.762 2.549 1.93 2.783 3.72a.747.747 0 01.016.188c.016.7-.47 1.51-1.22 2.366z" fill="#272827"/><path d="M36.923 29.987c-.047-.032-.922 1.167-.922 2.35 0 .468.125.95.485 1.355a.12.12 0 00.156.016.12.12 0 00.016-.156 1.792 1.792 0 01-.438-1.215c0-.544.187-1.09.375-1.51.094-.218.391-.81.328-.84z" fill="#272827"/><path d="M40.02 58.572c.297-2.803-2.346-7.396-3.065-10.634-3.003-1.323-6.428-2.18-8.867-4.266-.22 8.843 7.788 12.533 11.932 14.9z" fill="#C6C7C6"/><path d="M54.502 73.16c-1.33-3.876-10.557-21.236-15.545-24.21-5.005-2.99-12.559-3.098-13.888-10.727-1.33-7.63.438-7.52 3.331-7.738 2.894-.218 6.365-.732 6.365-.732l.297-2.289s1.252.888 1.252-1.183c0 0 2.596-1.401 1.704-2.88-.891-1.48-.813-5.683 1.251-7.084 2.08-1.402 5.036-5.745 2.143-10.027C38.534 2.024 33.217-.84 29.51.405 25.804 1.65 15.592 3.939 15.436 9.108v3.176s-7.147.841-9.806 3.285C3.675 17.375.97 22.311 3.957 29.052c0 0 1.329 1.293.219 3.286C3.066 34.33.03 35.358.11 37.787c.078 2.429 4.003 5.387 6.286 5.745 1.893.311 4.457-.498 5.161-.95 0 .467.172 1.588.766 3.908 2.847 11.21 3.973 41.99 1.736 46.973 0 0-2.33 1.977-.328 2.865 2.002.887 4.222.887 5.849.373 0 0 4.066 3.612 11.182.296l1.298-.81s2.002 2.102 5.442 1.433c3.44-.67 9.555-.997 11.557-.67 2.002.327 5.662-.109 5.771-12.829 0-.015 1-7.084-.328-10.96z" fill="#E0E1E0"/><path d="M24.991 40.434c-.422.903-.516 1.9-1.235 2.553-.673.623-1.283 1.323-2.096 1.806-1.282.81-2.565 1.76-2.893 3.27 1.376 0 2.705 0 4.082-.234.813-.14 1.767-.187 2.236.56.469.717.094 1.557.281 2.414.047.28.188.623.423.716 1.094.467 2.33 0 3.424.327 1.768.514 3.566.716 5.333 1.37.814.327 1.517.856 2.284 1.23.422.234.907.374 1.329.467.188.047.47.234.516.094.188-.28 0-.717-.094-1.09-.375-1.51-.86-3.083-.469-4.64.047-.233.14-.467.235-.685-4.99-2.662-11.995-3.052-13.278-10.385-.078-.436-.14-.84-.203-1.214.047.482.11.98.203 1.494.157.67.204 1.386-.078 1.947zm9.196-14.013c-2.174.327-4.317 1.012-6.537.53-1.08-.265-1.564-1.495-1.611-2.585-.813.514-1.502 1.214-2.237 1.868.673-.233 1.283-.716 2.002-.903-.047 1.184.954 1.9 2.002 2.087 2.096.373 4.144-.28 6.13-.187.298 0 .657.498 1.064.763l.062-.53s.126.078.282.14a3.5 3.5 0 01-1.157-1.183zm2.001.779c.079-.203.141-.498.141-.919 0 0 .188-.109.438-.28-.407-.078-.798-.218-1.126-.467a2.293 2.293 0 00.547 1.666z" fill="#C6C7C6"/><path d="M28.072 26.515c2.283.327 4.473-.374 6.709-.763-2.643-.187-5.474.638-8.007-.42.266.607.72 1.12 1.298 1.183z" fill="#EDEEED"/><path d="M17.875 31.621c-.594-7.395-3.362-11.023-.657-12.829-2.361.11-3.8 2.865-2.752 5.792 2.017 5.06 2.08 9.404-1 13.42-1.127 1.215-3.316 4.532-5.068 5.715 1.126-.218 2.815-.81 3.222-1.059.015.934 7.929-7.318 6.255-11.039z" fill="#C6C7C6"/><path d="M26.915 43.314c-3.003.685-10.306 1.79-11.714.887.625-.451 1.126-1.167 1.564-1.821 0-.047.14-.187.14-.234 1.048-1.603 1.658-3.27 2.002-5.153.094-.374.047-.763.141-1.137.188-1.417.563-2.74.673-4.172.093-.857.672-1.557 1.517-1.853-1.001-1.137-2.143-2.226-2.753-3.643 0-.047-.094-.14-.14-.187-.329-.514-.517-1.043-.72-1.51a8.97 8.97 0 01-.563-2.133c-.14-1.277-.47-2.694.188-3.877-.516 0-1.001.28-1.33.623a7.653 7.653 0 00-.453.544c-.047.795-.063 1.604.031 2.445.047.374.188.716.282 1.09a55.62 55.62 0 00.766 3.363c.844 3.238.797 6.601-.36 9.715a10.805 10.805 0 01-3.722 3.799l-.876 1.152c.016.452.188 1.48.767 3.55 1.391 5.013 2.095 14.806 2.283 23.868 3.3-1.433 5.99-4.406 8.304-7.038 5.302-5.714 3.973-11.786 3.973-18.278zm19.298 50.631c-.829-.435-1.47-.591-2.455-.934-2.612-.887-7.898-4.016-8.555-6.585-1.314-4.438.532-10.51 4.817-12.752 2.987-1.557 5.77-1.775 10.885 0-9.478-8.111-14.732-3.565-17.407 2.943.22-5.59-.89-11.786-2.001-17.095.375 11.334 1.032 27.931-3.8 38.518.938-.218 1.97-.56 3.065-1.074l1.298-.81s2.002 2.102 5.442 1.433a9.3 9.3 0 01.75-.125c-1.282-.498-3.158-1.635-2.22-2.569 2.22-1.76 5.036-1.463 10.18-.95zM34.124 13.794c5.724-3.129 5.77-7.94 5.051-10.104a16.106 16.106 0 00-2.126-1.635c1.58 4.562.907 7.302-2.925 11.74z" fill="#C6C7C6"/><path d="M34.718.887C33.405.405 31.92.093 30.715.234c.266.14 5.114 10.197.422 13.062 5.176-2.055 4.88-7.893 3.581-12.409zM7.788 41.18c.923-1.65 1.142-3.86.47-5.604-.063 2.429-2.425 6.446-4.786 6.586.829.638 2.612.67 4.316-.981zM23.13 69.86c-.86-1.277-3.097-2.85-4.692-4.11-3.69-2.102-3.143-2.616-3.002-3.753-.266.498-.704.685-.094 2.678 1.454 4.562 5.551 4.375 5.333 13.437 0 5.745 0 11.941-3.55 17.25-.313.467-.5 1.028-.563 1.65a8.471 8.471 0 002.94-.295c.078-.576-1.001-1.355 2.095-3.566C24.46 87.236 24.46 78.19 23.13 69.86zm-4.223-40.854c1.424 1.775 3.691 2.413 5.912 3.27.5-1.651 1.83-1.667 3.566-1.791 2.893-.218 6.365-.732 6.365-.732l.047-.327c-5.286-1.713-10.588.452-15.89-.42z" fill="#C6C7C6"/><path d="M54.611 73.13c-.672-1.947-3.315-7.256-6.412-12.456-1.548-2.6-3.206-5.17-4.801-7.287-1.595-2.117-3.112-3.767-4.379-4.53-2.518-1.51-5.661-2.273-8.32-3.628-2.658-1.355-4.848-3.254-5.505-7.022-.313-1.76-.453-3.114-.453-4.141 0-.857.094-1.48.266-1.946.265-.701.688-1.028 1.266-1.23.579-.203 1.314-.234 2.143-.296 2.893-.218 6.38-.732 6.38-.732l.079-.015.015-.078.282-2.118c.11.063.281.125.47.125a.63.63 0 00.562-.312c.14-.218.235-.576.235-1.09.14-.077.516-.31.907-.638.485-.42.985-.996.985-1.65 0-.234-.063-.467-.203-.7-.329-.53-.532-1.48-.516-2.523 0-1.682.516-3.581 1.751-4.406 1.486-1.012 3.394-3.457 3.394-6.353 0-1.23-.344-2.537-1.22-3.83C39.082 2.631 34.906 0 31.403 0c-.672 0-1.314.093-1.924.296-1.845.623-5.332 1.51-8.382 2.896-1.517.685-2.94 1.494-3.988 2.475-1.048.966-1.736 2.102-1.783 3.441v3.067c-.39.047-1.986.265-3.831.716-2.112.514-4.583 1.34-5.943 2.585-1.36 1.245-3.034 3.939-3.034 7.676 0 1.759.375 3.767 1.345 5.947l.015.016.016.015.031.031c.125.125.61.717.61 1.62 0 .436-.11.934-.422 1.51-.532.95-1.533 1.697-2.424 2.507C.782 35.575 0 36.462 0 37.693v.094c.047 1.276 1.063 2.631 2.346 3.736 1.298 1.09 2.846 1.931 4.035 2.133.297.047.61.063.922.063.876 0 1.799-.156 2.58-.374.658-.187 1.22-.39 1.565-.576.047.56.234 1.681.766 3.737 1.798 7.084 2.925 22.077 2.925 33.35 0 3.253-.094 6.196-.282 8.547-.188 2.335-.485 4.095-.891 4.982-.063.062-.313.28-.563.592-.298.358-.595.84-.595 1.323 0 .202.063.42.204.607.14.187.36.358.672.499a8.703 8.703 0 003.519.731 8.08 8.08 0 002.361-.342c.297.249 2.19 1.681 5.427 1.681 1.626 0 3.581-.358 5.818-1.417l1.22-.763c.312.296 1.767 1.542 4.128 1.542.422 0 .876-.047 1.345-.125 2.502-.482 6.459-.794 9.164-.794.986 0 1.815.047 2.346.125a4 4 0 00.767.062c1.047 0 2.345-.436 3.346-2.289 1.001-1.837 1.752-5.075 1.799-10.711.016-.078.36-2.585.36-5.434.015-1.9-.141-3.97-.673-5.543zm.297 9.34c-.047.5-.094.904-.125 1.184-.031.28-.063.436-.063.436-.046 5.62-.797 8.828-1.767 10.618-.97 1.79-2.158 2.165-3.143 2.165-.266 0-.5-.032-.735-.063-.547-.093-1.376-.124-2.377-.124-2.721 0-6.678.311-9.212.794a6.544 6.544 0 01-1.298.124 6.234 6.234 0 01-2.987-.763 5.052 5.052 0 01-.782-.529c-.093-.078-.156-.124-.203-.171l-.047-.047-.015-.015-.063-.063-.078.047-1.282.81c-2.221 1.043-4.145 1.385-5.724 1.385-1.72 0-3.066-.42-3.973-.84a5.95 5.95 0 01-1.016-.577c-.11-.077-.204-.14-.266-.186l-.063-.047-.015-.016-.047-.046-.063.015a7.898 7.898 0 01-2.346.343 8.51 8.51 0 01-3.425-.716 1.71 1.71 0 01-.594-.42.808.808 0 01-.156-.484c0-.389.266-.84.547-1.183.141-.171.282-.311.376-.42l.125-.125.047-.046.015-.016.016-.016c.422-.934.72-2.709.907-5.075.188-2.367.281-5.31.281-8.563 0-11.288-1.11-26.281-2.924-33.412-.594-2.304-.766-3.425-.766-3.877v-.202l-.172.109c-.282.187-.907.436-1.674.638-.766.202-1.673.358-2.518.358-.312 0-.61-.016-.891-.062-1.11-.172-2.659-.997-3.925-2.07C1.22 40.246.235 38.907.219 37.755v-.078c0-1.137.704-1.962 1.595-2.756.876-.794 1.908-1.541 2.471-2.553.328-.607.454-1.152.454-1.62 0-1.058-.595-1.697-.689-1.79-.954-2.149-1.329-4.11-1.329-5.838 0-3.66 1.658-6.306 2.972-7.505 1.298-1.199 3.737-2.024 5.848-2.538a38.275 38.275 0 012.737-.545c.704-.109 1.158-.17 1.158-.17l.093-.016V9.108c.032-1.245.689-2.335 1.705-3.285 1.533-1.417 3.91-2.522 6.256-3.379 2.346-.856 4.644-1.463 6.036-1.946a5.59 5.59 0 011.846-.296c3.409 0 7.538 2.585 9.946 6.15.845 1.261 1.189 2.507 1.189 3.706 0 2.787-1.877 5.216-3.3 6.165-1.33.903-1.846 2.865-1.846 4.593 0 1.075.204 2.04.563 2.632.126.202.172.389.172.575 0 .545-.438 1.09-.907 1.495a5.346 5.346 0 01-.64.467c-.095.063-.157.094-.204.125-.047.031-.078.047-.078.047l-.063.03v.063c0 .545-.094.872-.203 1.043a.433.433 0 01-.391.218c-.125 0-.25-.047-.344-.078a.335.335 0 01-.11-.062l-.031-.016h-.016l-.156-.109-.031.187-.282 2.195c-.094.016-.266.032-.5.078-1.11.156-3.613.483-5.771.654-1.11.094-2.064.11-2.784.592-.36.233-.64.576-.829 1.09-.187.498-.281 1.152-.281 2.024 0 1.043.14 2.397.453 4.172.673 3.846 2.925 5.823 5.63 7.178 2.69 1.354 5.834 2.133 8.305 3.612 1.22.732 2.736 2.367 4.316 4.468 4.754 6.306 10.197 16.8 11.182 19.68.532 1.526.688 3.58.688 5.496.031 1.448-.063 2.803-.14 3.799z" fill="#272827"/><path d="M26.54 1.417c-.658.218-1.314.451-1.987.7 1.72.094 5.787 4.811 5.599 10.494 1.845-5.06-.22-9.653-3.613-11.194z" fill="#C6C7C6"/><path d="M16.405 11.864l.203 2.491s.517-3.752 2.628-6.695c1.548-2.164 4.394-3.487 6.318-4.608 0 .015-9.508 1.557-9.149 8.812zm14.388-8.719l-1.486-1.277s1.783 2.367 2.237 5.154c.328 2.055-.516 4.344-.97 6.01 0 0 4.426-6.057.219-9.887zm5.99.935l-.923-1.713s.798 2.849.219 5.605c-.438 2.04-2.064 3.86-3.096 5.262 0 0 6.333-4.064 3.8-9.155zm4.332 4.187l-.063-1.946s-.547 2.912-2.299 5.123c-1.298 1.634-3.565 2.553-5.114 3.347 0 0 7.476-.856 7.476-6.524z" fill="#FBFBFB"/><path d="M39.16 17.92c-.594-.062-.688 1.246-.688 1.246s2.095 3.098 2.22 3.114c.11.015 1.408-2.974 1.72-3.628.298-.67-3.252-.732-3.252-.732z" fill="#FFDE00"/><path d="M41.177 18.076a17.521 17.521 0 00-2.017-.156c-.594-.062-.688 1.246-.688 1.246s1.798 2.647 2.158 3.067c.485-1.323.641-2.787.547-4.157z" fill="#FB0"/><path d="M42.35 18.278c-.188-.124-.47-.202-.797-.264-.986-.187-2.393-.218-2.393-.218h-.047a.53.53 0 00-.422.233c-.141.203-.22.483-.266.7a4.234 4.234 0 00-.063.406v.03l.016.032 1.063 1.557c.266.39.548.778.75 1.074.11.14.204.265.267.358a.677.677 0 00.094.11l.03.03c.017.016.017.032.08.032h.015c.062 0 .078-.032.094-.047l.062-.078c.157-.25.5-.98.845-1.744.344-.763.688-1.541.829-1.837.015-.047.03-.078.03-.125 0-.077-.093-.17-.187-.249zm-.047.327c-.156.327-.547 1.246-.922 2.071-.188.405-.376.81-.517 1.09-.078.14-.125.265-.172.342l-.015.016c-.016-.031-.047-.062-.078-.093-.266-.343-.767-1.075-1.22-1.713-.376-.56-.72-1.043-.798-1.168 0-.03.016-.078.016-.155a3.61 3.61 0 01.156-.623.76.76 0 01.157-.25.228.228 0 01.187-.077h.032s.203 0 .5.015c.454.016 1.142.078 1.705.172.281.046.531.109.703.186a.66.66 0 01.188.11l.047.077h.031z" fill="#B35800"/><path d="M38.737 17.189c-.469.155-.375 1.4-.375 1.4s1.955 1.916 2.096 2.025c.078.046.72-3.254.86-3.986.172-.716-2.58.56-2.58.56z" fill="#FFDE00"/><path d="M39.848 16.737c-.579.218-1.095.467-1.095.467-.469.156-.375 1.401-.375 1.401s.844.825 1.47 1.433c.516-.903.516-2.18 0-3.301z" fill="#FB0"/><path d="M41.334 16.348c-.079-.047-.157-.047-.25-.047-.376 0-.955.203-1.455.405-.5.202-.923.39-.923.39a.568.568 0 00-.25.217c-.172.296-.203.747-.203 1.028 0 .155.015.264.015.264v.047l.032.031s.485.483 1 .981c.25.25.517.498.72.685.11.093.188.187.266.25.078.061.11.093.14.124l.063.015a.12.12 0 00.078-.03l.032-.047c.015-.047.047-.125.078-.234.203-.779.657-3.145.782-3.752l.015-.078a.393.393 0 00-.14-.25zm-.11.265c-.078.358-.266 1.354-.453 2.257-.094.451-.188.887-.25 1.199a2.37 2.37 0 01-.094.358l-.016-.016c-.235-.218-.72-.685-1.157-1.105-.36-.358-.688-.67-.782-.763v-.202c0-.187.015-.436.062-.639a.846.846 0 01.11-.264c.047-.063.094-.11.14-.125 0 0 .11-.047.266-.124.25-.11.642-.28 1.033-.405.39-.14.766-.25.985-.234.078 0 .125.016.14.031l.016.032z" fill="#B35800"/><path d="M38.566 17.843c.125-.452.938-.452.907-.514-.063 0-.782-.203-1.064.56.47.639 1.095.654 1.095.67.047-.063-.594-.25-.938-.716z" fill="#B35800"/><path d="M30.136 17.5l-.062 1.432c1-.716 2.11.28 2.11.28l.439-1.323c-1.486-1.214-2.487-.545-2.487-.389z" fill="#9F0054"/><path d="M32.7 17.811c-.687-.56-1.297-.747-1.75-.747-.282 0-.501.062-.657.14-.079.047-.141.078-.188.125a.307.307 0 00-.094.171l-.063 1.432-.015.234.188-.14c.25-.171.5-.234.735-.234.328 0 .64.125.875.25.11.062.204.124.266.17l.078.063.016.015.125.11.047-.156.438-1.324.031-.078-.031-.03zm-.578 1.23c-.219-.155-.688-.467-1.25-.467-.22 0-.454.047-.673.171l.047-1.214c0-.015.078-.078.187-.14.125-.062.297-.109.516-.109.391 0 .923.14 1.549.654l-.376 1.105z" fill="#85003A"/><path d="M25.695 12.642c-2.737 0-4.942 2.165-4.942 4.842 0 2.678 2.22 4.842 4.942 4.842 2.736 0 4.942-2.164 4.942-4.842.015-2.678-2.206-4.842-4.942-4.842z" fill="#AC0061"/><path d="M26.43 12.704c2.346 2.29 1.141 5.652-.407 8.346a4.753 4.753 0 01-1.11 1.23 4.3 4.3 0 00.782.062c2.736 0 4.942-2.164 4.942-4.842.015-2.444-1.814-4.453-4.207-4.796z" fill="#920047"/><path d="M29.276 13.981a5.07 5.07 0 00-3.581-1.448c-1.392 0-2.659.56-3.582 1.448a4.87 4.87 0 00-1.485 3.503c0 1.37.563 2.616 1.485 3.503a5.07 5.07 0 003.582 1.448c1.392 0 2.658-.56 3.581-1.447a4.87 4.87 0 000-7.007zm-.156 6.85a4.872 4.872 0 01-3.425 1.387 4.9 4.9 0 01-3.425-1.386 4.671 4.671 0 01-1.423-3.348c0-1.307.547-2.49 1.423-3.347a4.871 4.871 0 013.425-1.386 4.9 4.9 0 013.425 1.386 4.671 4.671 0 011.423 3.347 4.671 4.671 0 01-1.423 3.348z" fill="#85003A"/><path d="M29.745 17.609c0 2.304-1.704 4.172-3.816 4.172-2.111 0-3.816-1.868-3.816-4.172 0-.639.125-1.246.376-1.79.61-1.402 1.923-2.383 3.456-2.383 2.08 0 3.8 1.869 3.8 4.173z" fill="#ED5BB0"/><path d="M23.13 20.442l2.236-3.207 2.268-3.347a4.453 4.453 0 00-.563-.25l-4.27 6.369c.11.17.235.342.376.498l2.205-3.254-2.252 3.191zm5.927-5.2L24.6 21.517c.25.093.5.171.782.218l4.082-5.668a5.795 5.795 0 00-.407-.825z" fill="#FFB6FF"/><path d="M35.344 16.16c-1.986 0-3.597 1.73-3.597 3.862 0 2.133 1.61 3.861 3.597 3.861 1.986 0 3.597-1.728 3.597-3.86 0-2.134-1.611-3.862-3.597-3.862z" fill="#AC0061"/><path d="M38.94 20.022c0-1.9-1.266-3.472-2.955-3.799 1.439 2.336 1.11 5.014.11 7.567 1.626-.358 2.846-1.915 2.846-3.768z" fill="#920047"/><path d="M37.971 17.22c-.672-.716-1.595-1.168-2.627-1.168-1.032 0-1.955.451-2.627 1.168-.673.716-1.08 1.712-1.08 2.802s.407 2.086 1.08 2.803c.672.716 1.595 1.167 2.627 1.167 1.032 0 1.955-.451 2.627-1.167.673-.717 1.08-1.713 1.08-2.803 0-1.09-.407-2.086-1.08-2.802zm-.156 5.449a3.31 3.31 0 01-2.455 1.09c-.954 0-1.83-.42-2.456-1.09a3.932 3.932 0 01-1.016-2.662 3.93 3.93 0 011.016-2.663 3.31 3.31 0 012.456-1.09c.953 0 1.83.42 2.455 1.09a3.932 3.932 0 011.016 2.663c0 1.058-.39 1.992-1.016 2.662z" fill="#85003A"/><path d="M38.284 20.116c0 1.837-1.235 3.316-2.768 3.316-1.533 0-2.768-1.48-2.768-3.316 0-1.838 1.235-3.317 2.768-3.317 1.517-.015 2.768 1.48 2.768 3.317z" fill="#ED5BB0"/><path d="M37.956 18.543l-4.145 4.188c.094.094.204.171.313.25l4.113-3.395a3.662 3.662 0 00-.281-1.043zm-.72-1.028l-4.113 4.298c.047.109.11.202.172.295l4.223-4.281a1.753 1.753 0 00-.282-.312z" fill="#FFB6FF"/><path d="M15.248 12.44s-5.411-.778-5.161.078c.25.872 1.282 4.733 1.454 4.748.188.016 4.348-3.176 4.348-3.176s.297-1.588-.641-1.65z" fill="#FFDE00"/><path d="M15.357 12.362s-4.629-.576-4.41.062c.22.639 1.095 3.519 1.251 3.535.157.015 3.723-2.367 3.723-2.367s.234-1.183-.563-1.23z" fill="#FB0"/><path d="M15.92 12.814c-.11-.25-.312-.452-.656-.483-.282 0-2.409-.327-3.785-.327-.391 0-.75.016-1.017.078a1.03 1.03 0 00-.328.124c-.094.063-.156.14-.156.265l.015.094c.125.435.438 1.619.75 2.693.157.545.314 1.059.439 1.432.062.187.125.343.172.467.031.063.047.11.062.14l.032.047c.015.016.03.047.093.047h.016l.078-.016c.079-.03.172-.093.329-.202 1.032-.7 4.019-2.974 4.019-2.974l.031-.03v-.048s.047-.233.047-.529c0-.25-.031-.545-.14-.778zm-.11 1.12c0 .047-.015.078-.015.094-.078.062-.297.233-.61.467-.594.452-1.47 1.121-2.236 1.666-.375.28-.72.53-.985.716-.125.094-.235.156-.313.218l-.063.031c-.062-.109-.156-.389-.265-.747-.376-1.183-.939-3.285-1.127-3.892v-.031c0-.016 0-.032.063-.078.078-.047.235-.094.454-.125a5.61 5.61 0 01.766-.047c.75 0 1.705.078 2.455.156s1.314.156 1.314.156c.25.015.375.14.47.342.093.203.124.467.124.685-.015.187-.015.296-.031.39z" fill="#B35800"/><path d="M16.124 11.677s-3.77-2.195-3.77-1.308c0 .903-.077 4.998.063 4.967.25-.078 3.832-1.9 3.832-1.9s.532-1.448-.125-1.759z" fill="#FFDE00"/><path d="M15.936 12.082s-2.8-1.464-2.8-.872c0 .607-.046 3.332.048 3.316.187-.046 2.846-1.26 2.846-1.26s.39-.966-.094-1.184z" fill="#FB0"/><path d="M16.483 11.91a.665.665 0 00-.312-.342s-.657-.39-1.408-.763a12.543 12.543 0 00-1.157-.514c-.376-.14-.704-.249-.954-.249-.11 0-.203.016-.282.078a.325.325 0 00-.125.25c0 .466-.015 1.774-.015 2.926 0 .545 0 1.043.015 1.417 0 .187.016.343.032.452 0 .062.015.093.015.14l.016.062.031.031.078.031h.032c.046-.015.125-.046.25-.109.86-.405 3.597-1.79 3.597-1.79l.031-.016.016-.046s.219-.561.219-1.09c0-.156-.016-.312-.079-.467zm-.234 1.168c-.031.094-.047.187-.063.234 0 .015-.015.03-.015.046-.188.094-.97.483-1.783.903-.47.234-.939.468-1.298.654a5.489 5.489 0 01-.47.218c-.046.016-.078.032-.124.047 0-.031 0-.078-.016-.124-.031-.343-.031-1.028-.031-1.76 0-1.152.015-2.475.015-2.927 0-.046.016-.062.031-.078.016-.015.063-.03.141-.03.188 0 .516.093.876.233.547.218 1.189.53 1.689.794s.86.482.86.482a.433.433 0 01.204.234.97.97 0 01.062.39 2.4 2.4 0 01-.078.684z" fill="#B35800"/><path d="M17.516 12.518c-.814.078-.58 1.852-.58 1.852s3.66 3.566 3.817 3.55c.156-.015 1.063-4.344 1.282-5.309.22-.965-4.52-.093-4.52-.093z" fill="#FFDE00"/><path d="M17.922 12.518c-.625.046-.438 1.276-.438 1.276s2.753 2.476 2.878 2.46c.125-.015.797-3.005.97-3.674.171-.67-3.41-.062-3.41-.062z" fill="#FB0"/><path d="M15.06 11.973c-.11.062.782.124.954.591-.344.53-1.079.592-1.016.654-.032-.015.688.094 1.173-.622-.344-.81-1.189-.576-1.11-.623zm6.96.311a1.054 1.054 0 00-.485-.187 4.688 4.688 0 00-.704-.046c-1.36 0-3.331.373-3.331.373a.603.603 0 00-.375.172c-.282.295-.329.81-.329 1.214 0 .327.031.576.031.576v.031l.032.031s.907.888 1.845 1.775c.47.452.938.888 1.298 1.215.188.17.344.311.454.405.062.046.11.093.156.124l.063.031c.015.016.03.016.078.031h.015c.063-.015.079-.046.094-.062.032-.031.032-.062.063-.124.14-.359.39-1.433.641-2.538.25-1.106.485-2.242.594-2.678l.016-.094a.428.428 0 00-.156-.249zm-.094.296c-.11.483-.391 1.806-.673 3.005-.14.607-.266 1.168-.375 1.588-.063.202-.11.39-.14.498-.017.031-.017.047-.032.078-.047-.031-.094-.078-.172-.14-.438-.374-1.33-1.215-2.096-1.946-.39-.374-.75-.716-1-.966-.204-.202-.345-.326-.407-.389 0-.03 0-.062-.016-.124C17 14.09 17 13.95 17 13.794c0-.249.032-.56.11-.794.047-.109.094-.202.156-.28a.334.334 0 01.235-.109s.485-.093 1.142-.187c.656-.093 1.485-.186 2.142-.186.344 0 .641.03.845.077.093.032.172.063.218.094.047.03.047.062.047.093l.032.078z" fill="#B35800"/><path d="M20.05 10.213c0-1.012-3.3 1.448-3.3 1.448-.58.343-.11 1.978-.11 1.978s3.143 2.024 3.362 2.117c.11.047.047-4.546.047-5.543z" fill="#FFDE00"/><path d="M19.189 11.101c0-.67-2.283.965-2.283.965-.407.234-.079 1.308-.079 1.308s2.159 1.355 2.315 1.401c.078.047.047-3.005.047-3.674z" fill="#FB0"/><path d="M17.97 11.926c.108.062-.783.125-.955.592.344.53 1.08.591 1.032.654.031-.016-.704.093-1.188-.623.328-.81 1.188-.576 1.11-.623z" fill="#B35800"/><path d="M20.159 10.213c0-.108-.032-.202-.11-.264a.41.41 0 00-.266-.078c-.234 0-.516.109-.844.28-1.032.514-2.33 1.48-2.268 1.448-.14.078-.219.218-.266.374a1.782 1.782 0 00-.062.514c0 .576.187 1.198.187 1.214l.016.047.031.015s.782.514 1.595 1.028c.407.265.814.514 1.142.716.156.11.297.187.407.25.11.062.172.108.219.124h.03c.048 0 .08-.031.095-.047l.031-.062c.016-.063.016-.156.031-.28a56.84 56.84 0 00.032-1.962c.015-1.324 0-2.803 0-3.316zm-.22 4.858c0 .203-.015.374-.015.483v.03c-.016-.015-.047-.03-.078-.046A51.853 51.853 0 0118 14.37c-.594-.389-1.126-.716-1.25-.81 0-.015-.016-.03-.016-.061-.047-.203-.157-.639-.157-1.043 0-.172.016-.327.063-.436.047-.125.094-.203.188-.265 0 0 .14-.11.36-.265.343-.233.86-.591 1.375-.887.25-.14.5-.28.72-.374.219-.093.406-.156.531-.14.063 0 .094.015.11.031s.031.031.031.11c0 .513.016 1.992.016 3.284-.016.592-.016 1.152-.031 1.557z" fill="#B35800"/><path d="M16.452 11.07c-.297 0-.532.84-.532 1.884 0 1.043.235 1.884.532 1.884.297 0 .532-.841.532-1.884-.016-1.028-.25-1.884-.532-1.884z" fill="#FFDE00"/><path d="M16.937 11.6a1.41 1.41 0 00-.188-.437c-.078-.109-.172-.202-.313-.202-.14 0-.234.093-.312.202-.11.171-.188.42-.25.732a5.606 5.606 0 00-.094 1.074c0 .53.062 1.012.156 1.37.047.172.11.327.188.436.078.11.172.203.313.203.14 0 .234-.094.312-.203.11-.17.188-.42.25-.731a5.58 5.58 0 00.094-1.075c.016-.529-.047-1.012-.156-1.37zm-.235 2.662c-.047.155-.094.295-.156.373-.047.078-.094.094-.094.094s-.047-.016-.094-.094c-.078-.124-.156-.342-.219-.638a5.111 5.111 0 01-.093-1.028c0-.513.062-.98.156-1.307.047-.156.094-.296.156-.374.047-.078.094-.094.094-.094s.047.016.094.094c.078.124.156.342.219.638s.094.654.094 1.028c-.016.53-.063.98-.157 1.308z" fill="#B35800"/><path d="M23.959 14.931c1.204-.031 2.158-.109 2.158-.202 0-.078-.954-.14-2.158-.125-.016-1.12-.078-1.993-.157-1.993-.078 0-.14.872-.156 2.009-1.204.03-2.158.109-2.158.202 0 .078.954.14 2.158.125 0 1.26.078 2.288.156 2.288.079 0 .157-1.027.157-2.304z" fill="#fff"/><path d="M39.129 51.348C38.58 49.93 51.092 69.875 51.124 70.03c.938 5.029-10.525-14.916-11.995-18.683z" fill="#FBFBFB"/><path d="M37.596 23.136c-.72-.763-1.955-1.308-2.784-1.495-1.845-.404-3.44.327-5.192.016 1.674 1.199 4.739 2.647 6.318 4.204 1.032-.358 3.003-1.137 1.658-2.725z" fill="#E0E1E0"/><path d="M37.596 23.136c-.72-.763-1.955-1.308-2.784-1.495-.187-.046-.36-.062-.547-.093-.063.996-.923 1.915-.25 2.585 1.485 1.183 2.564.186 3.784-.732-.047-.078-.125-.171-.203-.265z" fill="#1A1B1A"/><path d="M37.596 23.136c-.72-.763-1.955-1.308-2.784-1.495-.062-.015-.11-.015-.172-.03.923.684 1.955 1.914 1.564 2.88.547-.234 1.063-.67 1.61-1.075a3.432 3.432 0 00-.218-.28z" fill="#272827"/><path d="M37.909 23.354a3.578 3.578 0 00-.22-.296c-.75-.794-1.985-1.339-2.846-1.526-.187-.046-.672.016-.672.016-.016.343-.14.67-.266 1.012-.125.327-.234.654-.25.965 0 .25.078.483.282.7.5.406.97.561 1.423.561.922 0 1.689-.685 2.502-1.292l.078-.062-.031-.078zm-2.534 1.214c-.39 0-.797-.14-1.282-.513a.753.753 0 01-.22-.53c0-.233.095-.513.236-.903.109-.296.218-.607.265-.95.141.016.282.032.423.063.813.171 2.033.716 2.72 1.448.063.062.095.124.141.187-.797.622-1.517 1.198-2.283 1.198z" fill="#272827"/><path d="M33.232 21.657c1.642 0 3.237.218 4.441 1.588.344.42.438.794.61 1.199-.03-.171.141-.7-.297-1.168-.125-.14-.688-.794-1.345-1.168-1.094-.622-2.267-.669-3.409-.669-.798 0-1.83-.016-2.58.093-.58.078-1.001.39-1.001.39s2.783-.265 3.581-.265z" fill="#272827"/><path d="M25.93 42.053c0 .093 0 .187.015.296 0 0-2.596 3.238-4.66 3.752-2.08.514-7.93 1.183-8.805.67 0 0-.595-3.535-.813-3.535-.22 0-.595-.67-1.408.732-.813 1.401-1.705 3.02-1.705 3.02l2.3 1.775-1.549 2.289 1.627 1.323s-1.486 2.88-1.705 4.126c-.219 1.246 1.032 2.585 1.032 2.585l-.813 2.88s1.407 1.183 2.08 2.725c.672 1.541 2.08-1.106 3.706-3.099 1.627-1.992 7.992-5.309 9.696-8.251 1.236-2.133 2.847-5.574 3.644-7.318-.297-1.697-1.11-2.958-2.643-3.97z" fill="#B90D6E"/><path d="M25.93 42.053c0 .093 0 .187.015.296 0 0-2.596 3.238-4.66 3.752-.517.124-1.252.264-2.096.39-2.674 1.525-5.661 2.552-8.695 2.801l-1.189 1.76 1.33 1.074c-.047-.046-.094-.078-.141-.124.047.046.094.078.14.124l.25.203c1.752 1.245 1.971 2.724-1.594 3.892a1.801 1.801 0 00-.063.28c-.188 1.074.704 2.195.97 2.491 2.596.234 4.003-1.027 6.521-3.456-.829 3.705-3.315 6.212-4.973 9.466.72.716 2.017-1.62 3.487-3.425.626-.779 10.072-11.101 12.777-17.329-.469-.84-1.126-1.557-2.08-2.195z" fill="#AC0061"/><path d="M28.666 45.992c-.297-1.713-1.126-3.005-2.674-4.033l-.172-.109v.265a1 1 0 00.015.203 18.126 18.126 0 01-2.236 2.304c-.75.638-1.595 1.214-2.346 1.385-1.532.374-5.16.841-7.272.841-.36 0-.672-.015-.922-.047a2.06 2.06 0 01-.485-.108c-.032-.203-.157-.95-.313-1.713-.094-.436-.188-.888-.266-1.23-.047-.171-.078-.312-.125-.405-.016-.047-.047-.093-.063-.124l-.046-.047c-.016-.016-.047-.031-.094-.031l-.047-.016c-.079-.031-.22-.14-.422-.14-.141 0-.298.062-.47.202s-.36.374-.563.748c-.813 1.4-1.704 3.02-1.704 3.02l-.047.078.078.062 2.22 1.713-1.5 2.195-.063.078.078.062 1.564 1.277c-.11.202-.407.81-.735 1.526-.407.887-.829 1.915-.938 2.553-.016.11-.032.218-.032.327 0 .607.282 1.199.548 1.635.203.327.422.576.5.67l-.798 2.817-.015.063.047.046.062.047c.266.234 1.408 1.308 1.986 2.631.079.172.157.296.266.39.11.093.22.14.36.14.235 0 .47-.14.704-.358.72-.654 1.61-2.071 2.564-3.239.798-.965 2.8-2.304 4.802-3.752 2.017-1.448 4.035-3.02 4.91-4.515 1.236-2.133 2.847-5.574 3.66-7.318l.015-.03-.03-.063zm-3.847 7.286c-.829 1.448-2.846 3.005-4.848 4.453-2.002 1.448-4.004 2.771-4.848 3.783-.641.794-1.251 1.682-1.799 2.367-.265.343-.516.638-.75.84-.22.203-.422.312-.563.312a.26.26 0 01-.204-.078.888.888 0 01-.203-.311c-.61-1.401-1.783-2.491-2.049-2.725l.798-2.802.016-.063-.047-.046-.047-.047c-.204-.218-1.001-1.199-.985-2.148 0-.094.015-.187.03-.28.11-.608.533-1.636.923-2.507.204-.436.391-.841.532-1.121.141-.296.235-.467.235-.467l.047-.078-.063-.063-1.548-1.26 1.501-2.196.063-.093-.078-.063-2.221-1.712c.078-.14.266-.483.5-.903.329-.576.751-1.34 1.158-2.04.203-.358.375-.56.516-.685.14-.124.25-.156.328-.156.078 0 .14.032.22.063a.957.957 0 00.187.078.741.741 0 01.078.202c.125.39.297 1.214.438 1.93.14.717.234 1.324.234 1.324l.016.047.047.03c.14.079.344.125.61.156.266.032.594.047.954.047 2.142 0 5.77-.467 7.334-.856 1.08-.265 2.253-1.215 3.16-2.102.907-.887 1.563-1.697 1.563-1.697l.032-.031v-.094c1.36.966 2.111 2.149 2.393 3.721-.845 1.744-2.44 5.154-3.66 7.271z" fill="#6B0020"/><path d="M29.135 40.091c-.36.39-.61.654-.672.7-.22.219-1.548-.14-1.548-.14s-.954.25-.97 1.402c1.517 1.012 2.33 2.273 2.627 3.955.313-.67.5-1.09.5-1.09s.095-1.464.83-2.616c-.391-.7-.767-1.37-.767-2.21z" fill="#B90D6E"/><path d="M29.167 42.769a6.284 6.284 0 00-.485-1.526c0 .467.031.81.031 1.168-.36-.716-.75-1.121-1.11-1.604-.36-.062-.704-.155-.704-.155s-.11.03-.25.109c1.157 1.51 2.518 3.051 1.876 5.169 0 .03.016.046.016.078.735-1.246.72-2.694.626-3.239z" fill="#AC0061"/><path d="M28.682 41.243c-.125-.28-.22-.451-.22-.436-.109.11-.5.078-.86.016.36.483.955 1.541 1.314 2.257 0-.373 0-1.339-.234-1.837z" fill="#9F0054"/><path d="M29.98 42.255c-.376-.716-.72-1.354-.735-2.164v-.28l-.188.202c-.344.374-.61.654-.672.7 0 .016-.094.048-.22.032-.218 0-.531-.047-.781-.109-.25-.047-.438-.109-.454-.109l-.031-.016-.031.016c-.016 0-.266.078-.516.296-.266.218-.517.607-.532 1.214v.063l.047.03c1.501.997 2.283 2.227 2.58 3.893l.063.358.156-.327c.313-.67.5-1.09.5-1.09v-.031s0-.093.032-.233c.062-.452.25-1.495.782-2.32l.031-.047-.031-.078zm-1.032 2.647c-.032.062-.157.343-.344.763-.345-1.526-1.142-2.71-2.55-3.659.032-.514.235-.81.454-.996.11-.094.219-.156.297-.203a.255.255 0 00.094-.046c.14.046.813.218 1.251.218.156 0 .282-.016.375-.11.047-.046.235-.248.5-.529.063.732.392 1.34.72 1.946-.657 1.121-.782 2.43-.797 2.616z" fill="#6B0020"/><path d="M44.383 32.026c-3.018 2.522-3.972 3.005-5.176 2.88-.266-.03-5.63-.669-6.74 1.106-.798 1.277-2.41 3.083-3.332 4.08.016.84.376 1.51.75 2.226l.063-.094c1.283 2.133 4.317 4.282 6.913 3.27-.063-.078-.094-.11-.094-.11s4.004-.59 3.925-2.802c-.03-.872 2.002-3.332 2.706-5.231 1.063-2.912.985-5.325.985-5.325z" fill="#AC0061"/><path d="M39.207 34.907c-.266-.031-5.63-.67-6.74 1.105-.798 1.277-2.41 3.083-3.332 4.08 0 .264.329 1.37.391 1.603.438-1.137 1.095-2.149 1.893-2.88 2.299-2.087 5.567-3.41 7.272-3.457-1.658 2.631-4.02 5.839-7.022 6.477 2.174.327 4.441 1.09 6.365 0 3.346-1.666 4.723-5.698 5.99-9.497-2.737 2.257-3.676 2.693-4.817 2.569z" fill="#B90D6E"/><path d="M44.493 32.026v-.233l-.172.14c-1.36 1.136-2.3 1.868-3.034 2.288-.735.436-1.236.577-1.736.577-.11 0-.22 0-.329-.016-.11-.016-1.157-.14-2.392-.14-.845 0-1.783.062-2.596.233-.814.187-1.517.499-1.861 1.044-.798 1.26-2.409 3.082-3.316 4.063l-.031.031v.047c.015.872.39 1.557.766 2.273l.094.171.063-.109c1.11 1.729 3.3 3.426 5.504 3.426.485 0 .97-.078 1.455-.265l.14-.062-.062-.078a9.142 9.142 0 001.799-.53c.5-.218 1-.498 1.376-.856.375-.373.64-.84.64-1.417v-.078c0-.186.11-.498.314-.871.594-1.137 1.845-2.865 2.392-4.297.5-1.355 1.001-3.504 1.001-5.247-.015-.063-.015-.094-.015-.094zm-1.22 5.278c-.344.934-1.017 2.009-1.61 2.958a22.64 22.64 0 00-.767 1.308c-.204.39-.329.716-.329.981v.078c0 .498-.219.919-.578 1.261-.532.514-1.345.872-2.033 1.074a8.483 8.483 0 01-.876.234c-.22.047-.36.062-.36.062l-.203.031.125.14c-.407.14-.813.203-1.22.203-2.142 0-4.379-1.744-5.41-3.472l-.095-.156-.047.078c-.328-.638-.625-1.23-.64-1.962.922-.996 2.501-2.787 3.315-4.063.297-.467.938-.779 1.72-.95.782-.187 1.704-.234 2.533-.234 1.236 0 2.252.125 2.377.14.126.016.235.016.345.016.563 0 1.11-.156 1.86-.607.72-.42 1.611-1.105 2.878-2.164 0 .67-.11 2.693-.985 5.044z" fill="#6B0020"/><path d="M40.911 53.403c-.14-3.083-.093-8.703-10.884-11.568-.782 1.152-1.001 2.429-1.017 3.674.172 1.573.845 5.17 2.205 5.387 1.783.296 7.93 3.83 9.102 6.041 1.173 2.211.735-.14.594-3.534z" fill="#AC0061"/><path d="M40.911 53.403c-.125-2.99-.64-8.454-10.447-11.413 1.94 2.85 1.33 3.597 7.054 6.851 2.283 1.105 2.94 5.527 2.94 7.302-3.613-5.698-8.383-6.695-9.493-8.516-.72-.717-1.392-2.959-1.673-3.877 0 .124-.298 1.603-.298 1.744.172 1.572.845 5.169 2.206 5.387 1.782.295 7.929 3.83 9.101 6.04 1.189 2.227.751-.124.61-3.518z" fill="#B90D6E"/><path d="M41.02 53.403c-.062-1.541-.093-3.737-1.47-5.916-1.375-2.18-4.097-4.313-9.508-5.761l-.078-.016-.047.063c-.797 1.183-1.016 2.475-1.032 3.736.094.794.297 2.087.657 3.223.188.56.39 1.09.657 1.495.265.405.578.7.97.763.844.14 2.846 1.09 4.738 2.288 1.892 1.184 3.722 2.632 4.285 3.706.156.296.297.514.407.67.062.077.109.124.156.17.047.047.11.078.172.078.078 0 .14-.046.172-.093a.663.663 0 00.078-.28c.016-.11.016-.25.016-.405.031-.763-.11-2.133-.172-3.721zm-.062 4.204c-.015.046-.015.062-.031.077a.512.512 0 01-.156-.186 7.036 7.036 0 01-.36-.608c-.626-1.152-2.455-2.584-4.363-3.783-1.924-1.199-3.895-2.164-4.817-2.32-.297-.047-.563-.28-.813-.67-.751-1.136-1.158-3.44-1.283-4.623.016-1.2.235-2.43.954-3.55 5.317 1.432 7.96 3.534 9.29 5.636 1.345 2.117 1.36 4.266 1.423 5.807.062 1.604.203 2.974.203 3.737 0 .218-.016.39-.047.483z" fill="#6B0020"/><path d="M35.219 27.387s-.25-.265-1.032-1.044l-.047-.046-.047.015s-.188.047-.5.11c-.955.202-3.066.59-4.645.59-.454 0-.845-.03-1.173-.108-.329-.078-.548-.187-.673-.343a6.34 6.34 0 01-.844-1.416c-.063-.172-.094-.296-.125-.39-.016-.046-.016-.078-.016-.093v-.031l-.016-.172-.156.094s-1.048.607-1.517 1.012a.12.12 0 00-.016.156.12.12 0 00.157.015c.219-.187.578-.436.907-.638.188-.11.328-.203.438-.265.062.296.281.965 1 1.884.173.218.454.343.798.42.344.078.767.11 1.22.11 1.986 0 4.723-.608 5.145-.701l.767.763c.156.155.218.233.218.233.047.047.11.047.157 0s.047-.109 0-.155zM16.155 22.14a4.094 4.094 0 01-.172-1.137c0-.81.297-1.339.625-1.681.157-.172.329-.312.47-.405.14-.094.265-.265.328-.343.047-.047-.313.063-.453.156a2.65 2.65 0 00-1.189 2.273c0 .358.047.747.188 1.199.563 1.962 1.845 6.866 1.845 10.338 0 1.09-.125 2.04-.438 2.709-.657 1.417-2.158 3.254-3.487 4.733a47.842 47.842 0 01-1.752 1.853c-.453.467-.75.747-.75.747-.047.047-.047.11 0 .156.046.047.109.047.156 0 0 0 1.173-1.121 2.502-2.616 1.33-1.494 2.846-3.332 3.519-4.795.328-.716.453-1.697.453-2.803.016-3.518-1.282-8.423-1.845-10.384z" fill="#272827"/><path d="M37.565 71.027L32.419 65.5c.11 3.472 1.377 13.343 1.377 13.343l3.769-7.816z" fill="#C6C7C6"/><path d="M14.638 52.967c-1.799 1.355-2.205 2.476-1.61 2.398 3.471-.42 7.052-4.671 7.052-4.671s-5.395 3.659-5.442 2.273z" fill="#9F0054"/><path d="M14.169 52.967c-.016.062-.016.125-.016.171a.348.348 0 00.063-.078l-.047-.093z" fill="#930000"/><path d="M22.192 59.444c-.063.015 0 .778.156 1.93.454 3.426 1.36 11.164 1.36 18.388 0 5.402-.515 10.525-2.08 13.28-.124.078-.625.374-1.141.81-.579.514-1.188 1.215-1.188 2.04 0 .311.093.622.297.934.03.047.11.062.156.031.047-.031.063-.094.031-.156a1.398 1.398 0 01-.25-.81c0-.7.547-1.385 1.11-1.868a6.47 6.47 0 01.782-.591 4.16 4.16 0 00.25-.156.386.386 0 00.094-.062l.047-.047c1.627-2.834 2.127-7.972 2.127-13.405-.015-9.653-1.689-20.334-1.751-20.318z" fill="#272827"/><path d="M23.099 70.015c.047.11-.532-1.105-1.126-1.681-.892-.856-2.112-1.806-3.222-2.585-1.11-.778-2.096-1.37-2.534-1.556-.281-.11-.437-.312-.547-.577-.11-.264-.14-.56-.14-.84 0-.218.015-.779 0-.95 0-.062-.22.467-.22.95 0 .295.032.622.157.918.125.296.328.56.672.7.266.11.798.406 1.44.826.969.623 2.22 1.51 3.268 2.398 1.047.887 2.22 2.35 2.252 2.397zm18.626-.918c-1.486 0-3.019.436-4.442 1.619-1.407 1.152-2.705 3.02-3.769 5.854-.078-6.71-.72-11.724-1.376-15.164a51.224 51.224 0 00-.954-4.189c-.125-.482-.25-.856-.328-1.136-.079-.265-.157-.452-.25-.592-.032-.046-.048.374.046.654.563 1.9 2.659 8.844 2.659 21.72 0 5.153-.329 11.24-1.236 18.356 0 .062.032.109.094.124.063.016.11-.031.125-.093.235-1.837.423-3.597.595-5.294h.078c.188 0 .594.063 1.048.265.438.202.922.53 1.266 1.027l.094.047h.61c.938 0 2.815.156 4.817.296 2.127.156 5.567 1.464 5.52 1.417a7.915 7.915 0 00-1.204-.623c-1.267-.514-2.815-.825-4.3-1.028-2.002-.264-3.895-.295-4.849-.295h-.563a3.299 3.299 0 00-1.313-1.06c-.47-.201-.892-.28-1.126-.28-.032 0-.047 0-.063.016.438-4.717.626-8.999.626-12.86 0-.374.015-1.074.015-1.074.063.015 1.908-4.39 3.895-5.917 1.423-1.09 2.861-1.557 4.3-1.557 2.19 0 4.332.997 5.912 1.993.782.498 1.438.997 1.892 1.37.235.187.407.343.532.452a.863.863 0 00.344.171c.203.062-4.176-4.22-8.695-4.22z" fill="#272827"/><path d="M38.378 35.451s-2.362 3.488-3.081 4.002c-.72.53-3.284 2.397-5.13 2.21-.531-.062-.438-.077-.438-.077l8.649-6.135zM19.001 49.464c-2.971 1.744-8.054 1.588-8.054 1.588s1.095.794 4.207.514c3.206-.28 7.694-3.535 7.694-3.535l-.547 3.55 3.972-7.053s-4.863 3.379-7.272 4.936zm11.026-6.088c.015.11.922 4.157 2.736 4.905 1.815.731 3.895 1.728 4.88 3.13 1 1.4 1.892 2.615 1.892 2.615s-.782-2.538-1.439-3.317c-.672-.778-4.253-3.098-5.254-3.908-1.001-.81-2.33-4.172-2.33-4.172s-.86-1.277-.485.747z" fill="#9F0054"/><path d="M24.694 61s3.628 16.286-1.486 32.945c0 0 3.707-6.196 4.535-13.638.986-8.844.172-13.888-3.05-19.306z" fill="#FBFBFB"/><path d="M8.289 35.498c-.063-.015-1.11 4.718-2.847 5.62-.563.296-.985.577-1.329.686-.172.046-.328.093-.438.124-.062.016-.094.031-.14.047-.032.016-.266 0-.298.078-.015.062.188.14.25.156.047.015.079 0 .11-.032.016-.015.11-.03.235-.062.218-.062 1.798-.576 2.564-1.37 1.36-1.386 1.97-5.231 1.893-5.247zM28.635 2.725c-1.08-1.121-2.158-1.48-2.158-1.48-.063-.015-.125.016-.141.078-.016.063.016.125.078.14l.047.016c.219.078 1.251.514 2.22 1.62.97 1.12 1.893 2.91 1.893 5.776 0 .95-.453 3.83-.407 3.83.063.015.626-2.865.626-3.83 0-3.114-1.079-5.03-2.158-6.15zM34.828.81c-.016-.063-.078-.094-.14-.063-.064.016-.095.078-.064.14 0 0 .047.14.126.39.219.747.656 2.522.656 4.5 0 1.354-.203 2.802-.813 4.11-.61 1.307-1.626 2.49-3.253 3.316-.062.03 1.033-.343 1.627-.81.86-.67 1.407-1.526 1.814-2.413.625-1.355.829-2.834.829-4.204.015-2.693-.782-4.966-.782-4.966zm4.566 3.082c-.015-.062-.406-.249-.375-.187l.188.296c.047.14.25.763.25 1.697 0 1.838-.766 5.03-5.02 7.956-.047.031 1.251-.794 1.72-1.199 2.925-2.569 3.535-5.106 3.535-6.757-.016-1.105-.298-1.79-.298-1.806z" fill="#272827"/><path d="M10.478 15.071s-5.552 1.884-5.77 4.982C4.487 23.152 7.71 27.9 6.49 30.89c-1.22 2.989-5.66 4.982-5.223 6.74.438 1.775 1.673 2.772 1.673 2.32 0-.436-.438-2.538 1.892-4.64s4.332-4.748 3.332-8.516c-1.017-3.768-3.019-7.411 2.314-11.724z" fill="#FBFBFB"/><path d="M26.383 44.513c-.172.015-.235.015-.407.078-1.235.67-2.502 1.556-3.738 2.6-4.77 4.343-10.618 3.72-10.587 4.001.172-.093 5.958.607 10.79-3.768 1.19-.996 2.394-1.852 3.55-2.506l-.5.731c-.344.514-.672.997-.953 1.433-1.158 1.759-1.752 2.927-1.72 2.942.03.016.687-1.09 1.907-2.818.297-.436.626-.903.985-1.417l.548-.778c.015 0 .187-.39.125-.498zm-11.808 8.734c-.03-.031-.422.327-1.016.934-.156.172-.313.296-.485.53-.078.763.579.124.704.17a16.542 16.542 0 001.642-.855c2.268-1.293 4.02-2.523 3.941-2.616-.031-.031-1.83 1.059-4.097 2.35-3.723 2.352-.172-.684-.688-.513zm20.112-14.184c2.018-2.04 3.707-3.69 3.785-3.612.031.047-1.517 1.775-3.566 3.846-2.283 1.962-4.848 2.117-4.801 2.055-.063-.124 2.408-.42 4.582-2.288zm-.281 9.109c3.597 1.697 4.957 4.857 4.723 4.873.03 0-1.33-2.912-4.88-4.593-3.769-1.76-3.831-5.714-3.784-5.496.125-.218.312 3.55 3.94 5.216zm-6.084-6.851c-.188-.327-.39-.56-.422-.53-.031.032.094.297.281.608.172.327.344.576.391.545.047-.016-.062-.312-.25-.623z" fill="#6B0020"/><path d="M27.274 46.708s-2.299 4.53-3.581 6.368c-1 1.417-5.802 5.854-5.802 5.854s6.068-4.266 7.24-6.555c1.19-2.288 2.221-5.885 2.221-5.885l-.078.218z" fill="#CD368B"/><path d="M26.101 49.697c.047-.093-1.063 2.725-1.423 3.223-.657.919-.547.84-4.019 3.706 0 0 2.127-1.915 2.8-2.71.656-.793 2.11-3.175 2.642-4.219z" fill="#E14D9D"/><path d="M36.454 44.933c-1.657-.934-3.628-2.008-5.176-2.21-.11-.016 2.596 3.58 3.628 3.643 1.032.077 2.408 1.214 3.3 1.837.891.622 1.923 2.724 1.892 2.615-.047-.109-.14-3.923-3.644-5.885z" fill="#CD368B"/><path d="M39.02 48.467c0-.17-1.174-2.32-1.784-2.818-.61-.498-4.27-2.102-4.27-2.102s1.393 2.15 3.05 2.71c1.736.576 3.77 3.176 3.003 2.21z" fill="#E14D9D"/><path d="M10.588 59.74s-.595 1.883-.391 1.992c.672.327 1.548 1.495 1.548 1.495l4.16-6.352c-2.268 2.756-5.317 2.865-5.317 2.865z" fill="#CD368B"/><path d="M10.885 60.113s-.626 1.028-.297 1.37a57.968 57.968 0 011.141 1.215s2.487-3.425 3.065-4.453c.016-.016-2.205 2.351-3.91 1.868z" fill="#E14D9D"/><path d="M43.351 33.863c.61-.934-3.503 2.273-4.222 2.149-.72-.11-3.55 4.92-5.505 5.356 0 0 3.112.607 4.832-.716 1.72-1.308 3.597-4.78 4.895-6.789z" fill="#CD368B"/><path d="M41.819 34.86c.406-.7-2.362 1.712-2.862 1.635-.5-.078-2.378 3.674-3.707 4.017 0 0 2.127.42 3.3-.577 1.157-.996 2.408-3.58 3.269-5.075z" fill="#E14D9D"/><path d="M27.915 45.089c0 .342-.344.607-.781.607-.423 0-.782-.265-.782-.607 0-.343.344-.607.782-.607.422 0 .781.28.781.607z" fill="#FFDE00"/><path d="M27.102 50.538s-.704-1.276-2.064-.887-1.08 2.709 1.86 4.515c0 0 2.675-1.246 2.91-2.787.234-1.557-1.502-2.117-2.706-.84z" fill="#CD368B"/><path d="M27.728 50.242c1.485.639 1.454 1.822-.579 3.69.673-.373 2.174-1.308 2.33-2.413.157-1.121-.797-1.681-1.751-1.277z" fill="#FFB3E8"/><path d="M29.542 50.087a1.406 1.406 0 00-.97-.359c-.469 0-.985.203-1.438.639a2.15 2.15 0 00-.345-.39c-.281-.248-.688-.513-1.25-.513a1.63 1.63 0 00-.532.078c-.548.155-.876.622-.86 1.214 0 .997.828 2.351 2.705 3.488l.047.03.047-.03s.672-.312 1.392-.825c.703-.514 1.454-1.215 1.58-2.04.015-.093.015-.187.015-.28.015-.42-.14-.779-.391-1.012zm.156 1.26c-.094.717-.797 1.402-1.485 1.9-.345.25-.689.452-.939.592-.125.062-.234.124-.297.156-.031.015-.047.015-.062.03-1.799-1.105-2.55-2.413-2.55-3.269 0-.514.25-.872.704-.996.172-.047.329-.063.47-.063.484 0 .844.218 1.094.452.125.109.219.233.282.311.03.047.062.078.062.11l.016.03.078.14.11-.108c.437-.468.938-.67 1.376-.67.328 0 .61.11.813.296.203.202.328.483.328.856a.583.583 0 010 .234z" fill="#6B0020"/><path d="M13.074 43.05c-.422 0-.782.264-.782.607 0 .342.344.607.782.607.422 0 .782-.265.782-.608 0-.342-.344-.607-.782-.607z" fill="#FFDE00"/><path d="M13.7 43.143a1.002 1.002 0 00-.626-.203c-.234 0-.453.078-.625.203a.671.671 0 00-.266.514c0 .202.11.389.266.513a.998.998 0 00.625.203c.235 0 .454-.078.626-.203a.671.671 0 00.266-.514.67.67 0 00-.266-.513zm-.141.856a.819.819 0 01-.485.156.818.818 0 01-.485-.156.43.43 0 01-.187-.343.43.43 0 01.187-.342.818.818 0 01.485-.156c.188 0 .36.063.485.156a.43.43 0 01.188.343.43.43 0 01-.188.342z" fill="#B35800"/><path d="M16.186 44.217c0 .343-.344.607-.782.607-.422 0-.782-.264-.782-.607 0-.343.345-.607.782-.607.438-.016.782.264.782.607zm2.174.327c0 .343-.344.607-.782.607-.422 0-.782-.265-.782-.607 0-.343.344-.607.782-.607.438 0 .782.264.782.607zm2.502.156c0 .342-.344.607-.782.607-.422 0-.782-.265-.782-.607 0-.343.345-.608.782-.608.423 0 .782.28.782.608zm2.44 0c0 .342-.344.607-.782.607-.422 0-.782-.265-.782-.607 0-.343.344-.608.782-.608.438 0 .782.28.782.608zm4.988 2.055c0 .342-.343.607-.781.607-.422 0-.782-.265-.782-.607 0-.343.344-.607.782-.607.438 0 .782.264.782.607zm-.218 1.759c0 .343-.344.607-.782.607-.422 0-.782-.264-.782-.607 0-.342.344-.607.782-.607.438 0 .782.28.782.607z" fill="#FFDE00"/><path d="M16.03 43.688a1.002 1.002 0 00-.626-.203c-.234 0-.453.078-.625.203a.671.671 0 00-.266.513c0 .203.11.39.266.514a.998.998 0 00.625.203c.235 0 .454-.078.626-.203a.671.671 0 00.266-.514.627.627 0 00-.266-.513zm-.14.871a.819.819 0 01-.486.156.818.818 0 01-.484-.156.43.43 0 01-.188-.342.43.43 0 01.188-.343.818.818 0 01.484-.155.82.82 0 01.485.155.43.43 0 01.188.343c0 .125-.063.233-.188.343zm2.314-.529a1.002 1.002 0 00-.626-.202 1.07 1.07 0 00-.625.202.671.671 0 00-.266.514c0 .202.11.39.266.514.156.124.375.202.625.202.235 0 .454-.078.626-.202a.671.671 0 00.265-.514.672.672 0 00-.265-.514zm-.141.856a.818.818 0 01-.485.156.819.819 0 01-.485-.156.43.43 0 01-.187-.342.43.43 0 01.187-.343.819.819 0 01.485-.155.82.82 0 01.485.155.43.43 0 01.188.343.43.43 0 01-.188.343zm2.627-.7a1.002 1.002 0 00-.625-.203c-.235 0-.454.078-.626.203a.672.672 0 00-.266.514c0 .202.11.389.266.513a1 1 0 00.626.203c.234 0 .453-.078.625-.203a.672.672 0 00.266-.513c.016-.203-.094-.39-.266-.514zm-.125.872a.818.818 0 01-.485.155.819.819 0 01-.484-.155.43.43 0 01-.188-.343.43.43 0 01.188-.342.819.819 0 01.484-.156c.188 0 .36.062.485.156a.43.43 0 01.188.342c0 .125-.078.234-.188.343zm2.581-.872a1.002 1.002 0 00-.626-.203 1.07 1.07 0 00-.625.203.671.671 0 00-.266.514c0 .202.11.389.265.513.157.125.376.203.626.203.235 0 .454-.078.626-.203a.671.671 0 00.265-.513.67.67 0 00-.265-.514zm-.141.872a.818.818 0 01-.485.155.819.819 0 01-.485-.155.43.43 0 01-.188-.343.43.43 0 01.188-.342.819.819 0 01.485-.156c.188 0 .36.062.485.156a.43.43 0 01.188.342c0 .125-.063.234-.188.343zm4.129.762c.234 0 .453-.077.625-.202a.671.671 0 00.266-.514.67.67 0 00-.266-.513 1.002 1.002 0 00-.625-.203c-.235 0-.454.078-.626.203a.671.671 0 00-.266.513c0 .203.11.39.266.514.172.125.391.203.626.203zm-.485-1.074a.819.819 0 01.485-.155c.187 0 .36.062.484.155a.43.43 0 01.188.343.43.43 0 01-.188.342.819.819 0 01-.484.156.819.819 0 01-.485-.156.43.43 0 01-.188-.342.43.43 0 01.188-.343zm1.485 1.495a1.002 1.002 0 00-.625-.202c-.235 0-.454.078-.626.202a.671.671 0 00-.266.514c0 .202.11.39.266.514.157.124.376.202.626.202.234 0 .453-.078.625-.202a.671.671 0 00.266-.514c.016-.203-.094-.39-.266-.514zm-.125.856a.818.818 0 01-.485.156.818.818 0 01-.484-.156.43.43 0 01-.188-.342.43.43 0 01.188-.343.818.818 0 01.485-.155c.187 0 .36.062.484.155a.43.43 0 01.188.343.54.54 0 01-.188.342zm-.093.903a1.003 1.003 0 00-.626-.202c-.235 0-.454.078-.626.202a.671.671 0 00-.266.514c0 .203.11.39.266.514a1.078 1.078 0 001.252 0 .671.671 0 00.265-.514c0-.202-.11-.39-.265-.514zm-.141.872a.818.818 0 01-.485.156.818.818 0 01-.485-.156.43.43 0 01-.188-.342.43.43 0 01.188-.343.818.818 0 01.485-.155.82.82 0 01.485.155.43.43 0 01.187.343c0 .124-.062.233-.187.342z" fill="#B35800"/><path d="M12.84 43.267s.64-.124.735.171c.093.296-.172.608-.172.608s.046-.608-.564-.779zm2.267.561s.641-.125.735.171c.094.296-.172.607-.172.607s.063-.623-.563-.778zm2.143.358s.64-.125.735.171c.094.296-.172.607-.172.607s.062-.607-.563-.778zm2.518.094s.64-.125.735.17c.093.296-.172.608-.172.608s.062-.608-.563-.779zm2.517.062s.642-.125.735.17c.094.297-.171.608-.171.608s.062-.623-.564-.778zm4.583.327s.64-.125.735.17c.093.297-.172.608-.172.608s.062-.623-.563-.779zm.391 1.665s.64-.124.735.172c.093.295-.172.607-.172.607s.062-.623-.563-.779zm-.189 1.76s.642-.125.736.171c.094.296-.172.607-.172.607s.063-.607-.563-.778z" fill="#FFF53D"/><path d="M29.401 50.756c1.204-.031 2.158-.109 2.158-.202 0-.078-.954-.14-2.158-.125-.015-1.12-.078-1.993-.156-1.993s-.141.872-.157 2.009c-1.204.03-2.158.109-2.158.202 0 .078.954.14 2.158.125 0 1.26.079 2.288.157 2.288s.156-1.027.156-2.304z" fill="#fff"/></g><path d="M59.56 29h3.72v-5.64l1.2-1.224L70.168 29h4.896l-7.776-9.36 7.296-7.44h-4.848l-6.456 6.552V12.2h-3.72V29zm14.652-8.4c0 4.992 3.864 8.688 8.664 8.688s8.64-3.744 8.64-8.688c0-4.992-3.84-8.688-8.64-8.688-4.872 0-8.664 3.84-8.664 8.688zm3.864 0c0-3.12 2.256-5.088 4.8-5.088 2.448 0 4.776 1.968 4.776 5.088s-2.136 5.088-4.776 5.088c-2.544 0-4.8-1.968-4.8-5.088zM93.802 29h3.72v-5.64l1.2-1.224L104.41 29h4.896l-7.776-9.36 7.296-7.44h-4.848l-6.456 6.552V12.2h-3.72V29zm16.828 0h13.056v-3.48h-9.336v-3.36h8.52V18.8h-8.52v-3.12h9.12V12.2h-12.84V29zm14.026-13.32h5.376V29h3.72V15.68h5.4V12.2h-14.496v3.48zM140.701 29h3.72v-5.64l1.2-1.224L151.309 29h4.896l-7.776-9.36 7.296-7.44h-4.848l-6.456 6.552V12.2h-3.72V29zm15.172 0h3.84l1.368-3.12h7.032l1.368 3.12h3.888l-7.368-16.8h-2.76L155.873 29zm8.712-11.28l2.16 5.016h-4.368l2.208-5.016zm10.771 9.336c0 1.08.888 2.088 2.256 2.088 1.248 0 2.208-1.008 2.208-2.088 0-.984-.96-2.04-2.208-2.04-1.368 0-2.256 1.056-2.256 2.04zM182.583 29h7.32c3.792 0 6.552-1.464 6.552-4.992 0-2.088-.816-3.264-2.184-3.912.936-.816 1.632-1.944 1.632-3.6 0-2.52-1.416-4.296-5.808-4.296h-7.512V29zm7.128-6.888c2.112 0 2.856.504 2.856 1.68 0 1.224-.816 1.728-3.048 1.728h-3.216v-3.408h3.408zm-.24-6.432c2.04 0 2.568.552 2.568 1.656 0 .864-.768 1.416-2.256 1.416h-3.48V15.68h3.168zm16.578 7.272h4.248v1.776c-.888.648-2.064.96-3.168.96-3.048 0-5.256-1.8-5.256-5.088 0-3.168 1.92-5.088 4.968-5.088 1.728 0 3.12.648 4.08 1.728l2.568-2.304c-1.176-1.824-3.912-3.024-6.792-3.024-5.184 0-8.688 3.888-8.688 8.688 0 5.208 3.816 8.688 9.096 8.688 2.688 0 5.136-1.104 6.768-2.904v-6.792h-7.824v3.36zM59.7 42h1.21v-4.86l2.18 2.79h.31l2.13-2.78V42h1.21v-7h-1.06l-2.41 3.25-2.5-3.25H59.7v7zm9.127-3.71c.5-.38.92-.55 1.49-.55.84 0 1.13.42 1.12 1.17-.24-.08-.7-.14-1.07-.14-1.38 0-2.43.49-2.43 1.65 0 1 .75 1.64 1.89 1.64.77 0 1.3-.29 1.61-.63V42h1.14v-3.18c0-1.36-.76-2.14-2.13-2.14-.85 0-1.69.29-2.18.77l.56.84zm1.25 2.78c-.58 0-.96-.25-.96-.66 0-.52.55-.69 1.37-.69.37 0 .74.07.95.14v.5c-.23.35-.67.71-1.36.71zm3.832.93h1.14v-4.14h2.78V36.8h-3.92V42zm5.352-3.71c.5-.38.92-.55 1.49-.55.84 0 1.13.42 1.12 1.17-.24-.08-.7-.14-1.07-.14-1.38 0-2.43.49-2.43 1.65 0 1 .75 1.64 1.89 1.64.77 0 1.3-.29 1.61-.63V42h1.14v-3.18c0-1.36-.76-2.14-2.13-2.14-.85 0-1.69.29-2.18.77l.56.84zm1.25 2.78c-.58 0-.96-.25-.96-.66 0-.52.55-.69 1.37-.69.37 0 .74.07.95.14v.5c-.23.35-.67.71-1.36.71zm5.782 1.05c1.34 0 2.35-.65 2.35-1.76 0-.51-.17-.87-.69-1.17.37-.29.51-.65.51-1.04 0-.88-.74-1.5-2.11-1.5-1.26 0-2.01.62-2.34 1.19l.81.54c.31-.38.69-.7 1.47-.7.52 0 .99.2.99.63 0 .33-.29.55-.71.55h-1.09v.99h1.15c.53 0 .83.17.83.52 0 .45-.48.72-1.16.72-.73 0-1.26-.33-1.55-.83l-.86.6c.46.78 1.16 1.26 2.4 1.26zm4.438-.12l2.76-3.38V42h1.14v-5.2h-.99l-2.76 3.39V36.8h-1.14V42h.99zm8.907 0h1.14v-5.2h-1.14v2.04h-2.5V36.8h-1.14V42h1.14v-2.11h2.5V42zm2.01-4.14h1.27V42h2.17c1.69 0 2.26-.9 2.26-1.86 0-.98-.51-1.85-2.19-1.85h-1.1V36.8h-2.41v1.06zm3.41 1.49c.8 0 1.11.29 1.11.8s-.29.79-1.11.79h-1v-1.59h1zm2.251-1.49h1.88V42h1.14v-4.14h1.88V36.8h-4.9v1.06zm10.374 4.26c1.34 0 2.35-.65 2.35-1.76 0-.51-.17-.87-.69-1.17.37-.29.51-.65.51-1.04 0-.88-.74-1.5-2.11-1.5-1.26 0-2.01.62-2.34 1.19l.81.54c.31-.38.69-.7 1.47-.7.52 0 .99.2.99.63 0 .33-.29.55-.71.55h-1.09v.99h1.15c.53 0 .83.17.83.52 0 .45-.48.72-1.16.72-.73 0-1.26-.33-1.55-.83l-.86.6c.46.78 1.16 1.26 2.4 1.26zm4.008-3.83c.5-.38.92-.55 1.49-.55.84 0 1.13.42 1.12 1.17-.24-.08-.7-.14-1.07-.14-1.38 0-2.43.49-2.43 1.65 0 1 .75 1.64 1.89 1.64.77 0 1.3-.29 1.61-.63V42h1.14v-3.18c0-1.36-.76-2.14-2.13-2.14-.85 0-1.69.29-2.18.77l.56.84zm1.25 2.78c-.58 0-.96-.25-.96-.66 0-.52.55-.69 1.37-.69.37 0 .74.07.95.14v.5c-.23.35-.67.71-1.36.71zm6.495.93h2.46c1.32 0 2.1-.53 2.1-1.55 0-.56-.24-1.02-.73-1.21.35-.26.58-.58.58-1.06 0-1.01-.75-1.38-2.19-1.38h-2.22V42zm2.38-2.15c.68 0 1 .16 1 .57 0 .39-.35.55-1.03.55h-1.21v-1.12h1.24zm-.19-2.02c.66 0 1.04.08 1.04.5 0 .36-.28.53-.75.53h-1.34v-1.03h1.05zm4.031.46c.5-.38.92-.55 1.49-.55.84 0 1.13.42 1.12 1.17-.24-.08-.7-.14-1.07-.14-1.38 0-2.43.49-2.43 1.65 0 1 .75 1.64 1.89 1.64.77 0 1.3-.29 1.61-.63V42h1.14v-3.18c0-1.36-.76-2.14-2.13-2.14-.85 0-1.69.29-2.18.77l.56.84zm1.25 2.78c-.58 0-.96-.25-.96-.66 0-.52.55-.69 1.37-.69.37 0 .74.07.95.14v.5c-.23.35-.67.71-1.36.71zm3.832.93h6.42v-5.2h-1.14v4.14h-1.5V36.8h-1.14v4.14h-1.5V36.8h-1.14V42zm8.77 0l2.76-3.38V42h1.14v-5.2h-.99l-2.76 3.39V36.8h-1.14V42h.99zm4.767-4.14h1.88V42h1.14v-4.14h1.88V36.8h-4.9v1.06zm9.536 2.48c-.31.42-.83.69-1.39.69-.86 0-1.53-.42-1.62-1.24h3.86c.04-.31.06-.56.06-.73 0-1.44-1.04-2.38-2.44-2.38-1.74 0-2.67 1.19-2.67 2.71 0 1.64 1.12 2.7 2.79 2.7.85 0 1.58-.35 2.11-1.06l-.7-.69zm-1.58-2.63c.73 0 1.22.37 1.31 1.09h-2.73c.15-.67.65-1.09 1.42-1.09zm9.877 4.29h1.14v-5.2h-4.1v1.48c0 2.41-.61 2.75-1.16 2.7l.09 1.06c1.29.11 2.19-.61 2.19-3.37v-.81h1.84V42zm2.5 0h1.14v-2.15h.88c.2 1.33 1.18 2.24 2.62 2.24 1.58 0 2.69-1.14 2.69-2.7 0-1.57-1.1-2.71-2.69-2.71-1.39 0-2.36.87-2.6 2.14h-.9V36.8h-1.14V42zm3.17-2.61c0-1 .66-1.65 1.48-1.65.89 0 1.5.65 1.5 1.65 0 1-.62 1.64-1.5 1.64-.85 0-1.48-.64-1.48-1.64zm9.835-4.82c-.96.29-2.14.05-3.07.52-1.37.69-1.69 2-1.69 3.89 0 2.02 1.12 3.12 2.79 3.12 1.6 0 2.64-1.14 2.64-2.66 0-1.58-1.06-2.41-2.4-2.41-.81 0-1.5.23-1.9.8.05-.8.31-1.43.97-1.74.77-.34 1.97-.13 2.85-.49l-.19-1.03zm-3.58 4.6c.23-.57.78-1.08 1.63-1.08.94 0 1.44.57 1.44 1.42 0 .88-.53 1.53-1.47 1.53-.95 0-1.6-.77-1.6-1.76v-.11zm6.355 2.83l2.76-3.38V42h1.14v-5.2h-.99l-2.76 3.39V36.8h-1.14V42h.99zm5.267 0h1.14v-3.26l1.71 2.12 1.61-2.09V42h1.14v-5.2h-.94l-1.82 2.36-1.82-2.36h-1.02V42zm6.97 0h4.33v1.19h1.06v-2.25h-.7V36.8h-1.14v4.14h-2.41V36.8h-1.14V42zm7.266 0l2.76-3.38V42h1.14v-5.2h-.99l-2.76 3.39V36.8h-1.14V42h.99z" fill="#fff"/><defs><clipPath id="clip0"><path fill="#fff" d="M0 0h85v66H0z"/></clipPath></defs></svg>