<svg width="27" height="23" fill="none" xmlns="http://www.w3.org/2000/svg"><path d="M10.01 3.073a1 1 0 000 2v-2zM25.17 4.74l.955.293.003-.009.003-.01-.962-.274zm-2.562 8.349l.937.351.01-.029.01-.029-.957-.293zM10.011 5.073h14.646v-2H10.011v2zm14.646 0a.463.463 0 01-.356-.182.49.49 0 01-.093-.427l1.923.55c.298-1.044-.5-1.94-1.474-1.94v2zm-.444-.627l-2.56 8.349 1.912.586 2.56-8.349-1.912-.586zm-2.54 8.29a.164.164 0 01-.046.071c-.002.002 0 .001.004 0 .005-.002.007-.002.004-.002v2c.956 0 1.64-.644 1.91-1.366l-1.873-.702zm-.038.069H9.547v2h12.088v-2z" fill="#fff"/><path d="M24.352 18.39a1 1 0 100-2v2zm-13.985-1.717l.97-.242-.003-.014-.004-.014-.963.27zm-4.2-14.956l-.97.243.003.014.004.013.963-.27zM1.352 0a1 1 0 000 2V0zm23 16.39H11.34v2h13.012v-2zm-13.012 0c-.004 0-.009 0-.014-.002a.045.045 0 01-.012-.006l.005.006a.131.131 0 01.018.043l-1.94.485c.224.896 1.067 1.474 1.943 1.474v-2zm-.01.013L7.13 1.447l-1.926.54 4.2 14.957 1.926-.541zM7.137 1.475C6.913.579 6.07 0 5.194 0v2c.004 0 .008 0 .013.002l.013.006-.005-.005a.132.132 0 01-.018-.043l1.94-.485zM5.194 0H1.352v2h3.842V0z" fill="#fff"/><path d="M10.572 22a1.537 1.537 0 100-3.073 1.537 1.537 0 000 3.073zm10.244 0a1.537 1.537 0 100-3.073 1.537 1.537 0 000 3.073z" stroke="#fff" stroke-width="2" stroke-miterlimit="10"/></svg>