<svg width="20" height="23" viewBox="0 0 20 23" fill="none" xmlns="http://www.w3.org/2000/svg">
<path d="M15.3807 7.07016C15.7744 6.79052 16.1528 6.47818 16.4992 6.13245C17.2255 5.40621 17.711 4.51302 17.8668 3.61705C18.038 2.63482 17.7868 1.72285 17.1796 1.11487C16.6947 0.630015 16.038 0.374023 15.2805 0.374023C14.2016 0.374023 13.0649 0.891572 12.162 1.7952C10.7172 3.24002 9.87475 5.23509 9.4212 6.65835C9.08591 5.22813 8.41671 3.29637 7.11658 1.99623C6.41886 1.29852 5.52706 0.940266 4.68535 0.940266C3.99737 0.940266 3.34209 1.17956 2.85376 1.6679C1.76718 2.75447 1.91396 4.66328 3.1814 5.93072C3.63356 6.38288 4.16154 6.75782 4.71874 7.07016H0.000976562V12.6352H1.39224V22.374H18.0874V12.6352H19.4786V7.07016H15.3814H15.3807ZM13.268 2.90125C13.8705 2.29883 14.6231 1.9385 15.2798 1.9385C15.5121 1.9385 15.8384 1.98719 16.0721 2.22092C16.6377 2.78647 16.3205 4.09704 15.3925 5.02501C14.4374 5.98011 13.1519 6.63748 12.0354 7.06946H10.9335C11.337 5.81872 12.0653 4.1033 13.268 2.90055V2.90125ZM3.69408 3.61149C3.67877 3.41323 3.69269 3.04107 3.95911 2.77464C4.18171 2.55204 4.47597 2.50543 4.68396 2.50543C5.14586 2.50543 5.62862 2.72317 6.00844 3.10298C6.74511 3.83896 7.35101 5.01109 7.76212 6.4914C7.77325 6.53105 7.78369 6.57139 7.79482 6.61035C7.75517 6.59991 7.71552 6.58878 7.67587 6.57765C6.19556 6.16654 5.02343 5.56064 4.28745 4.82397C3.94311 4.47963 3.72747 4.03791 3.69408 3.61149ZM8.34784 20.9828H2.7828V11.9396H8.34784V20.9828ZM8.34784 11.2439H1.39154V8.46142H8.34784V11.2439ZM16.6954 20.9828H11.1304V11.9396H16.6954V20.9828ZM18.0867 11.2439H11.1304V8.46142H18.0867V11.2439Z" fill="white"/>
</svg>
