<svg width="215" height="66" viewBox="0 0 215 66" fill="none" xmlns="http://www.w3.org/2000/svg">
<g clip-path="url(#clip0)">
<path d="M44.6803 23.2606C44.1173 19.0569 38.3466 18.2784 37.9087 17.9515L34.5776 17.7335C34.5776 17.7335 30.574 22.1552 29.4637 32.213C28.3533 42.2708 37.6897 38.1917 38.1276 37.9581C38.5655 37.7401 37.4551 36.5257 36.6888 33.7544C35.9069 30.9986 45.0869 26.3589 44.6803 23.2606Z" fill="#E0E1E0"/>
<path d="M31.2465 31.6058C32.1379 30.7184 33.6861 32.7112 34.906 31.6681C36.2353 29.0213 36.0163 28.1806 38.2371 25.9697C39.6289 24.4751 37.7366 23.9768 37.7366 22.6534C38.1745 22.6534 39.019 21.1588 40.6767 22.8714C40.6767 21.875 40.3796 19.633 40.3327 18.7611C39.1128 18.294 38.0807 18.0916 37.893 17.9515L34.5619 17.7335C34.5619 17.7335 30.5583 22.1552 29.448 32.213C29.1508 34.8442 29.5887 36.4946 30.3707 37.5066C30.1517 35.7317 29.6044 33.4119 31.2465 31.6058Z" fill="#C6C7C6"/>
<path d="M41.0208 19.9755C41.9435 20.9719 43.5387 22.8091 43.0539 24.257C42.569 25.6894 38.5029 28.9434 38.3935 28.9434C38.284 28.9434 41.1303 25.2223 41.5525 24.1948C42.225 22.56 41.0208 19.9755 41.0208 19.9755Z" fill="#FBFBFB"/>
<path d="M36.5168 33.5208C36.5168 33.5208 35.5472 31.9639 36.9235 30.0333C36.9235 30.0333 37.6272 29.3949 38.5186 29.2237C39.41 29.0368 39.5821 29.3638 39.0503 29.9087C38.503 30.4381 36.3604 32.6334 36.5168 33.5208Z" fill="#C6C7C6"/>
<path d="M44.7898 23.245C44.5083 21.0965 42.8818 19.8198 41.3023 19.0569C40.5047 18.6677 39.7228 18.4185 39.1129 18.2317C38.8001 18.1383 38.5342 18.0605 38.3466 17.9982C38.1433 17.9359 38.0025 17.8892 37.9869 17.8581L37.9243 17.8425L34.5932 17.6245L34.4994 17.6557C34.4838 17.6712 30.4802 22.1085 29.3698 32.1974C29.3073 32.7579 29.276 33.2873 29.276 33.7699C29.276 35.8718 29.839 37.1952 30.6991 38.0048C31.5593 38.8144 32.7009 39.0791 33.8269 39.0791C35.9225 39.0791 37.9869 38.1605 38.2058 38.0671C38.3153 38.0204 38.3778 37.8958 38.3622 37.7868C38.3622 37.6311 38.2996 37.4754 38.2058 37.2419C37.9243 36.588 37.2988 35.467 36.814 33.7388C36.7827 33.6298 36.767 33.5364 36.767 33.4274C36.767 32.8046 37.2518 32.0262 38.0025 31.2166C39.1285 29.9866 40.8175 28.6165 42.2407 27.2931C42.9444 26.6236 43.5856 25.9697 44.0548 25.3313C44.5239 24.693 44.8211 24.0702 44.8211 23.4786C44.8054 23.3852 44.8054 23.3073 44.7898 23.245ZM43.351 25.814C42.225 27.0907 40.536 28.4608 39.1129 29.7686C38.4091 30.4225 37.7679 31.0609 37.2988 31.6681C36.8296 32.2753 36.5325 32.8669 36.5325 33.4118C36.5325 33.5364 36.5481 33.6609 36.5794 33.7855C36.9078 34.9532 37.2988 35.8562 37.5959 36.5101C37.7523 36.8371 37.8774 37.1173 37.9712 37.3197C38.0651 37.5377 38.112 37.6934 38.112 37.7713C38.112 37.8335 38.0963 37.8335 38.0651 37.8491C37.8774 37.9425 35.8287 38.8455 33.7956 38.8455C32.7009 38.8455 31.6375 38.5964 30.8243 37.8335C30.0267 37.0862 29.4793 35.8251 29.4637 33.7544C29.4637 33.2873 29.4949 32.7579 29.5575 32.1974C30.1049 27.1841 31.3873 23.572 32.5133 21.221C33.0763 20.0378 33.608 19.1814 33.9989 18.621C34.1866 18.3407 34.3586 18.1227 34.4681 17.9826C34.515 17.9203 34.562 17.8581 34.5932 17.8269L34.6089 17.8113L37.8618 18.0293C37.9556 18.076 38.0807 18.1227 38.2527 18.185C38.9565 18.403 40.4265 18.7611 41.7715 19.5395C43.1164 20.3024 44.3206 21.4701 44.5552 23.2606C44.5708 23.3229 44.5708 23.3852 44.5708 23.4475C44.5865 24.1481 44.1017 24.9577 43.351 25.814Z" fill="#272827"/>
<path d="M36.9234 29.9866C36.8765 29.9554 36.0007 31.1543 36.0007 32.3375C36.0007 32.8046 36.1258 33.2873 36.4855 33.6921C36.5325 33.7388 36.595 33.7388 36.6419 33.7076C36.6888 33.6609 36.6888 33.5986 36.6576 33.5519C36.3448 33.1938 36.2197 32.7735 36.2197 32.3375C36.2197 31.7926 36.4073 31.2477 36.595 30.8273C36.6888 30.6093 36.986 30.0177 36.9234 29.9866Z" fill="#272827"/>
<path d="M40.0199 58.5719C40.3171 55.7694 37.6741 51.1764 36.9547 47.938C33.9521 46.6146 30.5271 45.7583 28.0875 43.672C27.8685 52.5154 35.8756 56.2053 40.0199 58.5719Z" fill="#C6C7C6"/>
<path d="M54.5016 73.1604C53.1723 69.2836 43.9454 51.9238 38.9566 48.9501C33.9521 45.9607 26.3985 45.8518 25.0692 38.2228C23.7399 30.5938 25.5071 30.7028 28.4003 30.4848C31.2935 30.2668 34.7653 29.753 34.7653 29.753L35.0625 27.4643C35.0625 27.4643 36.3136 28.3518 36.3136 26.2811C36.3136 26.2811 38.9096 24.8798 38.0182 23.4007C37.1268 21.9217 37.205 17.7179 39.2693 16.3167C41.3493 14.9154 44.3051 10.5716 41.4119 6.29002C38.5343 2.02401 33.2171 -0.84075 29.5107 0.404799C25.8042 1.65035 15.592 3.93904 15.4356 9.10807V12.2842C15.4356 12.2842 8.28866 13.125 5.63005 15.5694C3.67519 17.3754 0.969655 22.3109 3.95669 29.0524C3.95669 29.0524 5.28599 30.3447 4.17563 32.3376C3.06527 34.3304 0.0313214 35.358 0.109516 37.7868C0.18771 40.2156 4.11308 43.1738 6.39636 43.5319C8.28866 43.8433 10.8534 43.0337 11.5572 42.5822C11.5572 43.0493 11.7292 44.1703 12.3235 46.4901C15.1698 57.7 16.2958 88.4807 14.0594 93.4628C14.0594 93.4628 11.7292 95.4402 13.731 96.3276C15.7328 97.2151 17.9535 97.2151 19.58 96.7013C19.58 96.7013 23.6461 100.313 30.7618 96.9971L32.0598 96.1875C32.0598 96.1875 34.0616 98.2894 37.5021 97.6199C40.9427 96.9504 47.0575 96.6234 49.0593 96.9504C51.0611 97.2773 54.7206 96.8414 54.83 84.1212C54.83 84.1057 55.8309 77.0372 54.5016 73.1604Z" fill="#E0E1E0"/>
<path d="M24.991 40.4336C24.5688 41.3366 24.4749 42.3331 23.7555 42.987C23.0831 43.6098 22.4731 44.3104 21.6599 44.793C20.3775 45.6027 19.0951 46.5524 18.7667 48.0626C20.1429 48.0626 21.4723 48.0626 22.8485 47.8291C23.6617 47.6889 24.6157 47.6422 25.0848 48.3896C25.554 49.1058 25.1787 49.9465 25.3663 50.8028C25.4133 51.0831 25.554 51.4256 25.7886 51.519C26.8833 51.9861 28.1188 51.519 29.2135 51.846C30.9807 52.3598 32.7792 52.5622 34.5464 53.2161C35.3596 53.543 36.0634 54.0724 36.8297 54.4461C37.2519 54.6796 37.7367 54.8197 38.159 54.9131C38.3466 54.9598 38.6281 55.1467 38.6751 55.0065C38.8627 54.7263 38.6751 54.2904 38.5812 53.9167C38.2059 52.4065 37.7211 50.834 38.1121 49.277C38.159 49.0435 38.2528 48.8099 38.3466 48.592C33.3578 45.9296 26.3516 45.5404 25.0692 38.2072C24.991 37.7713 24.9285 37.3665 24.8659 36.9928C24.9128 37.4754 24.9754 37.9737 25.0692 38.4875C25.2256 39.1569 25.2725 39.8731 24.991 40.4336Z" fill="#C6C7C6"/>
<path d="M34.1867 26.4212C32.0129 26.7481 29.8703 27.4332 27.6496 26.9505C26.5705 26.6859 26.0857 25.4559 26.0388 24.366C25.2256 24.8798 24.5375 25.5804 23.8024 26.2343C24.4749 26.0008 25.0848 25.5182 25.8042 25.3313C25.7573 26.5146 26.7582 27.2308 27.806 27.4176C29.9016 27.7913 31.9503 27.1374 33.9364 27.2308C34.2336 27.2308 34.5933 27.729 34.9999 27.9937L35.0624 27.4643C35.0624 27.4643 35.1876 27.5422 35.3439 27.6045C34.8748 27.3086 34.4682 26.9038 34.1867 26.4212Z" fill="#C6C7C6"/>
<path d="M36.1884 27.1997C36.2666 26.9973 36.3292 26.7015 36.3292 26.2811C36.3292 26.2811 36.5168 26.1721 36.7671 26.0008C36.3604 25.923 35.9695 25.7829 35.641 25.5338C35.5941 26.141 35.7974 26.7482 36.1884 27.1997Z" fill="#C6C7C6"/>
<path d="M28.0718 26.5146C30.3551 26.8416 32.5446 26.141 34.7809 25.7517C32.1379 25.5649 29.3073 26.3901 26.7738 25.3314C27.0397 25.9386 27.4932 26.4524 28.0718 26.5146Z" fill="#EDEEED"/>
<path d="M17.8752 31.6213C17.281 24.2259 14.5129 20.5982 17.2184 18.7922C14.8569 18.9012 13.4182 21.6569 14.466 24.584C16.4834 29.644 16.5459 33.9879 13.4651 38.0048C12.3391 39.2192 10.1496 42.5355 8.39807 43.7187C9.52407 43.5008 11.2131 42.9091 11.6197 42.66C11.6353 43.5942 19.5486 35.3424 17.8752 31.6213Z" fill="#C6C7C6"/>
<path d="M26.9145 43.314C23.9118 43.999 16.6085 45.1044 15.201 44.2014C15.8265 43.7499 16.327 43.0337 16.7649 42.3798C16.7649 42.3331 16.9056 42.193 16.9056 42.1463C17.9534 40.5426 18.5633 38.8767 18.9074 36.9928C19.0012 36.6191 18.9543 36.2299 19.0481 35.8562C19.2358 34.4394 19.6111 33.116 19.7206 31.6837C19.8144 30.8273 20.3931 30.1267 21.2376 29.8309C20.2367 28.6943 19.0951 27.6045 18.4851 26.1877C18.4851 26.141 18.3913 26.0475 18.3444 26.0008C18.016 25.487 17.8283 24.9577 17.625 24.4906C17.3435 23.7744 17.1558 23.0738 17.062 22.3576C16.9212 21.0809 16.5928 19.6641 17.2497 18.4808C16.7336 18.4808 16.2488 18.7611 15.9204 19.1036C15.764 19.2749 15.6076 19.4617 15.4668 19.6485C15.4199 20.4426 15.4043 21.2522 15.4981 22.0929C15.545 22.4666 15.6858 22.8091 15.7796 23.1828C16.0142 24.3661 16.2488 25.4092 16.5459 26.5458C17.3904 29.7842 17.3435 33.1472 16.1862 36.261C15.3261 37.7401 14.1062 39.048 12.4642 40.06L11.5884 41.2121C11.604 41.6636 11.776 42.6912 12.3547 44.7619C13.7465 49.7752 14.4503 59.5684 14.638 68.6297C17.9378 67.1974 20.6277 64.2236 22.9422 61.5924C28.2438 55.8784 26.9145 49.8064 26.9145 43.314Z" fill="#C6C7C6"/>
<path d="M46.2129 93.9455C45.3841 93.5096 44.7429 93.3539 43.7576 93.0114C41.1459 92.1239 35.86 88.9945 35.2031 86.4255C33.8895 81.9882 35.7349 75.9162 40.0199 73.6742C43.007 72.1173 45.7907 71.8993 50.9046 73.6742C41.4274 65.5626 36.1728 70.1088 33.4985 76.6168C33.7175 71.0274 32.6071 64.8308 31.4967 59.5217C31.8721 70.8562 32.5289 87.4531 27.6965 98.0403C28.6348 97.8223 29.667 97.4798 30.7617 96.966L32.0597 96.1564C32.0597 96.1564 34.0615 98.2582 37.5021 97.5887C37.7367 97.542 37.9869 97.4953 38.2527 97.4642C36.9703 96.966 35.0937 95.8294 36.032 94.8952C38.2527 93.1359 41.0677 93.4317 46.2129 93.9455Z" fill="#C6C7C6"/>
<path d="M34.1241 13.7944C39.8479 10.665 39.8948 5.85404 39.1755 3.6899C38.503 3.08269 37.7836 2.5222 37.0486 2.05511C38.6281 6.61694 37.9556 9.35714 34.1241 13.7944Z" fill="#C6C7C6"/>
<path d="M34.7183 0.887488C33.4047 0.404838 31.919 0.093451 30.7148 0.233575C30.9806 0.373699 35.8287 10.4315 31.137 13.2963C36.3135 11.2411 36.0164 5.4026 34.7183 0.887488Z" fill="#C6C7C6"/>
<path d="M7.7882 41.1809C8.7109 39.5306 8.92984 37.3198 8.25737 35.576C8.19481 38.0048 5.83334 42.0217 3.47186 42.1618C4.30072 42.8002 6.08356 42.8313 7.7882 41.1809Z" fill="#C6C7C6"/>
<path d="M23.1299 69.8597C22.2698 68.583 20.0334 67.0105 18.4382 65.7494C14.7475 63.6475 15.2948 63.1338 15.4356 61.9972C15.1697 62.4954 14.7318 62.6822 15.3417 64.6751C16.7961 69.2369 20.8935 69.0501 20.6746 78.1115C20.6746 83.8566 20.6746 90.0532 17.1246 95.3623C16.8118 95.8294 16.6241 96.3899 16.5616 97.0127C17.625 97.0905 18.6415 96.966 19.5017 96.7169C19.5799 96.1408 18.5008 95.3623 21.5973 93.1515C24.4592 87.2351 24.4592 78.1893 23.1299 69.8597Z" fill="#C6C7C6"/>
<path d="M18.9075 29.0057C20.3306 30.7806 22.5983 31.4189 24.819 32.2753C25.3194 30.6249 26.6487 30.6093 28.3847 30.4848C31.2779 30.2668 34.7497 29.753 34.7497 29.753L34.7966 29.4261C29.5107 27.7134 24.2091 29.8776 18.9075 29.0057Z" fill="#C6C7C6"/>
<path d="M54.6111 73.1293C53.9386 71.1831 51.2956 65.874 48.1991 60.6738C46.6509 58.0737 44.9931 55.5048 43.398 53.3873C41.8028 51.2699 40.2858 49.6195 39.0191 48.8566C36.5012 47.3464 33.3578 46.5835 30.6992 45.229C28.0406 43.8745 25.8511 41.975 25.1943 38.2072C24.8815 36.4479 24.7408 35.0933 24.7408 34.0658C24.7408 33.2094 24.8346 32.5867 25.0066 32.1196C25.2725 31.419 25.6947 31.092 26.2734 30.8896C26.852 30.6872 27.587 30.6561 28.4159 30.5938C31.3091 30.3758 34.7966 29.862 34.7966 29.862L34.8748 29.8465L34.8904 29.7686L35.1719 27.6512C35.2814 27.7135 35.4534 27.7757 35.6411 27.7757C35.8444 27.7757 36.0633 27.6979 36.2041 27.4643C36.3448 27.2464 36.4387 26.8883 36.4387 26.3745C36.5794 26.2966 36.9547 26.0631 37.3457 25.7362C37.8305 25.3158 38.331 24.7397 38.331 24.0858C38.331 23.8523 38.2684 23.6187 38.1277 23.3852C37.7992 22.8558 37.5959 21.9061 37.6116 20.8629C37.6116 19.1814 38.1277 17.282 39.3631 16.4568C40.8488 15.4448 42.7568 13.0004 42.7568 10.1045C42.7568 8.87453 42.4127 7.56671 41.5369 6.27445C39.0816 2.63122 34.906 0 31.4029 0C30.7305 0 30.0893 0.0934162 29.4793 0.295818C27.6339 0.918592 24.1465 1.80605 21.0969 3.19172C19.5799 3.87677 18.1568 4.68638 17.109 5.66725C16.0612 6.63255 15.373 7.76911 15.3261 9.10808V12.1752C14.9352 12.2219 13.34 12.4399 11.4946 12.8914C9.38334 13.4052 6.9124 14.2304 5.55181 15.4759C4.19123 16.7215 2.51786 19.415 2.51786 23.1516C2.51786 24.911 2.8932 26.9194 3.86281 29.0991L3.87845 29.1147L3.89409 29.1303L3.92537 29.1614C4.05048 29.286 4.53528 29.8776 4.53528 30.7806C4.53528 31.2166 4.42581 31.7148 4.11303 32.2909C3.58131 33.2406 2.58042 33.9879 1.689 34.7975C0.781945 35.576 0 36.4634 0 37.6934V37.7868C0.0469167 39.0635 1.06345 40.4181 2.34584 41.5235C3.64387 42.6133 5.19212 43.4541 6.38067 43.6565C6.67781 43.7032 6.99059 43.7188 7.30337 43.7188C8.17915 43.7188 9.10184 43.5631 9.88379 43.3451C10.5406 43.1583 11.1036 42.9559 11.4477 42.769C11.4946 43.3295 11.6823 44.4505 12.214 46.5057C14.0125 53.5897 15.1385 68.583 15.1385 79.8552C15.1385 83.1092 15.0446 86.0518 14.857 88.4028C14.6693 90.7382 14.3722 92.4976 13.9655 93.385C13.903 93.4473 13.6528 93.6653 13.4025 93.9766C13.1054 94.3347 12.8083 94.8174 12.8083 95.3C12.8083 95.5024 12.8708 95.7204 13.0116 95.9072C13.1523 96.0941 13.3713 96.2654 13.684 96.4055C14.8413 96.9193 16.0612 97.1372 17.2028 97.1372C18.0473 97.1372 18.8605 97.0127 19.5643 96.7947C19.8614 97.0438 21.7537 98.4762 24.991 98.4762C26.6174 98.4762 28.5723 98.1181 30.8086 97.0594L32.0285 96.2965C32.3413 96.5923 33.7957 97.8379 36.1572 97.8379C36.5794 97.8379 37.0329 97.7911 37.5021 97.7133C40.0043 97.2306 43.961 96.9193 46.6665 96.9193C47.6517 96.9193 48.4806 96.966 49.0123 97.0438C49.2469 97.0905 49.5128 97.1061 49.7786 97.1061C50.8264 97.1061 52.1245 96.6702 53.1254 94.8174C54.1263 92.9802 54.8769 89.7418 54.9238 84.1057C54.9395 84.0278 55.2835 81.5212 55.2835 78.672C55.2992 76.7725 55.1428 74.7018 54.6111 73.1293ZM54.9082 82.4709C54.8613 82.9691 54.8144 83.3739 54.7831 83.6542C54.7518 83.9344 54.7205 84.0901 54.7205 84.0901C54.6736 89.7106 53.923 92.9179 52.9533 94.7084C51.9837 96.4989 50.7952 96.8726 49.8099 96.8726C49.5441 96.8726 49.3095 96.8414 49.0749 96.8103C48.5275 96.7169 47.6987 96.6857 46.6978 96.6857C43.9766 96.6857 40.02 96.9971 37.4865 97.4798C37.0173 97.5732 36.595 97.6043 36.1884 97.6043C34.906 97.6043 33.8895 97.2151 33.2014 96.8414C32.8573 96.6546 32.5915 96.4522 32.4195 96.312C32.3256 96.2342 32.2631 96.1875 32.2161 96.1408L32.1692 96.0941L32.1536 96.0785L32.091 96.0162L32.0128 96.0629L30.7305 96.8726C28.5097 97.9157 26.5861 98.2582 25.0066 98.2582C23.2863 98.2582 21.9414 97.8379 21.0343 97.4175C20.5808 97.2151 20.2367 96.9971 20.0178 96.8414C19.9083 96.7636 19.8145 96.7013 19.7519 96.6546L19.6894 96.6079L19.6737 96.5923L19.6268 96.5456L19.5643 96.5612C18.8762 96.7791 18.0629 96.9037 17.2184 96.9037C16.1081 96.9037 14.9195 96.6857 13.7935 96.1875C13.512 96.0629 13.3243 95.9072 13.1992 95.7671C13.0898 95.6114 13.0428 95.4557 13.0428 95.2845C13.0428 94.8952 13.3087 94.4437 13.5902 94.1012C13.731 93.9299 13.8717 93.7898 13.9655 93.6808C14.0125 93.6341 14.0594 93.5874 14.0907 93.5563L14.1376 93.5096L14.1532 93.494L14.1688 93.4784C14.5911 92.5443 14.8882 90.7694 15.0759 88.4028C15.2636 86.0363 15.3574 83.0937 15.3574 79.8397C15.3574 68.5519 14.247 53.5586 12.4329 46.4278C11.8387 44.1236 11.6666 43.0026 11.6666 42.5511V42.3487L11.4946 42.4576C11.2131 42.6445 10.5875 42.8936 9.82123 43.096C9.05493 43.2984 8.14787 43.4541 7.30337 43.4541C6.99059 43.4541 6.69345 43.4385 6.41195 43.3918C5.30159 43.2205 3.75334 42.3954 2.48659 41.3211C1.21983 40.2468 0.234584 38.9078 0.218945 37.7557V37.6778C0.218945 36.5413 0.922696 35.7161 1.81411 34.9221C2.68989 34.128 3.72206 33.3807 4.28506 32.3687C4.61348 31.7615 4.73859 31.2166 4.73859 30.7495C4.73859 29.6908 4.14431 29.0524 4.05048 28.959C3.0965 26.8104 2.72117 24.8487 2.72117 23.1205C2.72117 19.4617 4.37889 16.8149 5.69256 15.6161C6.99059 14.4172 9.43026 13.5921 11.5415 13.0783C12.605 12.8292 13.5746 12.6423 14.2783 12.5333C14.9821 12.4243 15.4356 12.3621 15.4356 12.3621L15.5294 12.3465V12.2531V9.10808C15.5607 7.86253 16.2175 6.77267 17.2341 5.82294C18.7667 4.40613 21.1438 3.3007 23.4896 2.44439C25.8355 1.58807 28.1344 0.98087 29.5263 0.498219C30.1049 0.295818 30.7305 0.202402 31.3716 0.202402C34.7809 0.202402 38.9096 2.78692 41.318 6.3523C42.1625 7.61342 42.5065 8.85896 42.5065 10.0578C42.5065 12.8447 40.6299 15.2735 39.2067 16.2233C37.8774 17.1263 37.3613 19.088 37.3613 20.8162C37.3613 21.8905 37.5647 22.8558 37.9244 23.4475C38.0495 23.6499 38.0964 23.8367 38.0964 24.0235C38.0964 24.5684 37.6585 25.1134 37.1893 25.5182C36.9547 25.7206 36.7202 25.8763 36.5481 25.9853C36.4543 26.0475 36.3917 26.0787 36.3448 26.1098C36.2979 26.141 36.2666 26.1565 36.2666 26.1565L36.2041 26.1877V26.2499C36.2041 26.7949 36.1102 27.1218 36.0008 27.2931C35.8913 27.4643 35.7505 27.5111 35.6098 27.5111C35.4847 27.5111 35.3596 27.4643 35.2657 27.4332C35.2188 27.4176 35.1719 27.3865 35.1563 27.3709L35.125 27.3554H35.1093L34.953 27.2464L34.9217 27.4332L34.6402 29.6285C34.5463 29.6441 34.3743 29.6596 34.1397 29.7063C33.0294 29.862 30.5271 30.189 28.369 30.3603C27.2586 30.4537 26.3046 30.4692 25.5853 30.9519C25.2256 31.1854 24.9441 31.528 24.7564 32.0417C24.5687 32.54 24.4749 33.1939 24.4749 34.0658C24.4749 35.1089 24.6156 36.4634 24.9284 38.2383C25.6009 42.084 27.8529 44.0613 30.5584 45.4158C33.2483 46.7704 36.3917 47.5488 38.8627 49.0279C40.0825 49.7597 41.5995 51.3945 43.179 53.4963C47.9333 59.8019 53.3756 70.2957 54.3608 73.176C54.8926 74.7018 55.049 76.7569 55.049 78.672C55.0802 80.1199 54.9864 81.4745 54.9082 82.4709Z" fill="#272827"/>
<path d="M26.5392 1.41687C25.8824 1.63484 25.2256 1.86838 24.5531 2.11749C26.2734 2.21091 30.3395 6.92842 30.1518 12.6112C31.9972 7.5512 29.9329 2.95824 26.5392 1.41687Z" fill="#C6C7C6"/>
<path d="M16.4052 11.8639L16.6085 14.355C16.6085 14.355 17.1246 10.6028 19.2359 7.66017C20.7841 5.49603 23.6304 4.17263 25.554 3.05164C25.554 3.06721 16.0455 4.60857 16.4052 11.8639Z" fill="#FBFBFB"/>
<path d="M30.793 3.14504L29.3073 1.86835C29.3073 1.86835 31.0901 4.23489 31.5437 7.02181C31.8721 9.07696 31.0276 11.3657 30.5741 13.0316C30.5741 13.0316 34.9999 6.9751 30.793 3.14504Z" fill="#FBFBFB"/>
<path d="M36.7827 4.07921L35.86 2.36658C35.86 2.36658 36.6576 5.21577 36.079 7.97155C35.6411 10.0111 34.0147 11.8327 32.9825 13.234C32.9825 13.234 39.3162 9.17039 36.7827 4.07921Z" fill="#FBFBFB"/>
<path d="M41.1147 8.26734L41.0522 6.32117C41.0522 6.32117 40.5048 9.23264 38.7533 11.4435C37.4552 13.0783 35.1876 13.9969 33.6393 14.7909C33.6393 14.7909 41.1147 13.9346 41.1147 8.26734Z" fill="#FBFBFB"/>
<path d="M39.1598 17.9203C38.5655 17.858 38.4717 19.1659 38.4717 19.1659C38.4717 19.1659 40.5673 22.2642 40.6924 22.2797C40.8019 22.2953 42.0999 19.306 42.4127 18.6521C42.7098 17.9826 39.1598 17.9203 39.1598 17.9203Z" fill="#FFDE00"/>
<path d="M41.1772 18.076C40.2545 17.9359 39.1598 17.9203 39.1598 17.9203C38.5655 17.858 38.4717 19.1659 38.4717 19.1659C38.4717 19.1659 40.2702 21.8126 40.6299 22.233C41.1147 20.9096 41.271 19.4461 41.1772 18.076Z" fill="#FFBB00"/>
<path d="M42.3501 18.2783C42.1624 18.1537 41.8809 18.0759 41.5525 18.0136C40.5673 17.8268 39.1598 17.7957 39.1598 17.7957H39.1129C38.9252 17.7957 38.7844 17.9046 38.6906 18.0292C38.5498 18.2316 38.4717 18.5118 38.4247 18.7298C38.3778 18.9634 38.3622 19.1346 38.3622 19.1346V19.1658L38.3778 19.1969C38.3778 19.1969 38.9095 19.9754 39.4413 20.7538C39.7071 21.1431 39.9886 21.5323 40.1919 21.8281C40.3014 21.9682 40.3952 22.0928 40.4578 22.1862C40.4891 22.2329 40.5203 22.2641 40.5516 22.2952L40.5829 22.3263C40.5985 22.3419 40.5985 22.3575 40.6611 22.3575H40.6767C40.7393 22.3575 40.7549 22.3263 40.7706 22.3108L40.8331 22.2329C40.9895 21.9838 41.3336 21.2521 41.6776 20.4892C42.0217 19.7263 42.3657 18.9478 42.5065 18.652C42.5221 18.6053 42.5378 18.5741 42.5378 18.5274C42.5378 18.4496 42.4439 18.3562 42.3501 18.2783ZM42.3032 18.6053C42.1468 18.9322 41.7558 19.8508 41.3805 20.676C41.1928 21.0808 41.0052 21.4856 40.8644 21.7658C40.7862 21.906 40.7393 22.0305 40.6924 22.1084L40.6767 22.1239C40.6611 22.0928 40.6298 22.0617 40.5985 22.0305C40.3327 21.688 39.8322 20.9562 39.3787 20.3179C39.0034 19.7574 38.6593 19.2747 38.5811 19.1502C38.5811 19.1191 38.5968 19.0723 38.5968 18.9945C38.628 18.8232 38.675 18.5741 38.7532 18.3717C38.8001 18.2627 38.847 18.1849 38.9095 18.1226C38.9721 18.0603 39.019 18.0448 39.0972 18.0448H39.1285C39.1285 18.0448 39.3318 18.0448 39.6289 18.0603C40.0825 18.0759 40.7706 18.1382 41.3336 18.2316C41.6151 18.2783 41.8653 18.3406 42.0373 18.4184C42.1155 18.4496 42.1937 18.4963 42.225 18.5274L42.2719 18.6053H42.3032Z" fill="#B35800"/>
<path d="M38.7375 17.1885C38.2683 17.3442 38.3622 18.5898 38.3622 18.5898C38.3622 18.5898 40.317 20.5048 40.4578 20.6138C40.536 20.6605 41.1772 17.3598 41.3179 16.628C41.4899 15.9119 38.7375 17.1885 38.7375 17.1885Z" fill="#FFDE00"/>
<path d="M39.8479 16.737C39.2693 16.955 38.7532 17.2041 38.7532 17.2041C38.284 17.3598 38.3778 18.6053 38.3778 18.6053C38.3778 18.6053 39.2223 19.4305 39.8479 20.0377C40.364 19.1347 40.364 17.858 39.8479 16.737Z" fill="#FFBB00"/>
<path d="M41.3336 16.3478C41.2554 16.3011 41.1772 16.3011 41.0834 16.3011C40.7081 16.3011 40.1294 16.5035 39.629 16.7059C39.1285 16.9083 38.7063 17.0951 38.7063 17.0951C38.5968 17.1418 38.5186 17.2197 38.4561 17.3131C38.284 17.6089 38.2527 18.0604 38.2527 18.3407C38.2527 18.4964 38.2684 18.6054 38.2684 18.6054V18.6521L38.2997 18.6832C38.2997 18.6832 38.7845 19.1658 39.3006 19.6641C39.5508 19.9132 39.8166 20.1623 40.0199 20.3491C40.1294 20.4425 40.2076 20.5359 40.2858 20.5982C40.364 20.6605 40.3953 20.6916 40.4266 20.7228L40.4891 20.7383C40.536 20.7383 40.5673 20.7072 40.5673 20.7072L40.5986 20.6605C40.6142 20.6138 40.6455 20.5359 40.6768 20.427C40.8801 19.6485 41.3336 17.282 41.4587 16.6748L41.4744 16.5969C41.4587 16.4879 41.3962 16.3945 41.3336 16.3478ZM41.2241 16.6125C41.1459 16.9706 40.9583 17.967 40.7706 18.87C40.6768 19.3215 40.5829 19.7575 40.5204 20.0689C40.4891 20.2246 40.4578 20.3491 40.4266 20.427C40.4266 20.427 40.4266 20.427 40.4109 20.4114C40.1763 20.1934 39.6915 19.7263 39.2536 19.306C38.8939 18.9479 38.5655 18.6365 38.4717 18.5431C38.4717 18.4964 38.4717 18.4341 38.4717 18.3407C38.4717 18.1538 38.4873 17.9047 38.5342 17.7023C38.5655 17.5933 38.5968 17.4999 38.6437 17.4376C38.6906 17.3754 38.7376 17.3287 38.7845 17.3131C38.7845 17.3131 38.8939 17.2664 39.0503 17.1885C39.3006 17.0796 39.6915 16.9083 40.0825 16.7837C40.4735 16.6436 40.8488 16.5346 41.0677 16.5502C41.1459 16.5502 41.1929 16.5658 41.2085 16.5813L41.2241 16.6125Z" fill="#B35800"/>
<path d="M38.5656 17.8425C38.6907 17.391 39.5039 17.391 39.4726 17.3287C39.4101 17.3287 38.6907 17.1263 38.4092 17.8892C38.8783 18.5275 39.5039 18.5431 39.5039 18.5587C39.5508 18.4964 38.9096 18.3096 38.5656 17.8425Z" fill="#B35800"/>
<path d="M30.1362 17.5L30.0736 18.9324C31.0745 18.2162 32.1849 19.2126 32.1849 19.2126L32.6228 17.8892C31.1371 16.6748 30.1362 17.3443 30.1362 17.5Z" fill="#9F0054"/>
<path d="M32.7009 17.8114C32.0128 17.2509 31.4029 17.064 30.9494 17.064C30.6679 17.064 30.4489 17.1263 30.2926 17.2041C30.2144 17.2509 30.1518 17.282 30.1049 17.3287C30.058 17.3754 30.0267 17.4221 30.0111 17.5L29.9485 18.9323L29.9329 19.1659L30.1205 19.0258C30.3708 18.8545 30.621 18.7922 30.8556 18.7922C31.184 18.7922 31.4967 18.9168 31.7313 19.0413C31.8408 19.1036 31.9346 19.1659 31.9972 19.2126L32.0754 19.2749L32.091 19.2904L32.2161 19.3994L32.2631 19.2437L32.7009 17.9203L32.7322 17.8425L32.7009 17.8114ZM32.1223 19.0413C31.9034 18.8856 31.4342 18.5742 30.8712 18.5742C30.6523 18.5742 30.4177 18.621 30.1987 18.7455L30.2456 17.5311C30.2456 17.5155 30.3238 17.4533 30.4333 17.391C30.5584 17.3287 30.7304 17.282 30.9494 17.282C31.3404 17.282 31.8721 17.4221 32.4976 17.9359L32.1223 19.0413Z" fill="#85003A"/>
<path d="M25.6947 12.6423C22.9579 12.6423 20.7528 14.8065 20.7528 17.4844C20.7528 20.1623 22.9735 22.3265 25.6947 22.3265C28.4315 22.3265 30.6366 20.1623 30.6366 17.4844C30.6522 14.8065 28.4315 12.6423 25.6947 12.6423Z" fill="#AC0061"/>
<path d="M26.4298 12.7045C28.7756 14.9932 27.5714 18.3562 26.0231 21.0497C25.6947 21.5635 25.3194 21.9683 24.9128 22.2797C25.163 22.3264 25.4289 22.342 25.6947 22.342C28.4315 22.342 30.6366 20.1778 30.6366 17.4999C30.6523 15.0555 28.8225 13.0471 26.4298 12.7045Z" fill="#920047"/>
<path d="M29.276 13.9813C28.3533 13.0783 27.1022 12.5333 25.6947 12.5333C24.3028 12.5333 23.0361 13.0938 22.1134 13.9813C21.1907 14.8843 20.6277 16.1143 20.6277 17.4844C20.6277 18.8545 21.1907 20.1 22.1134 20.9875C23.0361 21.8905 24.2872 22.4354 25.6947 22.4354C27.0866 22.4354 28.3533 21.8749 29.276 20.9875C30.1987 20.0845 30.7617 18.8545 30.7617 17.4844C30.7617 16.1143 30.1987 14.8843 29.276 13.9813ZM29.1196 20.8318C28.2438 21.6881 27.0396 22.2175 25.6947 22.2175C24.3654 22.2175 23.1455 21.6881 22.2698 20.8318C21.394 19.9755 20.8466 18.7922 20.8466 17.4844C20.8466 16.1766 21.394 14.9933 22.2698 14.137C23.1455 13.2807 24.3497 12.7513 25.6947 12.7513C27.024 12.7513 28.2438 13.2807 29.1196 14.137C29.9954 14.9933 30.5427 16.1766 30.5427 17.4844C30.5427 18.7922 29.9954 19.9755 29.1196 20.8318Z" fill="#85003A"/>
<path d="M29.7451 17.6089C29.7451 19.9131 28.0405 21.7815 25.9292 21.7815C23.818 21.7815 22.1133 19.9131 22.1133 17.6089C22.1133 16.9705 22.2385 16.3633 22.4887 15.8184C23.0986 14.4171 24.4123 13.4363 25.9449 13.4363C28.0248 13.4363 29.7451 15.3046 29.7451 17.6089Z" fill="#ED5BB0"/>
<path d="M23.1299 20.4425L25.3662 17.2353L27.6339 13.8878C27.4462 13.7944 27.2585 13.701 27.0709 13.6387L22.8015 20.0066C22.9109 20.1779 23.036 20.3491 23.1768 20.5048L25.3819 17.2508L23.1299 20.4425Z" fill="#FFB6FF"/>
<path d="M29.0571 15.2424L24.6 21.5168C24.8502 21.6102 25.1004 21.6881 25.3819 21.7348L29.4637 16.0675C29.3386 15.7717 29.2135 15.4915 29.0571 15.2424Z" fill="#FFB6FF"/>
<path d="M35.3439 16.1609C33.3578 16.1609 31.7469 17.8891 31.7469 20.0221C31.7469 22.1551 33.3578 23.8833 35.3439 23.8833C37.33 23.8833 38.9408 22.1551 38.9408 20.0221C38.9408 17.8891 37.33 16.1609 35.3439 16.1609Z" fill="#AC0061"/>
<path d="M38.9408 20.0221C38.9408 18.1227 37.6741 16.5502 35.985 16.2232C37.4238 18.5586 37.0954 21.2365 36.0945 23.7899C37.721 23.4318 38.9408 21.8749 38.9408 20.0221Z" fill="#920047"/>
<path d="M37.9713 17.2196C37.2988 16.5035 36.3761 16.0519 35.3439 16.0519C34.3118 16.0519 33.3891 16.5035 32.7166 17.2196C32.0441 17.9358 31.6375 18.9323 31.6375 20.0221C31.6375 21.112 32.0441 22.1084 32.7166 22.8246C33.3891 23.5408 34.3118 23.9923 35.3439 23.9923C36.3761 23.9923 37.2988 23.5408 37.9713 22.8246C38.6437 22.1084 39.0504 21.112 39.0504 20.0221C39.0504 18.9323 38.6437 17.9358 37.9713 17.2196ZM37.8149 22.6689C37.1893 23.354 36.3135 23.7588 35.3596 23.7588C34.4056 23.7588 33.5298 23.3384 32.9043 22.6689C32.2787 21.9839 31.8877 21.0497 31.8877 20.0066C31.8877 18.9634 32.2787 18.0293 32.9043 17.3442C33.5298 16.6591 34.4056 16.2543 35.3596 16.2543C36.3135 16.2543 37.1893 16.6747 37.8149 17.3442C38.4404 18.0293 38.8314 18.9634 38.8314 20.0066C38.8314 21.0653 38.4404 21.9994 37.8149 22.6689Z" fill="#85003A"/>
<path d="M38.284 20.1156C38.284 21.9528 37.0486 23.4319 35.516 23.4319C33.9833 23.4319 32.7479 21.9528 32.7479 20.1156C32.7479 18.2784 33.9833 16.7993 35.516 16.7993C37.0329 16.7837 38.284 18.2784 38.284 20.1156Z" fill="#ED5BB0"/>
<path d="M37.9556 18.543L33.8113 22.7312C33.9051 22.8246 34.0146 22.9024 34.1241 22.9803L38.2371 19.5862C38.1902 19.2125 38.0963 18.8544 37.9556 18.543Z" fill="#FFB6FF"/>
<path d="M37.2362 17.5154L33.1232 21.8126C33.1701 21.9216 33.2326 22.015 33.2952 22.1084L37.5177 17.8268C37.4395 17.7178 37.3457 17.6089 37.2362 17.5154Z" fill="#FFB6FF"/>
<path d="M15.2479 12.4399C15.2479 12.4399 9.83681 11.6615 10.087 12.5178C10.3373 13.3897 11.3694 17.2509 11.5415 17.2664C11.7291 17.282 15.8891 14.0903 15.8891 14.0903C15.8891 14.0903 16.1862 12.5022 15.2479 12.4399Z" fill="#FFDE00"/>
<path d="M15.3575 12.3621C15.3575 12.3621 10.7283 11.786 10.9473 12.4243C11.1662 13.0627 12.042 15.943 12.1984 15.9586C12.3548 15.9742 15.9205 13.592 15.9205 13.592C15.9205 13.592 16.155 12.4088 15.3575 12.3621Z" fill="#FFBB00"/>
<path d="M15.9204 12.8136C15.8109 12.5645 15.6076 12.3621 15.2636 12.3309C14.9821 12.3309 12.8552 12.004 11.4789 12.004C11.088 12.004 10.7283 12.0195 10.4624 12.0818C10.3373 12.113 10.2278 12.1441 10.134 12.2064C10.0402 12.2686 9.9776 12.3465 9.9776 12.471L9.99324 12.5645C10.1184 13.0004 10.4311 14.1837 10.7439 15.258C10.9003 15.8029 11.0567 16.3167 11.1818 16.6903C11.2444 16.8772 11.3069 17.0329 11.3538 17.1574C11.3851 17.2197 11.4007 17.2664 11.4164 17.2975L11.4477 17.3443C11.4633 17.3598 11.4789 17.391 11.5415 17.391H11.5571L11.6353 17.3754C11.7135 17.3443 11.8074 17.282 11.9637 17.173C12.9959 16.4724 15.9829 14.1992 15.9829 14.1992L16.0142 14.1681V14.1214C16.0142 14.1214 16.0611 13.8879 16.0611 13.592C16.0611 13.3429 16.0299 13.0471 15.9204 12.8136ZM15.8109 13.9346C15.8109 13.9813 15.7953 14.0124 15.7953 14.028C15.7171 14.0903 15.4981 14.2615 15.1854 14.4951C14.5911 14.9466 13.7153 15.6161 12.949 16.161C12.5737 16.4412 12.2296 16.6903 11.9637 16.8772C11.8386 16.9706 11.7292 17.0329 11.651 17.0951L11.5884 17.1263C11.5259 17.0173 11.432 16.7371 11.3225 16.379C10.9472 15.1957 10.3842 13.0938 10.1965 12.4866V12.4555C10.1965 12.4399 10.1965 12.4243 10.2591 12.3776C10.3373 12.3309 10.4937 12.2842 10.7126 12.2531C10.9316 12.2219 11.1974 12.2064 11.4789 12.2064C12.2296 12.2064 13.1836 12.2842 13.9342 12.3621C14.6849 12.4399 15.2479 12.5178 15.2479 12.5178C15.4981 12.5333 15.6233 12.6579 15.7171 12.8603C15.8109 13.0627 15.8422 13.3274 15.8422 13.5453C15.8266 13.7322 15.8266 13.8412 15.8109 13.9346Z" fill="#B35800"/>
<path d="M16.1237 11.677C16.1237 11.677 12.3547 9.48173 12.3547 10.3692C12.3547 11.2722 12.2765 15.3669 12.4173 15.3358C12.6675 15.258 16.2488 13.4363 16.2488 13.4363C16.2488 13.4363 16.7805 11.9884 16.1237 11.677Z" fill="#FFDE00"/>
<path d="M15.936 12.0818C15.936 12.0818 13.1367 10.6183 13.1367 11.2099C13.1367 11.8172 13.0898 14.5418 13.1836 14.5262C13.3713 14.4795 16.0299 13.2651 16.0299 13.2651C16.0299 13.2651 16.4208 12.2998 15.936 12.0818Z" fill="#FFBB00"/>
<path d="M16.4834 11.9106C16.4208 11.7704 16.327 11.6459 16.1706 11.568C16.1706 11.568 15.5138 11.1788 14.7631 10.8051C14.3878 10.6183 13.9812 10.4315 13.6058 10.2913C13.2305 10.1512 12.9021 10.0422 12.6519 10.0422C12.5424 10.0422 12.4486 10.0578 12.3704 10.1201C12.2922 10.1824 12.2453 10.2758 12.2453 10.3692C12.2453 10.8363 12.2296 12.1441 12.2296 13.2962C12.2296 13.8412 12.2296 14.3394 12.2453 14.713C12.2453 14.8999 12.2609 15.0556 12.2765 15.1646C12.2765 15.2268 12.2922 15.258 12.2922 15.3047L12.3078 15.367L12.3391 15.3981L12.4173 15.4292H12.4486C12.4955 15.4137 12.5737 15.3825 12.6988 15.3202C13.5589 14.9154 16.2957 13.5298 16.2957 13.5298L16.327 13.5142L16.3426 13.4675C16.3426 13.4675 16.5616 12.907 16.5616 12.3776C16.5616 12.2219 16.546 12.0663 16.4834 11.9106ZM16.2488 13.0783C16.2175 13.1717 16.2019 13.2651 16.1863 13.3118C16.1863 13.3274 16.1706 13.3429 16.1706 13.3585C15.983 13.4519 15.201 13.8412 14.3878 14.2615C13.9186 14.4951 13.4494 14.7286 13.0898 14.9154C12.9021 15.0089 12.7457 15.0867 12.6206 15.1334C12.5737 15.149 12.5424 15.1646 12.4955 15.1801C12.4955 15.149 12.4955 15.1023 12.4798 15.0556C12.4486 14.713 12.4486 14.028 12.4486 13.2962C12.4486 12.1441 12.4642 10.8207 12.4642 10.3692C12.4642 10.3225 12.4798 10.3069 12.4955 10.2913C12.5111 10.2758 12.558 10.2602 12.6362 10.2602C12.8239 10.2602 13.1523 10.3536 13.512 10.4937C14.0594 10.7117 14.7006 11.0231 15.201 11.2878C15.7014 11.5525 16.0611 11.7704 16.0611 11.7704C16.155 11.8171 16.2175 11.895 16.2645 12.004C16.3114 12.113 16.327 12.2375 16.327 12.3932C16.3426 12.6267 16.2957 12.8759 16.2488 13.0783Z" fill="#B35800"/>
<path d="M17.5156 12.5177C16.7023 12.5956 16.9369 14.3705 16.9369 14.3705C16.9369 14.3705 20.5964 17.9359 20.7528 17.9203C20.9092 17.9047 21.8163 13.5765 22.0352 12.6112C22.2541 11.6459 17.5156 12.5177 17.5156 12.5177Z" fill="#FFDE00"/>
<path d="M17.9222 12.5177C17.2966 12.5644 17.4843 13.7944 17.4843 13.7944C17.4843 13.7944 20.2367 16.2699 20.3618 16.2543C20.4869 16.2388 21.1594 13.2495 21.3315 12.58C21.5035 11.9105 17.9222 12.5177 17.9222 12.5177Z" fill="#FFBB00"/>
<path d="M15.0603 11.9728C14.9508 12.0351 15.8422 12.0974 16.0142 12.5645C15.6702 13.0938 14.9352 13.1561 14.9977 13.2184C14.9664 13.2028 15.6858 13.3118 16.1706 12.5956C15.8266 11.786 14.9821 12.0195 15.0603 11.9728Z" fill="#B35800"/>
<path d="M22.0195 12.2842C21.8944 12.1908 21.738 12.1285 21.5347 12.0974C21.3314 12.0662 21.0968 12.0507 20.831 12.0507C19.4704 12.0507 17.4999 12.4243 17.4999 12.4243C17.3435 12.4399 17.2184 12.5022 17.1246 12.5956C16.8431 12.8914 16.7961 13.4052 16.7961 13.81C16.7961 14.137 16.8274 14.3861 16.8274 14.3861V14.4172L16.8587 14.4483C16.8587 14.4483 17.7658 15.3358 18.7041 16.2232C19.1733 16.6748 19.6424 17.1107 20.0021 17.4377C20.1898 17.6089 20.3462 17.749 20.4556 17.8425C20.5182 17.8892 20.5651 17.9359 20.612 17.967L20.6746 17.9982C20.6902 18.0137 20.7059 18.0137 20.7528 18.0293H20.7684C20.831 18.0137 20.8466 17.9826 20.8623 17.967C20.8935 17.9359 20.8935 17.9047 20.9248 17.8425C21.0656 17.4844 21.3158 16.4101 21.566 15.3047C21.8162 14.1992 22.0508 13.0627 22.1603 12.6267L22.1759 12.5333C22.1603 12.4399 22.0977 12.3465 22.0195 12.2842ZM21.9257 12.58C21.8162 13.0627 21.5347 14.3861 21.2532 15.5849C21.1125 16.1921 20.9874 16.7526 20.8779 17.173C20.8153 17.3754 20.7684 17.5622 20.7371 17.6712C20.7215 17.7023 20.7215 17.7179 20.7059 17.749C20.659 17.7179 20.612 17.6712 20.5338 17.6089C20.096 17.2353 19.2045 16.3945 18.4382 15.6628C18.0473 15.2891 17.6876 14.9466 17.4373 14.6975C17.234 14.4951 17.0933 14.3705 17.0307 14.3082C17.0307 14.2771 17.0307 14.2459 17.0151 14.1837C16.9994 14.0902 16.9994 13.9501 16.9994 13.7944C16.9994 13.5453 17.0307 13.2339 17.1089 13.0004C17.1558 12.8914 17.2028 12.798 17.2653 12.7201C17.3279 12.6579 17.4061 12.6112 17.4999 12.6112C17.4999 12.6112 17.9847 12.5177 18.6415 12.4243C19.2984 12.3309 20.1272 12.2375 20.7841 12.2375C21.1281 12.2375 21.4253 12.2686 21.6286 12.3153C21.7224 12.3465 21.8006 12.3776 21.8475 12.4088C21.8944 12.4399 21.8944 12.471 21.8944 12.5022L21.9257 12.58Z" fill="#B35800"/>
<path d="M20.0491 10.2135C20.0491 9.20148 16.7492 11.6614 16.7492 11.6614C16.1706 12.004 16.6398 13.6387 16.6398 13.6387C16.6398 13.6387 19.7832 15.6628 20.0021 15.7562C20.1116 15.8029 20.0491 11.2099 20.0491 10.2135Z" fill="#FFDE00"/>
<path d="M19.1889 11.101C19.1889 10.4315 16.9056 12.0663 16.9056 12.0663C16.499 12.2998 16.8274 13.3741 16.8274 13.3741C16.8274 13.3741 18.9856 14.7286 19.142 14.7753C19.2202 14.822 19.1889 11.7704 19.1889 11.101Z" fill="#FFBB00"/>
<path d="M17.9691 11.9261C18.0785 11.9884 17.1871 12.0506 17.0151 12.5177C17.3591 13.0471 18.0942 13.1094 18.0473 13.1716C18.0785 13.1561 17.3435 13.2651 16.8587 12.5489C17.1871 11.7393 18.0473 11.9728 17.9691 11.9261Z" fill="#B35800"/>
<path d="M20.1585 10.2135C20.1585 10.1045 20.1273 10.0111 20.0491 9.94882C19.9709 9.88654 19.877 9.87097 19.7832 9.87097C19.5486 9.87097 19.2671 9.97996 18.9387 10.1512C17.9065 10.665 16.6085 11.6303 16.6711 11.5992C16.5303 11.677 16.4521 11.8171 16.4052 11.9728C16.3583 12.1285 16.3427 12.2998 16.3427 12.4866C16.3427 13.0627 16.5303 13.6855 16.5303 13.701L16.546 13.7477L16.5772 13.7633C16.5772 13.7633 17.3592 14.2771 18.1724 14.7909C18.579 15.0556 18.9856 15.3047 19.314 15.5071C19.4704 15.6161 19.6112 15.6939 19.7207 15.7562C19.8301 15.8185 19.8927 15.8652 19.9396 15.8807H19.9709C20.0178 15.8807 20.0491 15.8496 20.0647 15.834L20.096 15.7718C20.1116 15.7095 20.1116 15.6161 20.1273 15.4915C20.1429 15.0867 20.1585 14.3394 20.1585 13.5298C20.1742 12.2064 20.1585 10.7273 20.1585 10.2135ZM19.9396 15.0711C19.9396 15.2735 19.924 15.4448 19.924 15.5538C19.924 15.5694 19.924 15.5694 19.924 15.5849C19.9083 15.5694 19.877 15.5538 19.8458 15.5382C19.4704 15.3202 18.6885 14.822 18.0004 14.3705C17.4061 13.9813 16.8744 13.6543 16.7493 13.5609C16.7493 13.5453 16.7336 13.5298 16.7336 13.4986C16.6867 13.2962 16.5772 12.8603 16.5772 12.4555C16.5772 12.2842 16.5929 12.1285 16.6398 12.0195C16.6867 11.895 16.7336 11.8171 16.8275 11.7549C16.8275 11.7549 16.9682 11.6459 17.1872 11.4902C17.5312 11.2566 18.0473 10.8985 18.5634 10.6027C18.8136 10.4626 19.0638 10.3225 19.2828 10.2291C19.5017 10.1356 19.6894 10.0734 19.8145 10.0889C19.877 10.0889 19.9083 10.1045 19.924 10.1201C19.9396 10.1357 19.9552 10.1512 19.9552 10.2291C19.9552 10.7429 19.9709 12.2219 19.9709 13.5142C19.9552 14.1058 19.9552 14.6663 19.9396 15.0711Z" fill="#B35800"/>
<path d="M16.4521 11.0699C16.155 11.0699 15.9204 11.9106 15.9204 12.9538C15.9204 13.9969 16.155 14.8377 16.4521 14.8377C16.7493 14.8377 16.9839 13.9969 16.9839 12.9538C16.9682 11.9262 16.7336 11.0699 16.4521 11.0699Z" fill="#FFDE00"/>
<path d="M16.9369 11.5992C16.89 11.428 16.8275 11.2723 16.7493 11.1633C16.6711 11.0543 16.5772 10.9609 16.4365 10.9609C16.2957 10.9609 16.2019 11.0543 16.1237 11.1633C16.0142 11.3345 15.9361 11.5837 15.8735 11.895C15.8109 12.2064 15.7797 12.5801 15.7797 12.9693C15.7797 13.4987 15.8422 13.9813 15.9361 14.3394C15.983 14.5107 16.0455 14.6664 16.1237 14.7754C16.2019 14.8844 16.2957 14.9778 16.4365 14.9778C16.5772 14.9778 16.6711 14.8844 16.7493 14.7754C16.8587 14.6041 16.9369 14.355 16.9995 14.0436C17.062 13.7322 17.0933 13.3586 17.0933 12.9693C17.109 12.44 17.0464 11.9573 16.9369 11.5992ZM16.7024 14.2616C16.6554 14.4173 16.6085 14.5574 16.546 14.6352C16.4991 14.7131 16.4521 14.7287 16.4521 14.7287C16.4521 14.7287 16.4052 14.7131 16.3583 14.6352C16.2801 14.5107 16.2019 14.2927 16.1394 13.9969C16.0768 13.7011 16.0455 13.343 16.0455 12.9693C16.0455 12.4555 16.1081 11.9885 16.2019 11.6615C16.2488 11.5058 16.2957 11.3657 16.3583 11.2878C16.4052 11.21 16.4521 11.1944 16.4521 11.1944C16.4521 11.1944 16.4991 11.21 16.546 11.2878C16.6242 11.4124 16.7024 11.6304 16.7649 11.9262C16.8275 12.222 16.8587 12.5801 16.8587 12.9538C16.8431 13.4831 16.7962 13.9346 16.7024 14.2616Z" fill="#B35800"/>
<path d="M23.9588 14.931C25.163 14.8999 26.117 14.8221 26.117 14.7286C26.117 14.6508 25.163 14.5885 23.9588 14.6041C23.9432 13.4831 23.8806 12.6112 23.8024 12.6112C23.7242 12.6112 23.6617 13.4831 23.646 14.6197C22.4418 14.6508 21.4879 14.7286 21.4879 14.8221C21.4879 14.8999 22.4418 14.9622 23.646 14.9466C23.646 16.2077 23.7242 17.2353 23.8024 17.2353C23.8806 17.2353 23.9588 16.2077 23.9588 14.931Z" fill="white"/>
<path d="M39.1286 51.3478C38.5812 49.9309 51.0923 69.8753 51.1236 70.031C52.0619 75.0598 40.5986 55.1155 39.1286 51.3478Z" fill="#FBFBFB"/>
<path d="M37.596 23.1361C36.8766 22.3732 35.6411 21.8282 34.8122 21.6414C32.9668 21.2366 31.3717 21.9684 29.6201 21.657C31.2935 22.8558 34.3587 24.3038 35.9382 25.8607C36.9704 25.5026 38.9409 24.7241 37.596 23.1361Z" fill="#E0E1E0"/>
<path d="M37.596 23.1361C36.8766 22.3732 35.6411 21.8282 34.8122 21.6414C34.6246 21.5947 34.4526 21.5791 34.2649 21.548C34.2023 22.5444 33.3422 23.463 34.0147 24.1325C35.5004 25.3158 36.5794 24.3193 37.7993 23.4007C37.7524 23.3229 37.6742 23.2295 37.596 23.1361Z" fill="#1A1B1A"/>
<path d="M37.5959 23.136C36.8766 22.3731 35.6411 21.8282 34.8122 21.6414C34.7497 21.6258 34.7028 21.6258 34.6402 21.6102C35.5629 22.2953 36.5951 23.5253 36.2041 24.4906C36.7514 24.257 37.2675 23.8211 37.8149 23.4163C37.7523 23.3229 37.6741 23.2294 37.5959 23.136Z" fill="#272827"/>
<path d="M37.9087 23.354C37.8462 23.2606 37.768 23.1516 37.6898 23.0582C36.9391 22.2641 35.7037 21.7192 34.8435 21.5324C34.6559 21.4857 34.1711 21.548 34.1711 21.548C34.1554 21.8905 34.0303 22.2174 33.9052 22.56C33.7801 22.8869 33.6706 23.2139 33.655 23.5253C33.655 23.7744 33.7332 24.0079 33.9365 24.2259C34.4369 24.6307 34.9061 24.7864 35.3596 24.7864C36.2823 24.7864 37.0486 24.1013 37.8618 23.4941L37.94 23.4318L37.9087 23.354ZM35.3752 24.5684C34.9843 24.5684 34.5777 24.4283 34.0929 24.0546C33.9365 23.8834 33.8739 23.7121 33.8739 23.5253C33.8739 23.2917 33.9677 23.0115 34.1085 22.6222C34.218 22.3264 34.3274 22.015 34.3744 21.6725C34.5151 21.6881 34.6559 21.7036 34.7966 21.7348C35.6098 21.9061 36.8297 22.451 37.5178 23.1827C37.5803 23.245 37.6116 23.3073 37.6585 23.3696C36.8609 23.9923 36.1415 24.5684 35.3752 24.5684Z" fill="#272827"/>
<path d="M33.232 21.657C34.8741 21.657 36.4693 21.8749 37.6735 23.245C38.0175 23.6654 38.1113 24.0391 38.2834 24.4439C38.2521 24.2726 38.4241 23.7433 37.9862 23.2762C37.8611 23.1361 37.2981 22.4821 36.6413 22.1085C35.5466 21.4857 34.3736 21.439 33.232 21.439C32.4344 21.439 31.4023 21.4234 30.6516 21.5324C30.0729 21.6103 29.6507 21.9217 29.6507 21.9217C29.6507 21.9217 32.4344 21.657 33.232 21.657Z" fill="#272827"/>
<path d="M25.9293 42.0528C25.9293 42.1462 25.9293 42.2396 25.9449 42.3486C25.9449 42.3486 23.3488 45.587 21.2845 46.1008C19.2045 46.6146 13.3556 47.2841 12.4798 46.7703C12.4798 46.7703 11.8855 43.2361 11.6666 43.2361C11.4476 43.2361 11.0723 42.5666 10.2591 43.9678C9.44586 45.3691 8.55444 46.9883 8.55444 46.9883L10.8534 48.7632L9.30511 51.0519L10.9316 52.3753C10.9316 52.3753 9.44586 55.2556 9.22692 56.5012C9.00797 57.7467 10.2591 59.0857 10.2591 59.0857L9.44586 61.966C9.44586 61.966 10.8534 63.1493 11.5258 64.6906C12.1983 66.232 13.6058 63.5852 15.2323 61.5923C16.8587 59.5995 23.2237 56.2832 24.9284 53.3406C26.1638 51.2076 27.7747 47.7667 28.5722 46.023C28.2751 44.3259 27.4619 43.0648 25.9293 42.0528Z" fill="#B90D6E"/>
<path d="M25.9293 42.0528C25.9293 42.1462 25.9293 42.2396 25.945 42.3486C25.945 42.3486 23.3489 45.587 21.2846 46.1008C20.7685 46.2254 20.0334 46.3655 19.1889 46.4901C16.5147 48.0159 13.5277 49.0434 10.4937 49.2925L9.30516 51.0519L10.6345 52.1262C10.5876 52.0795 10.5406 52.0483 10.4937 52.0016C10.5406 52.0483 10.5876 52.0795 10.6345 52.1262L10.8847 52.3286C12.6362 53.5741 12.8552 55.0532 9.28952 56.2209C9.25824 56.3143 9.24261 56.4077 9.22697 56.5012C9.0393 57.5754 9.93072 58.6964 10.1966 58.9923C12.7926 59.2258 14.2001 57.9647 16.718 55.5359C15.8891 59.2414 13.4026 61.748 11.7448 65.002C12.4642 65.7182 13.7622 63.3828 15.2323 61.5768C15.8579 60.7983 25.3038 50.4758 28.0093 44.2481C27.5401 43.4073 26.8833 42.6911 25.9293 42.0528Z" fill="#AC0061"/>
<path d="M28.6661 45.9919C28.369 44.2792 27.5401 42.987 25.9919 41.9594L25.8199 41.8504V42.0528V42.1151C25.8199 42.1774 25.8199 42.2396 25.8355 42.3175C25.7886 42.3798 25.6478 42.551 25.4289 42.8001C25.0223 43.2672 24.3498 43.9834 23.5991 44.6218C22.8485 45.2601 22.004 45.8362 21.2533 46.0074C19.7207 46.3811 16.0925 46.8482 13.9812 46.8482C13.6215 46.8482 13.3087 46.8326 13.0585 46.8015C12.8396 46.7703 12.6832 46.7392 12.5737 46.6925C12.5424 46.4901 12.4173 45.7427 12.2609 44.9798C12.1671 44.5439 12.0733 44.0924 11.9951 43.7499C11.9481 43.5786 11.9169 43.4385 11.87 43.3451C11.8543 43.2984 11.823 43.2516 11.8074 43.2205L11.7605 43.1738C11.7448 43.1582 11.7136 43.1427 11.6666 43.1427L11.6197 43.1271C11.5415 43.096 11.4008 42.987 11.1975 42.987C11.0567 42.987 10.9003 43.0492 10.7283 43.1894C10.5563 43.3295 10.3686 43.563 10.1653 43.9367C9.35209 45.3379 8.46067 46.9572 8.46067 46.9572L8.41376 47.035L8.49195 47.0973L10.7127 48.8099L9.21134 51.0052L9.14879 51.083L9.22698 51.1453L10.7909 52.422C10.6814 52.6244 10.3843 53.2316 10.0558 53.9478C9.64923 54.8353 9.22698 55.8628 9.11751 56.5012C9.10187 56.6102 9.08623 56.7191 9.08623 56.8281C9.08623 57.4353 9.36773 58.027 9.63359 58.4629C9.8369 58.7899 10.0558 59.039 10.134 59.1324L9.33645 61.9505L9.32081 62.0127L9.36773 62.0594L9.43029 62.1061C9.69615 62.3397 10.8378 63.414 11.4164 64.7374C11.4946 64.9086 11.5728 65.0332 11.6823 65.1266C11.7918 65.22 11.9012 65.2667 12.042 65.2667C12.2766 65.2667 12.5111 65.1266 12.7457 64.9086C13.4651 64.2547 14.3565 62.8379 15.3105 61.6702C16.1081 60.7049 18.1099 59.3659 20.1117 57.918C22.1291 56.47 24.1465 54.8975 25.0223 53.4029C26.2577 51.2699 27.8686 47.829 28.6818 46.0853L28.6974 46.0541L28.6661 45.9919ZM24.819 53.2783C23.9901 54.7263 21.9727 56.2832 19.9709 57.7312C17.9691 59.1791 15.9673 60.5025 15.1228 61.5145C14.4817 62.3085 13.8717 63.196 13.3244 63.8811C13.0585 64.2236 12.8083 64.5194 12.5737 64.7218C12.3548 64.9242 12.1515 65.0332 12.0107 65.0332C11.9325 65.0332 11.87 65.0176 11.8074 64.9553C11.7448 64.8931 11.6666 64.7996 11.6041 64.644C10.9942 63.2427 9.82126 62.1529 9.5554 61.9193L10.353 59.1168L10.3686 59.0545L10.3217 59.0078L10.2748 58.9611C10.0715 58.7432 9.2739 57.7623 9.28954 56.8126C9.28954 56.7191 9.30517 56.6257 9.32081 56.5323C9.43029 55.9251 9.85254 54.8975 10.2435 54.0256C10.4468 53.5897 10.6345 53.1849 10.7752 52.9046C10.916 52.6088 11.0098 52.4376 11.0098 52.4376L11.0567 52.3597L10.9942 52.2974L9.44593 51.0363L10.9473 48.8411L11.0098 48.7476L10.9316 48.6854L8.7109 46.9727C8.78909 46.8326 8.97676 46.4901 9.21134 46.0697C9.53976 45.4936 9.96201 44.7307 10.3686 44.0301C10.5719 43.672 10.744 43.4696 10.8847 43.3451C11.0255 43.2205 11.1349 43.1894 11.2131 43.1894C11.2913 43.1894 11.3539 43.2205 11.4321 43.2516C11.4946 43.2828 11.5572 43.3139 11.6197 43.3295C11.6354 43.3451 11.6666 43.4229 11.6979 43.5319C11.823 43.9211 11.9951 44.7463 12.1358 45.4625C12.2766 46.1787 12.3704 46.7859 12.3704 46.7859L12.386 46.8326L12.433 46.8637C12.5737 46.9416 12.777 46.9883 13.0429 47.0194C13.3087 47.0506 13.6372 47.0661 13.9968 47.0661C16.1394 47.0661 19.7676 46.5991 21.3315 46.2098C22.4106 45.9451 23.5835 44.9954 24.4905 44.108C25.3976 43.2205 26.0544 42.4109 26.0544 42.4109L26.0857 42.3798V42.3331C26.0857 42.3175 26.0857 42.3019 26.0857 42.2863C27.4463 43.2516 28.197 44.4349 28.4785 46.0074C27.634 47.7512 26.0388 51.1609 24.819 53.2783Z" fill="#6B0020"/>
<path d="M29.1353 40.0911C28.7756 40.4804 28.5254 40.745 28.4628 40.7917C28.2439 41.0097 26.9146 40.6516 26.9146 40.6516C26.9146 40.6516 25.9606 40.9007 25.9449 42.0529C27.4619 43.0649 28.2751 44.326 28.5723 46.0075C28.8851 45.338 29.0727 44.9176 29.0727 44.9176C29.0727 44.9176 29.1666 43.4541 29.9016 42.302C29.5106 41.6014 29.1353 40.9319 29.1353 40.0911Z" fill="#B90D6E"/>
<path d="M29.1666 42.769C29.0571 42.1618 28.8538 41.6013 28.6817 41.2432C28.6817 41.7103 28.713 42.0529 28.713 42.4109C28.3533 41.6948 27.9624 41.29 27.6027 40.8073C27.243 40.745 26.8989 40.6516 26.8989 40.6516C26.8989 40.6516 26.7894 40.6827 26.6487 40.7606C27.806 42.2708 29.1666 43.8122 28.5254 45.9296C28.5254 45.9608 28.541 45.9763 28.541 46.0075C29.276 44.7619 29.2604 43.314 29.1666 42.769Z" fill="#AC0061"/>
<path d="M28.6817 41.2432C28.5566 40.9629 28.4628 40.7917 28.4628 40.8073C28.3533 40.9162 27.9624 40.8851 27.6027 40.8228C27.9624 41.3055 28.5566 42.3642 28.9163 43.0804C28.9163 42.7067 28.9163 41.7414 28.6817 41.2432Z" fill="#9F0054"/>
<path d="M29.9798 42.2552C29.6044 41.5391 29.2604 40.9007 29.2447 40.0911V39.8109L29.0571 40.0133C28.713 40.3869 28.4472 40.6672 28.3846 40.7139C28.3846 40.7294 28.2908 40.7606 28.1657 40.745C27.9467 40.745 27.6339 40.6983 27.3837 40.636C27.1335 40.5893 26.9458 40.527 26.9302 40.527L26.8989 40.5115L26.8676 40.527C26.852 40.527 26.6018 40.6049 26.3515 40.8229C26.0857 41.0408 25.8355 41.4301 25.8198 42.0373V42.0995L25.8667 42.1307C27.3681 43.1271 28.15 44.3571 28.4472 46.023L28.5097 46.3811L28.6661 46.0542C28.9789 45.3847 29.1666 44.9643 29.1666 44.9643V44.9487V44.9332C29.1666 44.9332 29.1666 44.8398 29.1978 44.6996C29.2604 44.2481 29.4481 43.205 29.9798 42.3798L30.0111 42.3331L29.9798 42.2552ZM28.9476 44.902C28.9163 44.9643 28.7912 45.2446 28.6036 45.6649C28.2595 44.1391 27.4619 42.9559 26.0544 42.0061C26.0857 41.4923 26.289 41.1965 26.5079 41.0097C26.6174 40.9163 26.7269 40.854 26.8051 40.8073C26.852 40.7917 26.8833 40.7762 26.8989 40.7606C27.0397 40.8073 27.7121 40.9786 28.15 40.9786C28.3064 40.9786 28.4315 40.963 28.5254 40.8696C28.5723 40.8229 28.7599 40.6205 29.0258 40.3402C29.0884 41.072 29.4168 41.6792 29.7452 42.2864C29.0884 43.4074 28.9632 44.7152 28.9476 44.902Z" fill="#6B0020"/>
<path d="M44.3832 32.0262C41.3649 34.5484 40.4109 35.0311 39.2067 34.9065C38.9409 34.8754 33.5767 34.237 32.4663 36.0119C31.6688 37.2886 30.0579 39.0947 29.1353 40.0911C29.1509 40.9319 29.5106 41.6013 29.8859 42.3175L29.9485 42.2241C31.2309 44.3571 34.2648 46.5057 36.8609 45.4937C36.7983 45.4158 36.767 45.3847 36.767 45.3847C36.767 45.3847 40.7706 44.7931 40.6924 42.5822C40.6611 41.7103 42.6942 39.2504 43.3979 37.3509C44.4614 34.4394 44.3832 32.0262 44.3832 32.0262Z" fill="#AC0061"/>
<path d="M39.2067 34.9066C38.9409 34.8755 33.5767 34.2371 32.4663 36.012C31.6688 37.2887 30.0579 39.0948 29.1353 40.0912C29.1353 40.3559 29.4637 41.4613 29.5262 41.6948C29.9641 40.5583 30.6209 39.5463 31.4185 38.8145C33.7175 36.7282 36.986 35.4048 38.6906 35.3581C37.0329 37.9893 34.6714 41.1966 31.6688 41.835C33.8426 42.1619 36.1102 42.9248 38.0338 41.835C41.3805 40.169 42.7567 36.1366 44.0235 32.3376C41.2867 34.5952 40.3484 35.0311 39.2067 34.9066Z" fill="#B90D6E"/>
<path d="M44.4927 32.0262V31.7927L44.3207 31.9328C42.9601 33.0694 42.0218 33.8011 41.2867 34.2215C40.5517 34.6574 40.0512 34.7975 39.5508 34.7975C39.4413 34.7975 39.3319 34.7975 39.2224 34.782C39.1129 34.7664 38.0651 34.6419 36.8296 34.6419C35.9851 34.6419 35.0468 34.7041 34.2336 34.8754C33.4203 35.0622 32.7166 35.3736 32.3725 35.9185C31.575 37.1797 29.9642 39.0013 29.0571 39.9821L29.0258 40.0133V40.06C29.0415 40.9319 29.4168 41.6169 29.7921 42.3331L29.886 42.5044L29.9485 42.3954C31.0589 44.1236 33.2483 45.8207 35.4534 45.8207C35.9382 45.8207 36.423 45.7428 36.9078 45.556L37.0486 45.4937L36.986 45.4159C37.3144 45.3536 38.0495 45.1979 38.7845 44.8865C39.2849 44.6685 39.7854 44.3883 40.1607 44.0302C40.5361 43.6565 40.8019 43.1894 40.8019 42.6134V42.5511V42.5355C40.8019 42.3487 40.9114 42.0373 41.1147 41.6636C41.709 40.5271 42.9601 38.7989 43.5074 37.3665C44.0079 36.012 44.5083 33.8634 44.5083 32.1196C44.4927 32.0573 44.4927 32.0262 44.4927 32.0262ZM43.2729 37.3042C42.9288 38.2384 42.2563 39.3127 41.6621 40.2624C41.3649 40.745 41.0991 41.181 40.8957 41.5702C40.6924 41.9595 40.5673 42.2864 40.5673 42.5511V42.5667V42.6289C40.5673 43.1272 40.3484 43.5475 39.9887 43.8901C39.457 44.4038 38.6437 44.7619 37.9556 44.9643C37.6116 45.0733 37.3144 45.1512 37.0799 45.1979C36.8609 45.2446 36.7202 45.2602 36.7202 45.2602L36.5169 45.2913L36.642 45.4314C36.2354 45.5715 35.8287 45.6338 35.4221 45.6338C33.2796 45.6338 31.0432 43.8901 30.0111 42.1619L29.9172 42.0062L29.8703 42.084C29.5419 41.4457 29.2448 40.854 29.2291 40.1223C30.1518 39.1258 31.7313 37.3354 32.5446 36.0587C32.8417 35.5916 33.4829 35.2802 34.2649 35.1089C35.0468 34.9221 35.9695 34.8754 36.7984 34.8754C38.0338 34.8754 39.0504 35 39.1755 35.0155C39.3006 35.0311 39.4101 35.0311 39.5195 35.0311C40.0825 35.0311 40.6299 34.8754 41.3806 34.4239C42.0999 34.0035 42.9914 33.3185 44.2581 32.2597C44.2581 32.9292 44.1486 34.9532 43.2729 37.3042Z" fill="#6B0020"/>
<path d="M40.9113 53.4029C40.7706 50.3201 40.8175 44.6996 30.0267 41.8348C29.2447 42.987 29.0258 44.2637 29.0101 45.5092C29.1822 47.0817 29.8546 50.6782 31.2152 50.8962C32.9981 51.192 39.1441 54.7263 40.3171 56.9371C41.49 59.148 41.0521 56.797 40.9113 53.4029Z" fill="#AC0061"/>
<path d="M40.9113 53.4029C40.7862 50.4136 40.2701 44.9487 30.4645 41.9905C32.4037 44.8397 31.7938 45.5871 37.5176 48.8411C39.8009 49.9465 40.4578 54.3682 40.4578 56.1431C36.8452 50.4447 32.0753 49.4483 30.9649 47.6266C30.2456 46.9105 29.5731 44.6685 29.2916 43.7499C29.2916 43.8744 28.9944 45.3535 28.9944 45.4936C29.1665 47.0662 29.8389 50.6627 31.1995 50.8806C32.9824 51.1765 39.1285 54.7107 40.3014 56.9216C41.4899 59.148 41.052 56.797 40.9113 53.4029Z" fill="#B90D6E"/>
<path d="M41.0208 53.4029C40.9583 51.8615 40.927 49.6662 39.5508 47.4865C38.1745 45.3068 35.4534 43.1738 30.0423 41.7258L29.9641 41.7103L29.9172 41.7725C29.1196 42.9558 28.9006 44.2481 28.885 45.5092C28.9788 46.3032 29.1821 47.5955 29.5418 48.732C29.7295 49.2925 29.9328 49.8219 30.1987 50.2267C30.4645 50.6315 30.7773 50.9273 31.1683 50.9896C32.0128 51.1297 34.0146 52.0795 35.9069 53.2783C37.7992 54.4616 39.6289 55.9095 40.1919 56.9838C40.3483 57.2796 40.4891 57.4976 40.5986 57.6533C40.6611 57.7311 40.708 57.7778 40.755 57.8245C40.8019 57.8713 40.8644 57.9024 40.927 57.9024C41.0052 57.9024 41.0677 57.8557 41.099 57.809C41.1459 57.7311 41.1616 57.6533 41.1772 57.5287C41.1928 57.4197 41.1928 57.2796 41.1928 57.1239C41.2241 56.361 41.0834 54.9909 41.0208 53.4029ZM40.9583 57.6066C40.9426 57.6533 40.9426 57.6689 40.927 57.6844C40.8957 57.6689 40.8331 57.6066 40.7706 57.4976C40.6768 57.3575 40.5516 57.1551 40.4109 56.8904C39.7853 55.7383 37.9556 54.3059 36.0476 53.107C34.124 51.9082 32.1535 50.9429 31.2308 50.7872C30.9337 50.7405 30.6678 50.507 30.4176 50.1177C29.667 48.9812 29.2603 46.6769 29.1352 45.4936C29.1509 44.2948 29.3698 43.0648 30.0892 41.9438C35.4064 43.3762 38.0494 45.4781 39.3787 47.5799C40.7237 49.6973 40.7393 51.8459 40.8019 53.3873C40.8644 54.9909 41.0052 56.361 41.0052 57.1239C41.0052 57.3419 40.9895 57.5132 40.9583 57.6066Z" fill="#6B0020"/>
<path d="M35.2188 27.3865C35.2188 27.3865 34.9686 27.1218 34.1867 26.3434L34.1398 26.2967L34.0928 26.3122C34.0928 26.3122 33.9052 26.3589 33.5924 26.4212C32.6384 26.6236 30.5272 27.0128 28.9476 27.0128C28.4941 27.0128 28.1031 26.9817 27.7747 26.9039C27.4463 26.826 27.2274 26.717 27.1023 26.5613C26.6331 25.9541 26.3985 25.4715 26.2578 25.1445C26.1952 24.9733 26.1639 24.8487 26.1326 24.7553C26.117 24.7086 26.117 24.6774 26.117 24.6619V24.6307L26.1014 24.4595L25.945 24.5529C25.945 24.5529 24.8972 25.1601 24.428 25.5649C24.3811 25.6116 24.3811 25.6739 24.4124 25.7206C24.4593 25.7673 24.5218 25.7673 24.5688 25.7362C24.7877 25.5493 25.1474 25.3002 25.4758 25.0978C25.6635 24.9888 25.8042 24.8954 25.9137 24.8331C25.9763 25.129 26.1952 25.7984 26.9146 26.717C27.0866 26.935 27.3681 27.0596 27.7122 27.1374C28.0562 27.2152 28.4785 27.2464 28.932 27.2464C30.9181 27.2464 33.655 26.6392 34.0772 26.5458C34.4369 26.9039 34.6871 27.153 34.8435 27.3087C34.9999 27.4644 35.0625 27.5422 35.0625 27.5422C35.1094 27.5889 35.1719 27.5889 35.2188 27.5422C35.2658 27.4955 35.2658 27.4332 35.2188 27.3865Z" fill="#272827"/>
<path d="M16.155 22.1396C16.0299 21.7037 15.983 21.33 15.983 21.003C15.983 20.1934 16.2801 19.6641 16.6085 19.3216C16.7649 19.1503 16.9369 19.0102 17.0777 18.9167C17.2184 18.8233 17.3435 18.6521 17.4061 18.5742C17.453 18.5275 17.0933 18.6365 16.9526 18.7299C16.5147 19.0257 15.764 19.7108 15.764 21.003C15.764 21.3611 15.8109 21.7504 15.9517 22.2019C16.5147 24.1636 17.7971 29.068 17.7971 32.5399C17.7971 33.6298 17.672 34.5795 17.3592 35.249C16.7023 36.6658 15.201 38.503 13.8717 39.9821C13.1992 40.7294 12.5893 41.3678 12.1201 41.8348C11.6666 42.3019 11.3695 42.5822 11.3695 42.5822C11.3226 42.6289 11.3226 42.6912 11.3695 42.7379C11.4164 42.7846 11.4789 42.7846 11.5259 42.7379C11.5259 42.7379 12.6988 41.6169 14.0281 40.1222C15.3574 38.6276 16.8744 36.7904 17.5468 35.3269C17.8753 34.6107 18.0004 33.6298 18.0004 32.5244C18.016 29.0057 16.718 24.1013 16.155 22.1396Z" fill="#272827"/>
<path d="M37.5646 71.0274L32.4194 65.5002C32.5289 68.9722 33.7957 78.8432 33.7957 78.8432L37.5646 71.0274Z" fill="#C6C7C6"/>
<path d="M14.638 52.967C12.8395 54.3215 12.4329 55.4425 13.0272 55.3646C16.499 54.9443 20.0803 50.6938 20.0803 50.6938C20.0803 50.6938 14.6849 54.3526 14.638 52.967Z" fill="#9F0054"/>
<path d="M14.1688 52.967C14.1532 53.0293 14.1532 53.0915 14.1532 53.1382C14.2001 53.0915 14.2158 53.0604 14.2158 53.0604L14.1688 52.967Z" fill="#930000"/>
<path d="M22.1917 59.4438C22.1291 59.4594 22.1917 60.2223 22.3481 61.3744C22.8016 64.7997 23.7086 72.5376 23.7086 79.7618C23.7086 85.1644 23.1926 90.2867 21.6287 93.0425C21.5036 93.1203 21.0031 93.4161 20.487 93.8521C19.9084 94.3659 19.2985 95.0665 19.2985 95.8917C19.2985 96.2031 19.3923 96.5144 19.5956 96.8258C19.6269 96.8725 19.7051 96.8881 19.752 96.857C19.7989 96.8258 19.8145 96.7635 19.7833 96.7013C19.5956 96.421 19.533 96.1563 19.533 95.8917C19.533 95.191 20.0804 94.506 20.6434 94.0233C20.9249 93.7742 21.2064 93.5718 21.4254 93.4317C21.5348 93.3694 21.6287 93.3071 21.6756 93.276C21.7381 93.2449 21.7694 93.2137 21.7694 93.2137L21.8163 93.167C23.4428 90.3334 23.9432 85.1955 23.9432 79.7618C23.9276 70.1088 22.2542 59.4282 22.1917 59.4438Z" fill="#272827"/>
<path d="M23.0987 70.0154C23.1456 70.1244 22.5669 68.91 21.9727 68.3339C21.0812 67.4776 19.8614 66.5279 18.751 65.7494C17.6407 64.9709 16.6554 64.3793 16.2175 64.1925C15.936 64.0835 15.7797 63.8811 15.6702 63.6164C15.5607 63.3517 15.5294 63.0559 15.5294 62.7757C15.5294 62.5577 15.5451 61.9972 15.5294 61.8259C15.5294 61.7637 15.3105 62.293 15.3105 62.7757C15.3105 63.0715 15.3418 63.3984 15.4669 63.6943C15.592 63.9901 15.7953 64.2548 16.1393 64.3949C16.4052 64.5039 16.9369 64.7997 17.5781 65.2201C18.5477 65.8428 19.7989 66.7303 20.8467 67.6177C21.8945 68.5052 23.0674 69.9687 23.0987 70.0154Z" fill="#272827"/>
<path d="M41.7246 69.0968C40.2389 69.0968 38.7063 69.5327 37.2831 70.716C35.8756 71.8682 34.5776 73.7365 33.5142 76.5701C33.436 69.8597 32.7948 64.8464 32.1379 61.4055C31.7939 59.5684 31.4498 58.1827 31.184 57.2174C31.0589 56.7347 30.9337 56.3611 30.8556 56.0808C30.7774 55.8161 30.6992 55.6293 30.6053 55.4892C30.5741 55.4425 30.5584 55.8628 30.6522 56.1431C31.2152 58.0426 33.3109 64.9865 33.3109 77.8624C33.3109 83.0158 32.9824 89.1034 32.0754 96.2186C32.0754 96.2809 32.1067 96.3276 32.1692 96.3432C32.2318 96.3588 32.2787 96.312 32.2943 96.2498C32.5289 94.4126 32.7166 92.6532 32.8886 90.9562C32.8886 90.9562 32.9199 90.9562 32.9668 90.9562C33.1545 90.9562 33.5611 91.0185 34.0146 91.2209C34.4525 91.4233 34.9373 91.7502 35.2814 92.2484L35.3752 92.2952C35.3752 92.2952 35.5941 92.2952 35.9851 92.2952C36.9235 92.2952 38.8001 92.4508 40.8019 92.591C42.9288 92.7467 46.3694 94.0545 46.3224 94.0078C45.9627 93.7742 45.5561 93.5718 45.1182 93.385C43.8515 92.8712 42.3032 92.5598 40.8175 92.3574C38.8158 92.0928 36.9234 92.0616 35.9695 92.0616C35.688 92.0616 35.5003 92.0616 35.4065 92.0616C35.0311 91.5478 34.5463 91.2053 34.0928 91.0029C33.6236 90.8005 33.2014 90.7226 32.9668 90.7226C32.9355 90.7226 32.9199 90.7226 32.9043 90.7382C33.3421 86.0207 33.5298 81.7391 33.5298 77.8779C33.5298 77.5043 33.5454 76.8036 33.5454 76.8036C33.608 76.8192 35.4534 72.4131 37.4395 70.8873C38.8627 69.7974 40.3015 69.3303 41.7402 69.3303C43.9297 69.3303 46.0722 70.3268 47.6517 71.3232C48.4337 71.8214 49.0905 72.3197 49.544 72.6933C49.7786 72.8802 49.9507 73.0358 50.0758 73.1448C50.2009 73.2538 50.3573 73.3005 50.4198 73.3161C50.6231 73.3784 46.2442 69.0968 41.7246 69.0968Z" fill="#272827"/>
<path d="M38.3778 35.4514C38.3778 35.4514 36.0164 38.9389 35.297 39.4527C34.5776 39.9821 32.0128 41.8504 30.1674 41.6636C29.6357 41.6013 29.7295 41.5857 29.7295 41.5857L38.3778 35.4514Z" fill="#9F0054"/>
<path d="M19.0012 49.4639C16.0299 51.2076 10.9472 51.0519 10.9472 51.0519C10.9472 51.0519 12.0419 51.846 15.1541 51.5657C18.36 51.2855 22.8484 48.0315 22.8484 48.0315L22.3011 51.5813L26.2733 44.5284C26.2733 44.5284 21.4096 47.9069 19.0012 49.4639Z" fill="#9F0054"/>
<path d="M30.0267 43.3763C30.0423 43.4853 30.9494 47.5333 32.7635 48.2806C34.5776 49.0124 36.6576 50.0088 37.6428 51.4101C38.6437 52.8113 39.5352 54.0257 39.5352 54.0257C39.5352 54.0257 38.7532 51.4879 38.0964 50.7095C37.4239 49.931 33.8426 47.6112 32.8417 46.8015C31.8408 45.9919 30.5115 42.629 30.5115 42.629C30.5115 42.629 29.6514 41.3523 30.0267 43.3763Z" fill="#9F0054"/>
<path d="M24.6938 61.0007C24.6938 61.0007 28.3221 77.2863 23.2081 93.9455C23.2081 93.9455 26.9146 87.7489 27.7434 80.3067C28.7287 71.4633 27.9154 66.4189 24.6938 61.0007Z" fill="#FBFBFB"/>
<path d="M8.28861 35.4981C8.22605 35.4826 7.17825 40.2157 5.44233 41.1187C4.87933 41.4145 4.45708 41.6948 4.11302 41.8037C3.94099 41.8504 3.78461 41.8972 3.67513 41.9283C3.61258 41.9439 3.5813 41.9594 3.53438 41.975C3.50311 41.9906 3.26852 41.975 3.23724 42.0528C3.22161 42.1151 3.42491 42.193 3.48747 42.2085C3.53438 42.2241 3.56566 42.2085 3.59694 42.1774C3.61258 42.1618 3.70641 42.1463 3.83152 42.1151C4.05047 42.0528 5.63 41.5391 6.3963 40.745C7.75689 39.3593 8.36681 35.5137 8.28861 35.4981Z" fill="#272827"/>
<path d="M28.6349 2.72463C27.5558 1.60364 26.4767 1.24554 26.4767 1.24554C26.4142 1.22998 26.3516 1.26111 26.336 1.32339C26.3203 1.38567 26.3516 1.44795 26.4142 1.46352L26.4611 1.47909C26.68 1.55693 27.7122 1.99287 28.6818 3.0983C29.6514 4.21929 30.5741 6.00977 30.5741 8.87453C30.5741 9.82426 30.1206 12.7046 30.1675 12.7046C30.23 12.7202 30.793 9.83983 30.793 8.87453C30.793 5.76066 29.714 3.84563 28.6349 2.72463Z" fill="#272827"/>
<path d="M34.8278 0.809601C34.8122 0.747323 34.7496 0.716185 34.6871 0.747323C34.6245 0.762893 34.5932 0.82517 34.6245 0.887447C34.6245 0.887447 34.6714 1.02757 34.7496 1.27668C34.9686 2.02401 35.4064 3.79892 35.4064 5.77623C35.4064 7.13076 35.2031 8.57871 34.5932 9.88654C33.9833 11.1944 32.9668 12.3776 31.3403 13.2028C31.2778 13.2339 32.3725 12.8603 32.9668 12.3932C33.8269 11.7237 34.3743 10.8674 34.7809 9.97995C35.4064 8.62542 35.6098 7.14633 35.6098 5.77623C35.6254 3.08273 34.8278 0.809601 34.8278 0.809601Z" fill="#272827"/>
<path d="M39.3944 3.8923C39.3788 3.83002 38.9878 3.64319 39.0191 3.70547L39.2068 4.00128C39.2537 4.14141 39.457 4.76418 39.457 5.69834C39.457 7.53553 38.6907 10.7272 34.4369 13.6543C34.39 13.6854 35.688 12.8602 36.1572 12.4554C39.0817 9.8865 39.6916 7.3487 39.6916 5.69834C39.6759 4.59292 39.3944 3.90787 39.3944 3.8923Z" fill="#272827"/>
<path d="M10.4781 15.0712C10.4781 15.0712 4.92627 16.9551 4.70732 20.0534C4.48838 23.1517 7.70999 27.9003 6.49016 30.8896C5.27032 33.8789 0.828871 35.8718 1.26676 37.6312C1.70465 39.4061 2.94012 40.4025 2.94012 39.951C2.94012 39.5151 2.50223 37.4132 4.83243 35.3113C7.16263 33.2095 9.16441 30.5627 8.16352 26.7949C7.14699 23.0271 5.14521 19.3839 10.4781 15.0712Z" fill="#FBFBFB"/>
<path d="M26.3829 44.5128C26.2108 44.5283 26.1483 44.5283 25.9762 44.5906C24.7408 45.2601 23.474 46.1475 22.2385 47.1907C17.4687 51.5345 11.6197 50.9118 11.651 51.192C11.823 51.0986 17.6094 51.7992 22.4418 47.4242C23.6304 46.4278 24.8346 45.5715 25.9919 44.9176L25.4914 45.6493C25.1474 46.1631 24.819 46.6458 24.5375 47.0817C23.3802 48.841 22.7859 50.0087 22.8172 50.0243C22.8485 50.0399 23.5053 48.9345 24.7251 47.2063C25.0223 46.7703 25.3507 46.3032 25.7104 45.7894L26.2577 45.011C26.2734 45.011 26.4454 44.6217 26.3829 44.5128Z" fill="#6B0020"/>
<path d="M14.5755 53.2471C14.5442 53.216 14.1532 53.5741 13.5589 54.1813C13.4025 54.3526 13.2462 54.4771 13.0741 54.7106C12.9959 55.4735 13.6528 54.8352 13.7779 54.8819C14.3096 54.6484 14.857 54.3526 15.42 54.0256C17.6876 52.7333 19.4392 51.5034 19.361 51.41C19.3297 51.3788 17.5312 52.4687 15.2636 53.7609C11.5415 56.1119 15.0915 53.0759 14.5755 53.2471Z" fill="#6B0020"/>
<path d="M34.6871 39.0635C36.7045 37.0239 38.3935 35.3736 38.4717 35.4514C38.503 35.4981 36.9548 37.2263 34.9061 39.2971C32.6228 41.2588 30.058 41.4145 30.1049 41.3522C30.0424 41.2277 32.5133 40.9319 34.6871 39.0635Z" fill="#6B0020"/>
<path d="M34.4056 48.1716C38.0026 49.8686 39.3631 53.0292 39.1286 53.0448C39.1598 53.0448 37.7993 50.1333 34.2492 48.4518C30.4802 46.6925 30.4177 42.7379 30.4646 42.9558C30.5897 42.7379 30.7774 46.5057 34.4056 48.1716Z" fill="#6B0020"/>
<path d="M28.3221 41.3211C28.1344 40.9941 27.9311 40.7606 27.8998 40.7917C27.8685 40.8229 27.9936 41.0875 28.1813 41.3989C28.3533 41.7259 28.5254 41.975 28.5723 41.9438C28.6192 41.9283 28.5097 41.6325 28.3221 41.3211Z" fill="#6B0020"/>
<path d="M27.2743 46.7081C27.2743 46.7081 24.9753 51.2388 23.693 53.0759C22.6921 54.4928 17.8909 58.93 17.8909 58.93C17.8909 58.93 23.9588 54.664 25.1317 52.3753C26.3203 50.0866 27.3525 46.4901 27.3525 46.4901L27.2743 46.7081Z" fill="#CD368B"/>
<path d="M26.1014 49.6973C26.1483 49.6039 25.0379 52.422 24.6783 52.9202C24.0214 53.8388 24.1309 53.7609 20.6591 56.6257C20.6591 56.6257 22.7859 54.7107 23.4584 53.9166C24.1153 53.1226 25.5697 50.7405 26.1014 49.6973Z" fill="#E14D9D"/>
<path d="M36.4543 44.9332C34.7966 43.999 32.8261 42.9247 31.2778 42.7223C31.1684 42.7068 33.8739 46.3033 34.9061 46.3656C35.9382 46.4434 37.3144 47.58 38.2059 48.2028C39.0973 48.8255 40.1295 50.9274 40.0982 50.8184C40.0513 50.7094 39.9574 46.8949 36.4543 44.9332Z" fill="#CD368B"/>
<path d="M39.0191 48.4674C39.0191 48.2962 37.8461 46.1476 37.2362 45.6494C36.6263 45.1511 32.9668 43.5475 32.9668 43.5475C32.9668 43.5475 34.3587 45.6961 36.0164 46.2566C37.7523 46.8326 39.7854 49.4327 39.0191 48.4674Z" fill="#E14D9D"/>
<path d="M10.5875 59.7396C10.5875 59.7396 9.99324 61.6235 10.1966 61.7325C10.869 62.0594 11.7448 63.2271 11.7448 63.2271L15.9047 56.8748C13.6371 59.6306 10.5875 59.7396 10.5875 59.7396Z" fill="#CD368B"/>
<path d="M10.8847 60.1133C10.8847 60.1133 10.2591 61.1409 10.5875 61.4834C10.9159 61.8104 11.7292 62.6978 11.7292 62.6978C11.7292 62.6978 14.2157 59.2726 14.7944 58.245C14.81 58.2294 12.5893 60.596 10.8847 60.1133Z" fill="#E14D9D"/>
<path d="M43.3511 33.8633C43.961 32.9292 39.8479 36.1365 39.1286 36.0119C38.4092 35.9029 35.5785 40.9318 33.6237 41.3678C33.6237 41.3678 36.7358 41.975 38.4561 40.6516C40.1764 39.3438 42.053 35.8718 43.3511 33.8633Z" fill="#CD368B"/>
<path d="M41.8185 34.8599C42.2251 34.1592 39.457 36.5725 38.9566 36.4946C38.4561 36.4168 36.5794 40.169 35.2501 40.5115C35.2501 40.5115 37.377 40.9319 38.5499 39.9355C39.7072 38.939 40.9583 36.3545 41.8185 34.8599Z" fill="#E14D9D"/>
<path d="M27.9154 45.0889C27.9154 45.4314 27.5714 45.6961 27.1335 45.6961C26.7113 45.6961 26.3516 45.4314 26.3516 45.0889C26.3516 44.7464 26.6956 44.4817 27.1335 44.4817C27.5558 44.4817 27.9154 44.7619 27.9154 45.0889Z" fill="#FFDE00"/>
<path d="M27.1022 50.5382C27.1022 50.5382 26.3985 49.2615 25.0379 49.6507C23.6773 50.04 23.9588 52.3598 26.8989 54.1658C26.8989 54.1658 29.5732 52.9203 29.8078 51.3789C30.0424 49.822 28.3064 49.2615 27.1022 50.5382Z" fill="#CD368B"/>
<path d="M27.7277 50.2423C29.2134 50.8807 29.1822 52.064 27.1491 53.9323C27.8216 53.5586 29.3229 52.6244 29.4793 51.519C29.6357 50.398 28.6817 49.8375 27.7277 50.2423Z" fill="#FFB3E8"/>
<path d="M29.5419 50.0866C29.2917 49.8531 28.9476 49.7285 28.5723 49.7285C28.1031 49.7285 27.587 49.9309 27.1335 50.3669C27.0709 50.2735 26.9615 50.1334 26.7894 49.9777C26.5079 49.7285 26.1013 49.4639 25.5383 49.4639C25.3663 49.4639 25.1943 49.4794 25.0066 49.5417C24.4592 49.6974 24.1308 50.1645 24.1465 50.7561C24.1465 51.7526 24.9753 53.1071 26.852 54.2437L26.8989 54.2748L26.9458 54.2437C26.9458 54.2437 27.6183 53.9323 28.3377 53.4185C29.0414 52.9047 29.7921 52.2041 29.9172 51.3789C29.9329 51.2855 29.9329 51.1921 29.9329 51.0987C29.9485 50.6783 29.7921 50.3202 29.5419 50.0866ZM29.6983 51.3478C29.6044 52.064 28.9007 52.749 28.2126 53.2472C27.8685 53.4963 27.5245 53.6988 27.2742 53.8389C27.1491 53.9012 27.0397 53.9634 26.9771 53.9946C26.9458 54.0101 26.9302 54.0101 26.9146 54.0257C25.1161 52.9203 24.3654 51.6124 24.3654 50.7561C24.3654 50.2423 24.6156 49.8842 25.0692 49.7597C25.2412 49.713 25.3976 49.6974 25.5383 49.6974C26.0231 49.6974 26.3828 49.9154 26.6331 50.1489C26.7582 50.2579 26.852 50.3825 26.9146 50.4603C26.9458 50.507 26.9771 50.5382 26.9771 50.5693L26.9927 50.6004L27.0709 50.7406L27.1804 50.6316C27.6183 50.1645 28.1187 49.9621 28.5566 49.9621C28.8851 49.9621 29.1666 50.0711 29.3699 50.2579C29.5732 50.4603 29.6983 50.7406 29.6983 51.1142C29.7139 51.1765 29.7139 51.2543 29.6983 51.3478Z" fill="#6B0020"/>
<path d="M13.0741 43.0493C12.6519 43.0493 12.2922 43.314 12.2922 43.6565C12.2922 43.999 12.6362 44.2637 13.0741 44.2637C13.4964 44.2637 13.8561 43.999 13.8561 43.6565C13.8561 43.314 13.512 43.0493 13.0741 43.0493Z" fill="#FFDE00"/>
<path d="M13.6997 43.1427C13.5433 43.0182 13.3244 42.9403 13.0742 42.9403C12.8396 42.9403 12.6206 43.0182 12.4486 43.1427C12.2922 43.2673 12.1827 43.4541 12.1827 43.6565C12.1827 43.8589 12.2922 44.0457 12.4486 44.1703C12.605 44.2948 12.8239 44.3727 13.0742 44.3727C13.3087 44.3727 13.5277 44.2948 13.6997 44.1703C13.8561 44.0457 13.9656 43.8589 13.9656 43.6565C13.9656 43.4541 13.8561 43.2673 13.6997 43.1427ZM13.559 43.999C13.4339 44.0924 13.2618 44.1547 13.0742 44.1547C12.8865 44.1547 12.7145 44.0924 12.5894 43.999C12.4642 43.9056 12.4017 43.7811 12.4017 43.6565C12.4017 43.5319 12.4642 43.4074 12.5894 43.314C12.7145 43.2206 12.8865 43.1583 13.0742 43.1583C13.2618 43.1583 13.4339 43.2206 13.559 43.314C13.6841 43.4074 13.7466 43.5319 13.7466 43.6565C13.7466 43.7811 13.6841 43.9056 13.559 43.999Z" fill="#B35800"/>
<path d="M16.1863 44.217C16.1863 44.5595 15.8423 44.8242 15.4044 44.8242C14.9821 44.8242 14.6224 44.5595 14.6224 44.217C14.6224 43.8744 14.9665 43.6097 15.4044 43.6097C15.8423 43.5942 16.1863 43.8744 16.1863 44.217Z" fill="#FFDE00"/>
<path d="M18.3601 44.544C18.3601 44.8865 18.016 45.1512 17.5781 45.1512C17.1559 45.1512 16.7962 44.8865 16.7962 44.544C16.7962 44.2014 17.1403 43.9368 17.5781 43.9368C18.016 43.9368 18.3601 44.2014 18.3601 44.544Z" fill="#FFDE00"/>
<path d="M20.8623 44.6996C20.8623 45.0421 20.5182 45.3068 20.0803 45.3068C19.6581 45.3068 19.2984 45.0421 19.2984 44.6996C19.2984 44.3571 19.6425 44.0924 20.0803 44.0924C20.5026 44.0924 20.8623 44.3727 20.8623 44.6996Z" fill="#FFDE00"/>
<path d="M23.302 44.6996C23.302 45.0421 22.9579 45.3068 22.52 45.3068C22.0978 45.3068 21.7381 45.0421 21.7381 44.6996C21.7381 44.3571 22.0822 44.0924 22.52 44.0924C22.9579 44.0924 23.302 44.3727 23.302 44.6996Z" fill="#FFDE00"/>
<path d="M28.2908 46.7548C28.2908 47.0973 27.9468 47.362 27.5089 47.362C27.0866 47.362 26.7269 47.0973 26.7269 46.7548C26.7269 46.4123 27.071 46.1476 27.5089 46.1476C27.9468 46.1476 28.2908 46.4123 28.2908 46.7548Z" fill="#FFDE00"/>
<path d="M28.0718 48.5141C28.0718 48.8567 27.7278 49.1213 27.2899 49.1213C26.8676 49.1213 26.5079 48.8567 26.5079 48.5141C26.5079 48.1716 26.852 47.9069 27.2899 47.9069C27.7278 47.9069 28.0718 48.1872 28.0718 48.5141Z" fill="#FFDE00"/>
<path d="M16.0299 43.6876C15.8735 43.5631 15.6546 43.4852 15.4044 43.4852C15.1698 43.4852 14.9508 43.5631 14.7788 43.6876C14.6224 43.8122 14.5129 43.999 14.5129 44.2014C14.5129 44.4038 14.6224 44.5907 14.7788 44.7152C14.9352 44.8398 15.1541 44.9176 15.4044 44.9176C15.6389 44.9176 15.8579 44.8398 16.0299 44.7152C16.1863 44.5907 16.2958 44.4038 16.2958 44.2014C16.2958 43.999 16.2019 43.8122 16.0299 43.6876ZM15.8892 44.5595C15.7641 44.6529 15.592 44.7152 15.4044 44.7152C15.2167 44.7152 15.0447 44.6529 14.9196 44.5595C14.7944 44.4661 14.7319 44.3415 14.7319 44.217C14.7319 44.0924 14.7944 43.9679 14.9196 43.8745C15.0447 43.781 15.2167 43.7188 15.4044 43.7188C15.592 43.7188 15.7641 43.781 15.8892 43.8745C16.0143 43.9679 16.0768 44.0924 16.0768 44.217C16.0768 44.3415 16.0143 44.4505 15.8892 44.5595Z" fill="#B35800"/>
<path d="M18.2037 44.0302C18.0473 43.9056 17.8283 43.8278 17.5781 43.8278C17.3435 43.8278 17.1246 43.9056 16.9526 44.0302C16.7962 44.1547 16.6867 44.3415 16.6867 44.544C16.6867 44.7464 16.7962 44.9332 16.9526 45.0577C17.109 45.1823 17.3279 45.2601 17.5781 45.2601C17.8127 45.2601 18.0317 45.1823 18.2037 45.0577C18.3601 44.9332 18.4695 44.7464 18.4695 44.544C18.4695 44.3415 18.3601 44.1547 18.2037 44.0302ZM18.0629 44.8865C17.9378 44.9799 17.7658 45.0422 17.5781 45.0422C17.3905 45.0422 17.2184 44.9799 17.0933 44.8865C16.9682 44.7931 16.9057 44.6685 16.9057 44.544C16.9057 44.4194 16.9682 44.2948 17.0933 44.2014C17.2184 44.108 17.3905 44.0457 17.5781 44.0457C17.7658 44.0457 17.9378 44.108 18.0629 44.2014C18.188 44.2948 18.2506 44.4194 18.2506 44.544C18.2506 44.6685 18.188 44.7931 18.0629 44.8865Z" fill="#B35800"/>
<path d="M20.6903 44.1858C20.5339 44.0612 20.3149 43.9834 20.0647 43.9834C19.8301 43.9834 19.6112 44.0612 19.4391 44.1858C19.2828 44.3104 19.1733 44.4972 19.1733 44.6996C19.1733 44.902 19.2828 45.0888 19.4391 45.2134C19.5955 45.3379 19.8145 45.4158 20.0647 45.4158C20.2993 45.4158 20.5182 45.3379 20.6903 45.2134C20.8466 45.0888 20.9561 44.902 20.9561 44.6996C20.9718 44.4972 20.8623 44.3104 20.6903 44.1858ZM20.5651 45.0577C20.44 45.1511 20.268 45.2134 20.0803 45.2134C19.8927 45.2134 19.7206 45.1511 19.5955 45.0577C19.4704 44.9643 19.4079 44.8397 19.4079 44.7152C19.4079 44.5906 19.4704 44.466 19.5955 44.3726C19.7206 44.2792 19.8927 44.2169 20.0803 44.2169C20.268 44.2169 20.44 44.2792 20.5651 44.3726C20.6903 44.466 20.7528 44.5906 20.7528 44.7152C20.7528 44.8397 20.6746 44.9487 20.5651 45.0577Z" fill="#B35800"/>
<path d="M23.1456 44.1858C22.9892 44.0612 22.7702 43.9834 22.52 43.9834C22.2854 43.9834 22.0665 44.0612 21.8945 44.1858C21.7381 44.3104 21.6286 44.4972 21.6286 44.6996C21.6286 44.902 21.7381 45.0888 21.8945 45.2134C22.0509 45.3379 22.2698 45.4158 22.52 45.4158C22.7546 45.4158 22.9735 45.3379 23.1456 45.2134C23.302 45.0888 23.4114 44.902 23.4114 44.6996C23.4114 44.4972 23.302 44.3104 23.1456 44.1858ZM23.0048 45.0577C22.8797 45.1511 22.7077 45.2134 22.52 45.2134C22.3324 45.2134 22.1603 45.1511 22.0352 45.0577C21.9101 44.9643 21.8475 44.8397 21.8475 44.7152C21.8475 44.5906 21.9101 44.466 22.0352 44.3726C22.1603 44.2792 22.3324 44.2169 22.52 44.2169C22.7077 44.2169 22.8797 44.2792 23.0048 44.3726C23.1299 44.466 23.1925 44.5906 23.1925 44.7152C23.1925 44.8397 23.1299 44.9487 23.0048 45.0577Z" fill="#B35800"/>
<path d="M27.1335 45.8206C27.3681 45.8206 27.5871 45.7428 27.7591 45.6182C27.9155 45.4937 28.025 45.3068 28.025 45.1044C28.025 44.902 27.9155 44.7152 27.7591 44.5906C27.6027 44.4661 27.3838 44.3882 27.1335 44.3882C26.899 44.3882 26.68 44.4661 26.508 44.5906C26.3516 44.7152 26.2421 44.902 26.2421 45.1044C26.2421 45.3068 26.3516 45.4937 26.508 45.6182C26.68 45.7428 26.899 45.8206 27.1335 45.8206ZM26.6487 44.7463C26.7738 44.6529 26.9459 44.5906 27.1335 44.5906C27.3212 44.5906 27.4932 44.6529 27.6184 44.7463C27.7435 44.8398 27.806 44.9643 27.806 45.0889C27.806 45.2134 27.7435 45.338 27.6184 45.4314C27.4932 45.5248 27.3212 45.5871 27.1335 45.5871C26.9459 45.5871 26.7738 45.5248 26.6487 45.4314C26.5236 45.338 26.4611 45.2134 26.4611 45.0889C26.4611 44.9643 26.5236 44.8398 26.6487 44.7463Z" fill="#B35800"/>
<path d="M28.1344 46.241C27.978 46.1165 27.7591 46.0386 27.5089 46.0386C27.2743 46.0386 27.0553 46.1165 26.8833 46.241C26.7269 46.3656 26.6174 46.5524 26.6174 46.7548C26.6174 46.9572 26.7269 47.1441 26.8833 47.2686C27.0397 47.3932 27.2586 47.471 27.5089 47.471C27.7434 47.471 27.9624 47.3932 28.1344 47.2686C28.2908 47.1441 28.4003 46.9572 28.4003 46.7548C28.4159 46.5524 28.3064 46.3656 28.1344 46.241ZM28.0093 47.0973C27.8842 47.1908 27.7122 47.253 27.5245 47.253C27.3368 47.253 27.1648 47.1908 27.0397 47.0973C26.9146 47.0039 26.852 46.8794 26.852 46.7548C26.852 46.6303 26.9146 46.5057 27.0397 46.4123C27.1648 46.3189 27.3368 46.2566 27.5245 46.2566C27.7122 46.2566 27.8842 46.3189 28.0093 46.4123C28.1344 46.5057 28.197 46.6303 28.197 46.7548C28.1813 46.8794 28.1188 47.0039 28.0093 47.0973Z" fill="#B35800"/>
<path d="M27.9155 48.0003C27.7591 47.8758 27.5401 47.7979 27.2899 47.7979C27.0553 47.7979 26.8364 47.8758 26.6644 48.0003C26.508 48.1249 26.3985 48.3117 26.3985 48.5141C26.3985 48.7165 26.508 48.9033 26.6644 49.0279C26.8207 49.1524 27.0397 49.2303 27.2899 49.2303C27.5245 49.2303 27.7434 49.1524 27.9155 49.0279C28.0719 48.9033 28.1813 48.7165 28.1813 48.5141C28.1813 48.3117 28.0719 48.1249 27.9155 48.0003ZM27.7747 48.8722C27.6496 48.9656 27.4776 49.0279 27.2899 49.0279C27.1022 49.0279 26.9302 48.9656 26.8051 48.8722C26.68 48.7788 26.6174 48.6542 26.6174 48.5297C26.6174 48.4051 26.68 48.2806 26.8051 48.1871C26.9302 48.0937 27.1022 48.0315 27.2899 48.0315C27.4776 48.0315 27.6496 48.0937 27.7747 48.1871C27.8998 48.2806 27.9624 48.4051 27.9624 48.5297C27.9624 48.6542 27.8998 48.7632 27.7747 48.8722Z" fill="#B35800"/>
<path d="M12.8395 43.2672C12.8395 43.2672 13.4807 43.1427 13.5746 43.4385C13.6684 43.7343 13.4025 44.0457 13.4025 44.0457C13.4025 44.0457 13.4495 43.4385 12.8395 43.2672Z" fill="#FFF53D"/>
<path d="M15.1072 43.8278C15.1072 43.8278 15.7484 43.7032 15.8422 43.9991C15.936 44.2949 15.6702 44.6063 15.6702 44.6063C15.6702 44.6063 15.7327 43.9835 15.1072 43.8278Z" fill="#FFF53D"/>
<path d="M17.2498 44.1858C17.2498 44.1858 17.8909 44.0613 17.9848 44.3571C18.0786 44.6529 17.8128 44.9643 17.8128 44.9643C17.8128 44.9643 17.8753 44.3571 17.2498 44.1858Z" fill="#FFF53D"/>
<path d="M19.7676 44.2793C19.7676 44.2793 20.4088 44.1547 20.5026 44.4505C20.5964 44.7464 20.3306 45.0577 20.3306 45.0577C20.3306 45.0577 20.3931 44.4505 19.7676 44.2793Z" fill="#FFF53D"/>
<path d="M22.2855 44.3415C22.2855 44.3415 22.9267 44.217 23.0205 44.5128C23.1143 44.8086 22.8485 45.12 22.8485 45.12C22.8485 45.12 22.911 44.4972 22.2855 44.3415Z" fill="#FFF53D"/>
<path d="M26.8677 44.6685C26.8677 44.6685 27.5089 44.544 27.6027 44.8398C27.6965 45.1356 27.4307 45.447 27.4307 45.447C27.4307 45.447 27.4932 44.8242 26.8677 44.6685Z" fill="#FFF53D"/>
<path d="M27.2586 46.3344C27.2586 46.3344 27.8998 46.2098 27.9936 46.5056C28.0875 46.8015 27.8216 47.1129 27.8216 47.1129C27.8216 47.1129 27.8842 46.4901 27.2586 46.3344Z" fill="#FFF53D"/>
<path d="M27.0709 48.0938C27.0709 48.0938 27.7121 47.9692 27.806 48.265C27.8998 48.5609 27.6339 48.8722 27.6339 48.8722C27.6339 48.8722 27.6965 48.265 27.0709 48.0938Z" fill="#FFF53D"/>
<path d="M29.4012 50.7561C30.6054 50.725 31.5594 50.6471 31.5594 50.5537C31.5594 50.4759 30.6054 50.4136 29.4012 50.4292C29.3855 49.3082 29.323 48.4363 29.2448 48.4363C29.1666 48.4363 29.104 49.3082 29.0884 50.4447C27.8842 50.4759 26.9302 50.5537 26.9302 50.6471C26.9302 50.725 27.8842 50.7873 29.0884 50.7717C29.0884 52.0328 29.1666 53.0604 29.2448 53.0604C29.323 53.0604 29.4012 52.0328 29.4012 50.7561Z" fill="white"/>
</g>
<path d="M59.56 29H63.28V23.36L64.48 22.136L70.168 29H75.064L67.288 19.64L74.584 12.2H69.736L63.28 18.752V12.2H59.56V29ZM74.2122 20.6C74.2122 25.592 78.0762 29.288 82.8762 29.288C87.6762 29.288 91.5162 25.544 91.5162 20.6C91.5162 15.608 87.6762 11.912 82.8762 11.912C78.0042 11.912 74.2122 15.752 74.2122 20.6ZM78.0762 20.6C78.0762 17.48 80.3322 15.512 82.8762 15.512C85.3242 15.512 87.6522 17.48 87.6522 20.6C87.6522 23.72 85.5162 25.688 82.8762 25.688C80.3322 25.688 78.0762 23.72 78.0762 20.6ZM93.8022 29H97.5222V23.36L98.7222 22.136L104.41 29H109.306L101.53 19.64L108.826 12.2H103.978L97.5222 18.752V12.2H93.8022V29ZM110.63 29H123.686V25.52H114.35V22.16H122.87V18.8H114.35V15.68H123.47V12.2H110.63V29ZM124.656 15.68H130.032V29H133.752V15.68H139.152V12.2H124.656V15.68ZM140.701 29H144.421V23.36L145.621 22.136L151.309 29H156.205L148.429 19.64L155.725 12.2H150.877L144.421 18.752V12.2H140.701V29ZM155.873 29H159.713L161.081 25.88H168.113L169.481 29H173.369L166.001 12.2H163.241L155.873 29ZM164.585 17.72L166.745 22.736H162.377L164.585 17.72ZM175.356 27.056C175.356 28.136 176.244 29.144 177.612 29.144C178.86 29.144 179.82 28.136 179.82 27.056C179.82 26.072 178.86 25.016 177.612 25.016C176.244 25.016 175.356 26.072 175.356 27.056ZM182.583 29H189.903C193.695 29 196.455 27.536 196.455 24.008C196.455 21.92 195.639 20.744 194.271 20.096C195.207 19.28 195.903 18.152 195.903 16.496C195.903 13.976 194.487 12.2 190.095 12.2H182.583V29ZM189.711 22.112C191.823 22.112 192.567 22.616 192.567 23.792C192.567 25.016 191.751 25.52 189.519 25.52H186.303V22.112H189.711ZM189.471 15.68C191.511 15.68 192.039 16.232 192.039 17.336C192.039 18.2 191.271 18.752 189.783 18.752H186.303V15.68H189.471ZM206.049 22.952H210.297V24.728C209.409 25.376 208.233 25.688 207.129 25.688C204.081 25.688 201.873 23.888 201.873 20.6C201.873 17.432 203.793 15.512 206.841 15.512C208.569 15.512 209.961 16.16 210.921 17.24L213.489 14.936C212.313 13.112 209.577 11.912 206.697 11.912C201.513 11.912 198.009 15.8 198.009 20.6C198.009 25.808 201.825 29.288 207.105 29.288C209.793 29.288 212.241 28.184 213.873 26.384V19.592H206.049V22.952Z" fill="white"/>
<path d="M59.7 42H60.91V37.14L63.09 39.93H63.4L65.53 37.15V42H66.74V35H65.68L63.27 38.25L60.77 35H59.7V42ZM68.8275 38.29C69.3275 37.91 69.7475 37.74 70.3175 37.74C71.1575 37.74 71.4475 38.16 71.4375 38.91C71.1975 38.83 70.7375 38.77 70.3675 38.77C68.9875 38.77 67.9375 39.26 67.9375 40.42C67.9375 41.42 68.6875 42.06 69.8275 42.06C70.5975 42.06 71.1275 41.77 71.4375 41.43V42H72.5775V38.82C72.5775 37.46 71.8175 36.68 70.4475 36.68C69.5975 36.68 68.7575 36.97 68.2675 37.45L68.8275 38.29ZM70.0775 41.07C69.4975 41.07 69.1175 40.82 69.1175 40.41C69.1175 39.89 69.6675 39.72 70.4875 39.72C70.8575 39.72 71.2275 39.79 71.4375 39.86V40.36C71.2075 40.71 70.7675 41.07 70.0775 41.07ZM73.9093 42H75.0493V37.86H77.8293V36.8H73.9093V42ZM79.2615 38.29C79.7615 37.91 80.1815 37.74 80.7515 37.74C81.5915 37.74 81.8815 38.16 81.8715 38.91C81.6315 38.83 81.1715 38.77 80.8015 38.77C79.4215 38.77 78.3715 39.26 78.3715 40.42C78.3715 41.42 79.1215 42.06 80.2615 42.06C81.0315 42.06 81.5615 41.77 81.8715 41.43V42H83.0115V38.82C83.0115 37.46 82.2515 36.68 80.8815 36.68C80.0315 36.68 79.1915 36.97 78.7015 37.45L79.2615 38.29ZM80.5115 41.07C79.9315 41.07 79.5515 40.82 79.5515 40.41C79.5515 39.89 80.1015 39.72 80.9215 39.72C81.2915 39.72 81.6615 39.79 81.8715 39.86V40.36C81.6415 40.71 81.2015 41.07 80.5115 41.07ZM86.2933 42.12C87.6333 42.12 88.6433 41.47 88.6433 40.36C88.6433 39.85 88.4733 39.49 87.9533 39.19C88.3233 38.9 88.4633 38.54 88.4633 38.15C88.4633 37.27 87.7233 36.65 86.3533 36.65C85.0933 36.65 84.3433 37.27 84.0133 37.84L84.8233 38.38C85.1333 38 85.5133 37.68 86.2933 37.68C86.8133 37.68 87.2833 37.88 87.2833 38.31C87.2833 38.64 86.9933 38.86 86.5733 38.86H85.4833V39.85H86.6333C87.1633 39.85 87.4633 40.02 87.4633 40.37C87.4633 40.82 86.9833 41.09 86.3033 41.09C85.5733 41.09 85.0433 40.76 84.7533 40.26L83.8933 40.86C84.3533 41.64 85.0533 42.12 86.2933 42.12ZM90.7309 42L93.4909 38.62V42H94.6309V36.8H93.6409L90.8809 40.19V36.8H89.7409V42H90.7309ZM99.638 42H100.778V36.8H99.638V38.84H97.138V36.8H95.998V42H97.138V39.89H99.638V42ZM101.648 37.86H102.918V42H105.088C106.778 42 107.348 41.1 107.348 40.14C107.348 39.16 106.838 38.29 105.158 38.29H104.058V36.8H101.648V37.86ZM105.058 39.35C105.858 39.35 106.168 39.64 106.168 40.15C106.168 40.66 105.878 40.94 105.058 40.94H104.058V39.35H105.058ZM107.309 37.86H109.189V42H110.329V37.86H112.209V36.8H107.309V37.86ZM117.683 42.12C119.023 42.12 120.033 41.47 120.033 40.36C120.033 39.85 119.863 39.49 119.343 39.19C119.713 38.9 119.853 38.54 119.853 38.15C119.853 37.27 119.113 36.65 117.743 36.65C116.483 36.65 115.733 37.27 115.403 37.84L116.213 38.38C116.523 38 116.903 37.68 117.683 37.68C118.203 37.68 118.673 37.88 118.673 38.31C118.673 38.64 118.383 38.86 117.963 38.86H116.873V39.85H118.023C118.553 39.85 118.853 40.02 118.853 40.37C118.853 40.82 118.373 41.09 117.693 41.09C116.963 41.09 116.433 40.76 116.143 40.26L115.283 40.86C115.743 41.64 116.443 42.12 117.683 42.12ZM121.691 38.29C122.191 37.91 122.611 37.74 123.181 37.74C124.021 37.74 124.311 38.16 124.301 38.91C124.061 38.83 123.601 38.77 123.231 38.77C121.851 38.77 120.801 39.26 120.801 40.42C120.801 41.42 121.551 42.06 122.691 42.06C123.461 42.06 123.991 41.77 124.301 41.43V42H125.441V38.82C125.441 37.46 124.681 36.68 123.311 36.68C122.461 36.68 121.621 36.97 121.131 37.45L121.691 38.29ZM122.941 41.07C122.361 41.07 121.981 40.82 121.981 40.41C121.981 39.89 122.531 39.72 123.351 39.72C123.721 39.72 124.091 39.79 124.301 39.86V40.36C124.071 40.71 123.631 41.07 122.941 41.07ZM129.436 42H131.896C133.216 42 133.996 41.47 133.996 40.45C133.996 39.89 133.756 39.43 133.266 39.24C133.616 38.98 133.846 38.66 133.846 38.18C133.846 37.17 133.096 36.8 131.656 36.8H129.436V42ZM131.816 39.85C132.496 39.85 132.816 40.01 132.816 40.42C132.816 40.81 132.466 40.97 131.786 40.97H130.576V39.85H131.816ZM131.626 37.83C132.286 37.83 132.666 37.91 132.666 38.33C132.666 38.69 132.386 38.86 131.916 38.86H130.576V37.83H131.626ZM135.657 38.29C136.157 37.91 136.577 37.74 137.147 37.74C137.987 37.74 138.277 38.16 138.267 38.91C138.027 38.83 137.567 38.77 137.197 38.77C135.817 38.77 134.767 39.26 134.767 40.42C134.767 41.42 135.517 42.06 136.657 42.06C137.427 42.06 137.957 41.77 138.267 41.43V42H139.407V38.82C139.407 37.46 138.647 36.68 137.277 36.68C136.427 36.68 135.587 36.97 135.097 37.45L135.657 38.29ZM136.907 41.07C136.327 41.07 135.947 40.82 135.947 40.41C135.947 39.89 136.497 39.72 137.317 39.72C137.687 39.72 138.057 39.79 138.267 39.86V40.36C138.037 40.71 137.597 41.07 136.907 41.07ZM140.739 42H147.159V36.8H146.019V40.94H144.519V36.8H143.379V40.94H141.879V36.8H140.739V42ZM149.509 42L152.269 38.62V42H153.409V36.8H152.419L149.659 40.19V36.8H148.519V42H149.509ZM154.276 37.86H156.156V42H157.296V37.86H159.176V36.8H154.276V37.86ZM163.812 40.34C163.502 40.76 162.982 41.03 162.422 41.03C161.562 41.03 160.892 40.61 160.802 39.79H164.662C164.702 39.48 164.722 39.23 164.722 39.06C164.722 37.62 163.682 36.68 162.282 36.68C160.542 36.68 159.612 37.87 159.612 39.39C159.612 41.03 160.732 42.09 162.402 42.09C163.252 42.09 163.982 41.74 164.512 41.03L163.812 40.34ZM162.232 37.71C162.962 37.71 163.452 38.08 163.542 38.8H160.812C160.962 38.13 161.462 37.71 162.232 37.71ZM172.109 42H173.249V36.8H169.149V38.28C169.149 40.69 168.539 41.03 167.989 40.98L168.079 42.04C169.369 42.15 170.269 41.43 170.269 38.67V37.86H172.109V42ZM174.609 42H175.749V39.85H176.629C176.829 41.18 177.809 42.09 179.249 42.09C180.829 42.09 181.939 40.95 181.939 39.39C181.939 37.82 180.839 36.68 179.249 36.68C177.859 36.68 176.889 37.55 176.649 38.82H175.749V36.8H174.609V42ZM177.779 39.39C177.779 38.39 178.439 37.74 179.259 37.74C180.149 37.74 180.759 38.39 180.759 39.39C180.759 40.39 180.139 41.03 179.259 41.03C178.409 41.03 177.779 40.39 177.779 39.39ZM187.614 34.57C186.654 34.86 185.474 34.62 184.544 35.09C183.174 35.78 182.854 37.09 182.854 38.98C182.854 41 183.974 42.1 185.644 42.1C187.244 42.1 188.284 40.96 188.284 39.44C188.284 37.86 187.224 37.03 185.884 37.03C185.074 37.03 184.384 37.26 183.984 37.83C184.034 37.03 184.294 36.4 184.954 36.09C185.724 35.75 186.924 35.96 187.804 35.6L187.614 34.57ZM184.034 39.17C184.264 38.6 184.814 38.09 185.664 38.09C186.604 38.09 187.104 38.66 187.104 39.51C187.104 40.39 186.574 41.04 185.634 41.04C184.684 41.04 184.034 40.27 184.034 39.28V39.17ZM190.389 42L193.149 38.62V42H194.289V36.8H193.299L190.539 40.19V36.8H189.399V42H190.389ZM195.656 42H196.796V38.74L198.506 40.86L200.116 38.77V42H201.256V36.8H200.316L198.496 39.16L196.676 36.8H195.656V42ZM202.626 42H206.956V43.19H208.016V40.94H207.316V36.8H206.176V40.94H203.766V36.8H202.626V42ZM209.892 42L212.652 38.62V42H213.792V36.8H212.802L210.042 40.19V36.8H208.902V42H209.892Z" fill="white"/>
<defs>
<clipPath id="clip0">
<rect width="85" height="66" fill="white"/>
</clipPath>
</defs>
</svg>
