<svg width="21" height="22" viewBox="0 0 21 22" fill="none" xmlns="http://www.w3.org/2000/svg">
<path d="M18.5625 0H2.0625C0.928125 0 0 0.928125 0 2.0625V19.9375C0 21.0719 0.928125 22 2.0625 22H18.5625C19.6969 22 20.625 21.0719 20.625 19.9375V2.0625C20.625 0.928125 19.6969 0 18.5625 0ZM17.875 19.25H2.75V2.75H17.875V19.25ZM5.5 12.375H15.125V13.75H5.5V12.375ZM5.5 15.125H15.125V16.5H5.5V15.125ZM6.875 6.1875C6.875 5.04831 7.79831 4.125 8.9375 4.125C10.0767 4.125 11 5.04831 11 6.1875C11 7.32669 10.0767 8.25 8.9375 8.25C7.79831 8.25 6.875 7.32669 6.875 6.1875ZM10.3125 8.25H7.5625C6.42812 8.25 5.5 8.86875 5.5 9.625V11H12.375V9.625C12.375 8.86875 11.4469 8.25 10.3125 8.25Z" fill="white"/>
</svg>
