<svg width="27" height="23" viewBox="0 0 27 23" fill="none" xmlns="http://www.w3.org/2000/svg">
<path d="M10.0108 3.07318C9.45855 3.07318 9.01083 3.5209 9.01083 4.07318C9.01083 4.62547 9.45855 5.07318 10.0108 5.07318V3.07318ZM25.1695 4.73904L26.1255 5.0323L26.1283 5.02306L26.131 5.01376L25.1695 4.73904ZM22.6085 13.0879L23.5448 13.439L23.5555 13.4104L23.5645 13.3811L22.6085 13.0879ZM10.0108 5.07318H24.6573V3.07318H10.0108V5.07318ZM24.6573 5.07318C24.5452 5.07318 24.4039 5.02117 24.3013 4.8913C24.1932 4.75427 24.173 4.58644 24.2079 4.46432L26.131 5.01376C26.4292 3.96988 25.631 3.07318 24.6573 3.07318V5.07318ZM24.2134 4.44578L21.6524 12.7946L23.5645 13.3811L26.1255 5.0323L24.2134 4.44578ZM21.6721 12.7367C21.6552 12.782 21.6336 12.8027 21.6274 12.8074C21.625 12.8093 21.6261 12.808 21.6305 12.8064C21.6355 12.8047 21.6381 12.8049 21.6353 12.8049V14.8049C22.5908 14.8049 23.2741 14.1609 23.5448 13.439L21.6721 12.7367ZM21.6353 12.8049H9.54742V14.8049H21.6353V12.8049Z" fill="white"/>
<path d="M24.3522 18.3903C24.9045 18.3903 25.3522 17.9426 25.3522 17.3903C25.3522 16.838 24.9045 16.3903 24.3522 16.3903V18.3903ZM10.3669 16.6732L11.337 16.4307L11.3335 16.4167L11.3296 16.4029L10.3669 16.6732ZM6.16687 1.71708L5.19673 1.95961L5.20022 1.97358L5.20411 1.98744L6.16687 1.71708ZM1.35223 0C0.799949 0 0.352234 0.447715 0.352234 1C0.352234 1.55228 0.799949 2 1.35223 2V0ZM24.3522 16.3903H11.34V18.3903H24.3522V16.3903ZM11.34 16.3903C11.3361 16.3903 11.3314 16.3897 11.3263 16.3879C11.3209 16.3861 11.3166 16.3837 11.3142 16.3819C11.3118 16.3801 11.314 16.381 11.3187 16.3878C11.3236 16.3948 11.3316 16.409 11.337 16.4307L9.39673 16.9158C9.62069 17.8116 10.4638 18.3903 11.34 18.3903V16.3903ZM11.3296 16.4029L7.12963 1.44671L5.20411 1.98744L9.40411 16.9436L11.3296 16.4029ZM7.13701 1.47454C6.91305 0.578682 6.06995 0 5.1937 0V2C5.19767 2 5.2023 2.00066 5.20743 2.00238C5.21288 2.00421 5.21712 2.00667 5.21951 2.00843C5.22197 2.01026 5.21971 2.00928 5.21505 2.00256C5.21015 1.99551 5.20216 1.98133 5.19673 1.95961L7.13701 1.47454ZM5.1937 0H1.35223V2H5.1937V0Z" fill="white"/>
<path d="M10.5718 22.0001C11.4204 22.0001 12.1084 21.3122 12.1084 20.4635C12.1084 19.6149 11.4204 18.9269 10.5718 18.9269C9.72314 18.9269 9.03519 19.6149 9.03519 20.4635C9.03519 21.3122 9.72314 22.0001 10.5718 22.0001Z" stroke="white" stroke-width="2" stroke-miterlimit="10"/>
<path d="M20.8158 22.0001C21.6644 22.0001 22.3524 21.3122 22.3524 20.4635C22.3524 19.6149 21.6644 18.9269 20.8158 18.9269C19.9671 18.9269 19.2792 19.6149 19.2792 20.4635C19.2792 21.3122 19.9671 22.0001 20.8158 22.0001Z" stroke="white" stroke-width="2" stroke-miterlimit="10"/>
</svg>
